<?xml version="1.0" encoding="UTF-8"?>
<svg xmlns="http://www.w3.org/2000/svg" width="160" height="80" viewBox="0 0 160 80" font-family="monospace" font-size="16">
  <text id="t-0-0" x="0" y="14" style="fill:#0000aa">┌</text>
  <text id="t-0-1" x="8" y="14" style="fill:#0000aa">─</text>
  <text id="t-0-2" x="16" y="14" style="fill:#0000aa">─</text>
  <text id="t-0-3" x="24" y="14" style="fill:#0000aa">─</text>
  <text id="t-0-4" x="32" y="14" style="fill:#0000aa">─</text>
  <text id="t-0-5" x="40" y="14" style="fill:#0000aa">─</text>
  <text id="t-0-6" x="48" y="14" style="fill:#0000aa">─</text>
  <text id="t-0-7" x="56" y="14" style="fill:#0000aa">─</text>
  <text id="t-0-8" x="64" y="14" style="fill:#0000aa">─</text>
  <text id="t-0-9" x="72" y="14" style="fill:#0000aa">─</text>
  <text id="t-0-10" x="80" y="14" style="fill:#0000aa">─</text>
  <text id="t-0-11" x="88" y="14" style="fill:#0000aa">─</text>
  <text id="t-0-12" x="96" y="14" style="fill:#0000aa">─</text>
  <text id="t-0-13" x="104" y="14" style="fill:#0000aa">─</text>
  <text id="t-0-14" x="112" y="14" style="fill:#0000aa">─</text>
  <text id="t-0-15" x="120" y="14" style="fill:#0000aa">┐</text>
  <text id="t-1-0" x="0" y="30" style="fill:#0000aa">│</text>
  <text id="t-1-15" x="120" y="30" style="fill:#0000aa">│</text>
  <text id="t-2-0" x="0" y="46" style="fill:#0000aa">│</text>
  <text id="t-2-4" x="32" y="46" style="fill:#0000aa">S</text>
  <text id="t-2-5" x="40" y="46" style="fill:#0000aa">i</text>
  <text id="t-2-6" x="48" y="46" style="fill:#0000aa">d</text>
  <text id="t-2-7" x="56" y="46" style="fill:#0000aa">e</text>
  <text id="t-2-8" x="64" y="46" style="fill:#0000aa">b</text>
  <text id="t-2-9" x="72" y="46" style="fill:#0000aa">a</text>
  <text id="t-2-10" x="80" y="46" style="fill:#0000aa">r</text>
  <text id="t-2-15" x="120" y="46" style="fill:#0000aa">│</text>
  <text id="t-3-0" x="0" y="62" style="fill:#0000aa">│</text>
  <text id="t-3-15" x="120" y="62" style="fill:#0000aa">│</text>
  <text id="t-4-0" x="0" y="78" style="fill:#0000aa">└</text>
  <text id="t-4-1" x="8" y="78" style="fill:#0000aa">─</text>
  <text id="t-4-2" x="16" y="78" style="fill:#0000aa">─</text>
  <text id="t-4-3" x="24" y="78" style="fill:#0000aa">─</text>
  <text id="t-4-4" x="32" y="78" style="fill:#0000aa">─</text>
  <text id="t-4-5" x="40" y="78" style="fill:#0000aa">─</text>
  <text id="t-4-6" x="48" y="78" style="fill:#0000aa">─</text>
  <text id="t-4-7" x="56" y="78" style="fill:#0000aa">─</text>
  <text id="t-4-8" x="64" y="78" style="fill:#0000aa">─</text>
  <text id="t-4-9" x="72" y="78" style="fill:#0000aa">─</text>
  <text id="t-4-10" x="80" y="78" style="fill:#0000aa">─</text>
  <text id="t-4-11" x="88" y="78" style="fill:#0000aa">─</text>
  <text id="t-4-12" x="96" y="78" style="fill:#0000aa">─</text>
  <text id="t-4-13" x="104" y="78" style="fill:#0000aa">─</text>
  <text id="t-4-14" x="112" y="78" style="fill:#0000aa">─</text>
  <text id="t-4-15" x="120" y="78" style="fill:#0000aa">┘</text>

  <rect id="box-3" x="0" y="0" width="160" height="16" fill="none" stroke="#3399ff" stroke-width="1"/>
  <rect id="box-5" x="0" y="16" width="160" height="16" fill="none" stroke="#3399ff" stroke-width="1"/>
  <rect id="box-7" x="0" y="32" width="160" height="16" fill="none" stroke="#3399ff" stroke-width="1"/>
  <rect id="box-9" x="0" y="48" width="160" height="16" fill="none" stroke="#3399ff" stroke-width="1"/>
  <rect id="box-11" x="0" y="64" width="160" height="16" fill="none" stroke="#3399ff" stroke-width="1"/>
  <rect id="dirty-0-0" x="0" y="0" width="128" height="16" fill="#ff0000" fill-opacity="0.2"/>
  <rect id="dirty-1-0" x="0" y="16" width="128" height="16" fill="#ff0000" fill-opacity="0.2"/>
  <rect id="dirty-2-0" x="0" y="32" width="128" height="16" fill="#ff0000" fill-opacity="0.2"/>
  <rect id="dirty-3-0" x="0" y="48" width="128" height="16" fill="#ff0000" fill-opacity="0.2"/>
  <rect id="dirty-4-0" x="0" y="64" width="128" height="16" fill="#ff0000" fill-opacity="0.2"/>
</svg>
