<?xml version="1.0" encoding="UTF-8"?>
<svg xmlns="http://www.w3.org/2000/svg" width="320" height="256" viewBox="0 0 320 256" font-family="monospace" font-size="16">
  <text id="t-0-0" x="0" y="14" style="fill:currentColor">┌</text>
  <text id="t-0-1" x="8" y="14" style="fill:currentColor">─</text>
  <text id="t-0-2" x="16" y="14" style="fill:currentColor">─</text>
  <text id="t-0-3" x="24" y="14" style="fill:currentColor">─</text>
  <text id="t-0-4" x="32" y="14" style="fill:currentColor">─</text>
  <text id="t-0-5" x="40" y="14" style="fill:currentColor">─</text>
  <text id="t-0-6" x="48" y="14" style="fill:currentColor">─</text>
  <text id="t-0-7" x="56" y="14" style="fill:currentColor">─</text>
  <text id="t-0-8" x="64" y="14" style="fill:currentColor">─</text>
  <text id="t-0-9" x="72" y="14" style="fill:currentColor">─</text>
  <text id="t-0-10" x="80" y="14" style="fill:currentColor">─</text>
  <text id="t-0-11" x="88" y="14" style="fill:currentColor">─</text>
  <text id="t-0-12" x="96" y="14" style="fill:currentColor">─</text>
  <text id="t-0-13" x="104" y="14" style="fill:currentColor">─</text>
  <text id="t-0-14" x="112" y="14" style="fill:currentColor">─</text>
  <text id="t-0-15" x="120" y="14" style="fill:currentColor">─</text>
  <text id="t-0-16" x="128" y="14" style="fill:currentColor">─</text>
  <text id="t-0-17" x="136" y="14" style="fill:currentColor">─</text>
  <text id="t-0-18" x="144" y="14" style="fill:currentColor">─</text>
  <text id="t-0-19" x="152" y="14" style="fill:currentColor">─</text>
  <text id="t-0-20" x="160" y="14" style="fill:currentColor">─</text>
  <text id="t-0-21" x="168" y="14" style="fill:currentColor">─</text>
  <text id="t-0-22" x="176" y="14" style="fill:currentColor">─</text>
  <text id="t-0-23" x="184" y="14" style="fill:currentColor">─</text>
  <text id="t-0-24" x="192" y="14" style="fill:currentColor">─</text>
  <text id="t-0-25" x="200" y="14" style="fill:currentColor">─</text>
  <text id="t-0-26" x="208" y="14" style="fill:currentColor">─</text>
  <text id="t-0-27" x="216" y="14" style="fill:currentColor">─</text>
  <text id="t-0-28" x="224" y="14" style="fill:currentColor">─</text>
  <text id="t-0-29" x="232" y="14" style="fill:currentColor">─</text>
  <text id="t-0-30" x="240" y="14" style="fill:currentColor">─</text>
  <text id="t-0-31" x="248" y="14" style="fill:currentColor">─</text>
  <text id="t-0-32" x="256" y="14" style="fill:currentColor">─</text>
  <text id="t-0-33" x="264" y="14" style="fill:currentColor">─</text>
  <text id="t-0-34" x="272" y="14" style="fill:currentColor">─</text>
  <text id="t-0-35" x="280" y="14" style="fill:currentColor">─</text>
  <text id="t-0-36" x="288" y="14" style="fill:currentColor">─</text>
  <text id="t-0-37" x="296" y="14" style="fill:currentColor">─</text>
  <text id="t-0-38" x="304" y="14" style="fill:currentColor">─</text>
  <text id="t-0-39" x="312" y="14" style="fill:currentColor">┐</text>
  <text id="t-1-0" x="0" y="30" style="fill:currentColor">│</text>
  <text id="t-1-1" x="8" y="30" style="fill:currentColor">T</text>
  <text id="t-1-2" x="16" y="30" style="fill:currentColor">h</text>
  <text id="t-1-3" x="24" y="30" style="fill:currentColor">i</text>
  <text id="t-1-4" x="32" y="30" style="fill:currentColor">s</text>
  <text id="t-1-6" x="48" y="30" style="fill:currentColor">i</text>
  <text id="t-1-7" x="56" y="30" style="fill:currentColor">s</text>
  <text id="t-1-9" x="72" y="30" style="fill:currentColor">o</text>
  <text id="t-1-10" x="80" y="30" style="fill:currentColor">p</text>
  <text id="t-1-11" x="88" y="30" style="fill:currentColor">t</text>
  <text id="t-1-12" x="96" y="30" style="fill:currentColor">i</text>
  <text id="t-1-13" x="104" y="30" style="fill:currentColor">o</text>
  <text id="t-1-14" x="112" y="30" style="fill:currentColor">n</text>
  <text id="t-1-16" x="128" y="30" style="fill:currentColor">#</text>
  <text id="t-1-17" x="136" y="30" style="fill:currentColor">0</text>
  <text id="t-1-39" x="312" y="30" style="fill:currentColor">│</text>
  <text id="t-2-0" x="0" y="46" style="fill:currentColor">│</text>
  <text id="t-2-1" x="8" y="46" style="fill:currentColor">T</text>
  <text id="t-2-2" x="16" y="46" style="fill:currentColor">h</text>
  <text id="t-2-3" x="24" y="46" style="fill:currentColor">i</text>
  <text id="t-2-4" x="32" y="46" style="fill:currentColor">s</text>
  <text id="t-2-6" x="48" y="46" style="fill:currentColor">i</text>
  <text id="t-2-7" x="56" y="46" style="fill:currentColor">s</text>
  <text id="t-2-9" x="72" y="46" style="fill:currentColor">o</text>
  <text id="t-2-10" x="80" y="46" style="fill:currentColor">p</text>
  <text id="t-2-11" x="88" y="46" style="fill:currentColor">t</text>
  <text id="t-2-12" x="96" y="46" style="fill:currentColor">i</text>
  <text id="t-2-13" x="104" y="46" style="fill:currentColor">o</text>
  <text id="t-2-14" x="112" y="46" style="fill:currentColor">n</text>
  <text id="t-2-16" x="128" y="46" style="fill:currentColor">#</text>
  <text id="t-2-17" x="136" y="46" style="fill:currentColor">1</text>
  <text id="t-2-39" x="312" y="46" style="fill:currentColor">│</text>
  <text id="t-3-0" x="0" y="62" style="fill:currentColor">│</text>
  <text id="t-3-1" x="8" y="62" style="fill:currentColor">T</text>
  <text id="t-3-2" x="16" y="62" style="fill:currentColor">h</text>
  <text id="t-3-3" x="24" y="62" style="fill:currentColor">i</text>
  <text id="t-3-4" x="32" y="62" style="fill:currentColor">s</text>
  <text id="t-3-6" x="48" y="62" style="fill:currentColor">i</text>
  <text id="t-3-7" x="56" y="62" style="fill:currentColor">s</text>
  <text id="t-3-9" x="72" y="62" style="fill:currentColor">o</text>
  <text id="t-3-10" x="80" y="62" style="fill:currentColor">p</text>
  <text id="t-3-11" x="88" y="62" style="fill:currentColor">t</text>
  <text id="t-3-12" x="96" y="62" style="fill:currentColor">i</text>
  <text id="t-3-13" x="104" y="62" style="fill:currentColor">o</text>
  <text id="t-3-14" x="112" y="62" style="fill:currentColor">n</text>
  <text id="t-3-16" x="128" y="62" style="fill:currentColor">#</text>
  <text id="t-3-17" x="136" y="62" style="fill:currentColor">2</text>
  <text id="t-3-39" x="312" y="62" style="fill:currentColor">│</text>
  <text id="t-4-0" x="0" y="78" style="fill:currentColor">│</text>
  <text id="t-4-1" x="8" y="78" style="fill:currentColor">T</text>
  <text id="t-4-2" x="16" y="78" style="fill:currentColor">h</text>
  <text id="t-4-3" x="24" y="78" style="fill:currentColor">i</text>
  <text id="t-4-4" x="32" y="78" style="fill:currentColor">s</text>
  <text id="t-4-6" x="48" y="78" style="fill:currentColor">i</text>
  <text id="t-4-7" x="56" y="78" style="fill:currentColor">s</text>
  <text id="t-4-9" x="72" y="78" style="fill:currentColor">o</text>
  <text id="t-4-10" x="80" y="78" style="fill:currentColor">p</text>
  <text id="t-4-11" x="88" y="78" style="fill:currentColor">t</text>
  <text id="t-4-12" x="96" y="78" style="fill:currentColor">i</text>
  <text id="t-4-13" x="104" y="78" style="fill:currentColor">o</text>
  <text id="t-4-14" x="112" y="78" style="fill:currentColor">n</text>
  <text id="t-4-16" x="128" y="78" style="fill:currentColor">#</text>
  <text id="t-4-17" x="136" y="78" style="fill:currentColor">3</text>
  <text id="t-4-39" x="312" y="78" style="fill:currentColor">│</text>
  <text id="t-5-0" x="0" y="94" style="fill:currentColor">│</text>
  <text id="t-5-1" x="8" y="94" style="fill:currentColor">T</text>
  <text id="t-5-2" x="16" y="94" style="fill:currentColor">h</text>
  <text id="t-5-3" x="24" y="94" style="fill:currentColor">i</text>
  <text id="t-5-4" x="32" y="94" style="fill:currentColor">s</text>
  <text id="t-5-6" x="48" y="94" style="fill:currentColor">i</text>
  <text id="t-5-7" x="56" y="94" style="fill:currentColor">s</text>
  <text id="t-5-9" x="72" y="94" style="fill:currentColor">o</text>
  <text id="t-5-10" x="80" y="94" style="fill:currentColor">p</text>
  <text id="t-5-11" x="88" y="94" style="fill:currentColor">t</text>
  <text id="t-5-12" x="96" y="94" style="fill:currentColor">i</text>
  <text id="t-5-13" x="104" y="94" style="fill:currentColor">o</text>
  <text id="t-5-14" x="112" y="94" style="fill:currentColor">n</text>
  <text id="t-5-16" x="128" y="94" style="fill:currentColor">#</text>
  <text id="t-5-17" x="136" y="94" style="fill:currentColor">4</text>
  <text id="t-5-39" x="312" y="94" style="fill:currentColor">│</text>
  <text id="t-6-0" x="0" y="110" style="fill:currentColor">│</text>
  <text id="t-6-1" x="8" y="110" style="fill:currentColor">T</text>
  <text id="t-6-2" x="16" y="110" style="fill:currentColor">h</text>
  <text id="t-6-3" x="24" y="110" style="fill:currentColor">i</text>
  <text id="t-6-4" x="32" y="110" style="fill:currentColor">s</text>
  <text id="t-6-6" x="48" y="110" style="fill:currentColor">i</text>
  <text id="t-6-7" x="56" y="110" style="fill:currentColor">s</text>
  <text id="t-6-9" x="72" y="110" style="fill:currentColor">o</text>
  <text id="t-6-10" x="80" y="110" style="fill:currentColor">p</text>
  <text id="t-6-11" x="88" y="110" style="fill:currentColor">t</text>
  <text id="t-6-12" x="96" y="110" style="fill:currentColor">i</text>
  <text id="t-6-13" x="104" y="110" style="fill:currentColor">o</text>
  <text id="t-6-14" x="112" y="110" style="fill:currentColor">n</text>
  <text id="t-6-16" x="128" y="110" style="fill:currentColor">#</text>
  <text id="t-6-17" x="136" y="110" style="fill:currentColor">5</text>
  <text id="t-6-39" x="312" y="110" style="fill:currentColor">│</text>
  <text id="t-7-0" x="0" y="126" style="fill:currentColor">│</text>
  <text id="t-7-1" x="8" y="126" style="fill:currentColor">T</text>
  <text id="t-7-2" x="16" y="126" style="fill:currentColor">h</text>
  <text id="t-7-3" x="24" y="126" style="fill:currentColor">i</text>
  <text id="t-7-4" x="32" y="126" style="fill:currentColor">s</text>
  <text id="t-7-6" x="48" y="126" style="fill:currentColor">i</text>
  <text id="t-7-7" x="56" y="126" style="fill:currentColor">s</text>
  <text id="t-7-9" x="72" y="126" style="fill:currentColor">o</text>
  <text id="t-7-10" x="80" y="126" style="fill:currentColor">p</text>
  <text id="t-7-11" x="88" y="126" style="fill:currentColor">t</text>
  <text id="t-7-12" x="96" y="126" style="fill:currentColor">i</text>
  <text id="t-7-13" x="104" y="126" style="fill:currentColor">o</text>
  <text id="t-7-14" x="112" y="126" style="fill:currentColor">n</text>
  <text id="t-7-16" x="128" y="126" style="fill:currentColor">#</text>
  <text id="t-7-17" x="136" y="126" style="fill:currentColor">6</text>
  <text id="t-7-39" x="312" y="126" style="fill:currentColor">│</text>
  <text id="t-8-0" x="0" y="142" style="fill:currentColor">│</text>
  <text id="t-8-1" x="8" y="142" style="fill:currentColor">T</text>
  <text id="t-8-2" x="16" y="142" style="fill:currentColor">h</text>
  <text id="t-8-3" x="24" y="142" style="fill:currentColor">i</text>
  <text id="t-8-4" x="32" y="142" style="fill:currentColor">s</text>
  <text id="t-8-6" x="48" y="142" style="fill:currentColor">i</text>
  <text id="t-8-7" x="56" y="142" style="fill:currentColor">s</text>
  <text id="t-8-9" x="72" y="142" style="fill:currentColor">o</text>
  <text id="t-8-10" x="80" y="142" style="fill:currentColor">p</text>
  <text id="t-8-11" x="88" y="142" style="fill:currentColor">t</text>
  <text id="t-8-12" x="96" y="142" style="fill:currentColor">i</text>
  <text id="t-8-13" x="104" y="142" style="fill:currentColor">o</text>
  <text id="t-8-14" x="112" y="142" style="fill:currentColor">n</text>
  <text id="t-8-16" x="128" y="142" style="fill:currentColor">#</text>
  <text id="t-8-17" x="136" y="142" style="fill:currentColor">7</text>
  <text id="t-8-39" x="312" y="142" style="fill:currentColor">│</text>
  <text id="t-9-0" x="0" y="158" style="fill:currentColor">│</text>
  <text id="t-9-1" x="8" y="158" style="fill:currentColor">T</text>
  <text id="t-9-2" x="16" y="158" style="fill:currentColor">h</text>
  <text id="t-9-3" x="24" y="158" style="fill:currentColor">i</text>
  <text id="t-9-4" x="32" y="158" style="fill:currentColor">s</text>
  <text id="t-9-6" x="48" y="158" style="fill:currentColor">i</text>
  <text id="t-9-7" x="56" y="158" style="fill:currentColor">s</text>
  <text id="t-9-9" x="72" y="158" style="fill:currentColor">o</text>
  <text id="t-9-10" x="80" y="158" style="fill:currentColor">p</text>
  <text id="t-9-11" x="88" y="158" style="fill:currentColor">t</text>
  <text id="t-9-12" x="96" y="158" style="fill:currentColor">i</text>
  <text id="t-9-13" x="104" y="158" style="fill:currentColor">o</text>
  <text id="t-9-14" x="112" y="158" style="fill:currentColor">n</text>
  <text id="t-9-16" x="128" y="158" style="fill:currentColor">#</text>
  <text id="t-9-17" x="136" y="158" style="fill:currentColor">8</text>
  <text id="t-9-39" x="312" y="158" style="fill:currentColor">│</text>
  <text id="t-10-0" x="0" y="174" style="fill:currentColor">│</text>
  <text id="t-10-1" x="8" y="174" style="fill:currentColor">T</text>
  <text id="t-10-2" x="16" y="174" style="fill:currentColor">h</text>
  <text id="t-10-3" x="24" y="174" style="fill:currentColor">i</text>
  <text id="t-10-4" x="32" y="174" style="fill:currentColor">s</text>
  <text id="t-10-6" x="48" y="174" style="fill:currentColor">i</text>
  <text id="t-10-7" x="56" y="174" style="fill:currentColor">s</text>
  <text id="t-10-9" x="72" y="174" style="fill:currentColor">o</text>
  <text id="t-10-10" x="80" y="174" style="fill:currentColor">p</text>
  <text id="t-10-11" x="88" y="174" style="fill:currentColor">t</text>
  <text id="t-10-12" x="96" y="174" style="fill:currentColor">i</text>
  <text id="t-10-13" x="104" y="174" style="fill:currentColor">o</text>
  <text id="t-10-14" x="112" y="174" style="fill:currentColor">n</text>
  <text id="t-10-16" x="128" y="174" style="fill:currentColor">#</text>
  <text id="t-10-17" x="136" y="174" style="fill:currentColor">9</text>
  <text id="t-10-39" x="312" y="174" style="fill:currentColor">│</text>
  <text id="t-11-0" x="0" y="190" style="fill:currentColor">│</text>
  <text id="t-11-1" x="8" y="190" style="fill:currentColor">T</text>
  <text id="t-11-2" x="16" y="190" style="fill:currentColor">h</text>
  <text id="t-11-3" x="24" y="190" style="fill:currentColor">i</text>
  <text id="t-11-4" x="32" y="190" style="fill:currentColor">s</text>
  <text id="t-11-6" x="48" y="190" style="fill:currentColor">i</text>
  <text id="t-11-7" x="56" y="190" style="fill:currentColor">s</text>
  <text id="t-11-9" x="72" y="190" style="fill:currentColor">o</text>
  <text id="t-11-10" x="80" y="190" style="fill:currentColor">p</text>
  <text id="t-11-11" x="88" y="190" style="fill:currentColor">t</text>
  <text id="t-11-12" x="96" y="190" style="fill:currentColor">i</text>
  <text id="t-11-13" x="104" y="190" style="fill:currentColor">o</text>
  <text id="t-11-14" x="112" y="190" style="fill:currentColor">n</text>
  <text id="t-11-16" x="128" y="190" style="fill:currentColor">#</text>
  <text id="t-11-17" x="136" y="190" style="fill:currentColor">1</text>
  <text id="t-11-18" x="144" y="190" style="fill:currentColor">0</text>
  <text id="t-11-39" x="312" y="190" style="fill:currentColor">│</text>
  <text id="t-12-0" x="0" y="206" style="fill:currentColor">│</text>
  <text id="t-12-1" x="8" y="206" style="fill:currentColor">T</text>
  <text id="t-12-2" x="16" y="206" style="fill:currentColor">h</text>
  <text id="t-12-3" x="24" y="206" style="fill:currentColor">i</text>
  <text id="t-12-4" x="32" y="206" style="fill:currentColor">s</text>
  <text id="t-12-6" x="48" y="206" style="fill:currentColor">i</text>
  <text id="t-12-7" x="56" y="206" style="fill:currentColor">s</text>
  <text id="t-12-9" x="72" y="206" style="fill:currentColor">o</text>
  <text id="t-12-10" x="80" y="206" style="fill:currentColor">p</text>
  <text id="t-12-11" x="88" y="206" style="fill:currentColor">t</text>
  <text id="t-12-12" x="96" y="206" style="fill:currentColor">i</text>
  <text id="t-12-13" x="104" y="206" style="fill:currentColor">o</text>
  <text id="t-12-14" x="112" y="206" style="fill:currentColor">n</text>
  <text id="t-12-16" x="128" y="206" style="fill:currentColor">#</text>
  <text id="t-12-17" x="136" y="206" style="fill:currentColor">1</text>
  <text id="t-12-18" x="144" y="206" style="fill:currentColor">1</text>
  <text id="t-12-39" x="312" y="206" style="fill:currentColor">│</text>
  <text id="t-13-0" x="0" y="222" style="fill:currentColor">│</text>
  <text id="t-13-1" x="8" y="222" style="fill:currentColor">T</text>
  <text id="t-13-2" x="16" y="222" style="fill:currentColor">h</text>
  <text id="t-13-3" x="24" y="222" style="fill:currentColor">i</text>
  <text id="t-13-4" x="32" y="222" style="fill:currentColor">s</text>
  <text id="t-13-6" x="48" y="222" style="fill:currentColor">i</text>
  <text id="t-13-7" x="56" y="222" style="fill:currentColor">s</text>
  <text id="t-13-9" x="72" y="222" style="fill:currentColor">o</text>
  <text id="t-13-10" x="80" y="222" style="fill:currentColor">p</text>
  <text id="t-13-11" x="88" y="222" style="fill:currentColor">t</text>
  <text id="t-13-12" x="96" y="222" style="fill:currentColor">i</text>
  <text id="t-13-13" x="104" y="222" style="fill:currentColor">o</text>
  <text id="t-13-14" x="112" y="222" style="fill:currentColor">n</text>
  <text id="t-13-16" x="128" y="222" style="fill:currentColor">#</text>
  <text id="t-13-17" x="136" y="222" style="fill:currentColor">1</text>
  <text id="t-13-18" x="144" y="222" style="fill:currentColor">2</text>
  <text id="t-13-39" x="312" y="222" style="fill:currentColor">│</text>
  <text id="t-14-0" x="0" y="238" style="fill:currentColor">│</text>
  <text id="t-14-1" x="8" y="238" style="fill:currentColor">T</text>
  <text id="t-14-2" x="16" y="238" style="fill:currentColor">h</text>
  <text id="t-14-3" x="24" y="238" style="fill:currentColor">i</text>
  <text id="t-14-4" x="32" y="238" style="fill:currentColor">s</text>
  <text id="t-14-6" x="48" y="238" style="fill:currentColor">i</text>
  <text id="t-14-7" x="56" y="238" style="fill:currentColor">s</text>
  <text id="t-14-9" x="72" y="238" style="fill:currentColor">o</text>
  <text id="t-14-10" x="80" y="238" style="fill:currentColor">p</text>
  <text id="t-14-11" x="88" y="238" style="fill:currentColor">t</text>
  <text id="t-14-12" x="96" y="238" style="fill:currentColor">i</text>
  <text id="t-14-13" x="104" y="238" style="fill:currentColor">o</text>
  <text id="t-14-14" x="112" y="238" style="fill:currentColor">n</text>
  <text id="t-14-16" x="128" y="238" style="fill:currentColor">#</text>
  <text id="t-14-17" x="136" y="238" style="fill:currentColor">1</text>
  <text id="t-14-18" x="144" y="238" style="fill:currentColor">3</text>
  <text id="t-14-39" x="312" y="238" style="fill:currentColor">│</text>
  <text id="t-15-0" x="0" y="254" style="fill:currentColor">└</text>
  <text id="t-15-1" x="8" y="254" style="fill:currentColor">─</text>
  <text id="t-15-2" x="16" y="254" style="fill:currentColor">─</text>
  <text id="t-15-3" x="24" y="254" style="fill:currentColor">─</text>
  <text id="t-15-4" x="32" y="254" style="fill:currentColor">─</text>
  <text id="t-15-5" x="40" y="254" style="fill:currentColor">─</text>
  <text id="t-15-6" x="48" y="254" style="fill:currentColor">─</text>
  <text id="t-15-7" x="56" y="254" style="fill:currentColor">─</text>
  <text id="t-15-8" x="64" y="254" style="fill:currentColor">─</text>
  <text id="t-15-9" x="72" y="254" style="fill:currentColor">─</text>
  <text id="t-15-10" x="80" y="254" style="fill:currentColor">─</text>
  <text id="t-15-11" x="88" y="254" style="fill:currentColor">─</text>
  <text id="t-15-12" x="96" y="254" style="fill:currentColor">─</text>
  <text id="t-15-13" x="104" y="254" style="fill:currentColor">─</text>
  <text id="t-15-14" x="112" y="254" style="fill:currentColor">─</text>
  <text id="t-15-15" x="120" y="254" style="fill:currentColor">─</text>
  <text id="t-15-16" x="128" y="254" style="fill:currentColor">─</text>
  <text id="t-15-17" x="136" y="254" style="fill:currentColor">─</text>
  <text id="t-15-18" x="144" y="254" style="fill:currentColor">─</text>
  <text id="t-15-19" x="152" y="254" style="fill:currentColor">─</text>
  <text id="t-15-20" x="160" y="254" style="fill:currentColor">─</text>
  <text id="t-15-21" x="168" y="254" style="fill:currentColor">─</text>
  <text id="t-15-22" x="176" y="254" style="fill:currentColor">─</text>
  <text id="t-15-23" x="184" y="254" style="fill:currentColor">─</text>
  <text id="t-15-24" x="192" y="254" style="fill:currentColor">─</text>
  <text id="t-15-25" x="200" y="254" style="fill:currentColor">─</text>
  <text id="t-15-26" x="208" y="254" style="fill:currentColor">─</text>
  <text id="t-15-27" x="216" y="254" style="fill:currentColor">─</text>
  <text id="t-15-28" x="224" y="254" style="fill:currentColor">─</text>
  <text id="t-15-29" x="232" y="254" style="fill:currentColor">─</text>
  <text id="t-15-30" x="240" y="254" style="fill:currentColor">─</text>
  <text id="t-15-31" x="248" y="254" style="fill:currentColor">─</text>
  <text id="t-15-32" x="256" y="254" style="fill:currentColor">─</text>
  <text id="t-15-33" x="264" y="254" style="fill:currentColor">─</text>
  <text id="t-15-34" x="272" y="254" style="fill:currentColor">─</text>
  <text id="t-15-35" x="280" y="254" style="fill:currentColor">─</text>
  <text id="t-15-36" x="288" y="254" style="fill:currentColor">─</text>
  <text id="t-15-37" x="296" y="254" style="fill:currentColor">─</text>
  <text id="t-15-38" x="304" y="254" style="fill:currentColor">─</text>
  <text id="t-15-39" x="312" y="254" style="fill:currentColor">┘</text>

  <rect id="box-3" x="0" y="0" width="320" height="16" fill="none" stroke="#3399ff" stroke-width="1"/>
  <rect id="box-5" x="0" y="16" width="320" height="16" fill="none" stroke="#3399ff" stroke-width="1"/>
  <rect id="box-7" x="0" y="32" width="320" height="16" fill="none" stroke="#3399ff" stroke-width="1"/>
  <rect id="box-9" x="0" y="48" width="320" height="16" fill="none" stroke="#3399ff" stroke-width="1"/>
  <rect id="box-11" x="0" y="64" width="320" height="16" fill="none" stroke="#3399ff" stroke-width="1"/>
  <rect id="box-13" x="0" y="80" width="320" height="16" fill="none" stroke="#3399ff" stroke-width="1"/>
  <rect id="box-15" x="0" y="96" width="320" height="16" fill="none" stroke="#3399ff" stroke-width="1"/>
  <rect id="box-17" x="0" y="112" width="320" height="16" fill="none" stroke="#3399ff" stroke-width="1"/>
  <rect id="box-19" x="0" y="128" width="320" height="16" fill="none" stroke="#3399ff" stroke-width="1"/>
  <rect id="box-21" x="0" y="144" width="320" height="16" fill="none" stroke="#3399ff" stroke-width="1"/>
  <rect id="box-23" x="0" y="160" width="320" height="16" fill="none" stroke="#3399ff" stroke-width="1"/>
  <rect id="box-25" x="0" y="176" width="320" height="16" fill="none" stroke="#3399ff" stroke-width="1"/>
  <rect id="box-27" x="0" y="192" width="320" height="16" fill="none" stroke="#3399ff" stroke-width="1"/>
  <rect id="box-29" x="0" y="208" width="320" height="16" fill="none" stroke="#3399ff" stroke-width="1"/>
  <rect id="box-31" x="0" y="224" width="320" height="16" fill="none" stroke="#3399ff" stroke-width="1"/>
  <rect id="box-33" x="0" y="240" width="320" height="16" fill="none" stroke="#3399ff" stroke-width="1"/>
  <rect id="focus" x="0" y="0" width="320" height="256" fill="none" stroke="#ff9900" stroke-width="1"/>
  <rect id="dirty-0-0" x="0" y="0" width="320" height="16" fill="#ff0000" fill-opacity="0.2"/>
  <rect id="dirty-1-0" x="0" y="16" width="320" height="16" fill="#ff0000" fill-opacity="0.2"/>
  <rect id="dirty-2-0" x="0" y="32" width="40" height="16" fill="#ff0000" fill-opacity="0.2"/>
  <rect id="dirty-2-6" x="48" y="32" width="16" height="16" fill="#ff0000" fill-opacity="0.2"/>
  <rect id="dirty-2-9" x="72" y="32" width="48" height="16" fill="#ff0000" fill-opacity="0.2"/>
  <rect id="dirty-2-16" x="128" y="32" width="16" height="16" fill="#ff0000" fill-opacity="0.2"/>
  <rect id="dirty-2-39" x="312" y="32" width="8" height="16" fill="#ff0000" fill-opacity="0.2"/>
  <rect id="dirty-3-0" x="0" y="48" width="40" height="16" fill="#ff0000" fill-opacity="0.2"/>
  <rect id="dirty-3-6" x="48" y="48" width="16" height="16" fill="#ff0000" fill-opacity="0.2"/>
  <rect id="dirty-3-9" x="72" y="48" width="48" height="16" fill="#ff0000" fill-opacity="0.2"/>
  <rect id="dirty-3-16" x="128" y="48" width="16" height="16" fill="#ff0000" fill-opacity="0.2"/>
  <rect id="dirty-3-39" x="312" y="48" width="8" height="16" fill="#ff0000" fill-opacity="0.2"/>
  <rect id="dirty-4-0" x="0" y="64" width="40" height="16" fill="#ff0000" fill-opacity="0.2"/>
  <rect id="dirty-4-6" x="48" y="64" width="16" height="16" fill="#ff0000" fill-opacity="0.2"/>
  <rect id="dirty-4-9" x="72" y="64" width="48" height="16" fill="#ff0000" fill-opacity="0.2"/>
  <rect id="dirty-4-16" x="128" y="64" width="16" height="16" fill="#ff0000" fill-opacity="0.2"/>
  <rect id="dirty-4-39" x="312" y="64" width="8" height="16" fill="#ff0000" fill-opacity="0.2"/>
  <rect id="dirty-5-0" x="0" y="80" width="40" height="16" fill="#ff0000" fill-opacity="0.2"/>
  <rect id="dirty-5-6" x="48" y="80" width="16" height="16" fill="#ff0000" fill-opacity="0.2"/>
  <rect id="dirty-5-9" x="72" y="80" width="48" height="16" fill="#ff0000" fill-opacity="0.2"/>
  <rect id="dirty-5-16" x="128" y="80" width="16" height="16" fill="#ff0000" fill-opacity="0.2"/>
  <rect id="dirty-5-39" x="312" y="80" width="8" height="16" fill="#ff0000" fill-opacity="0.2"/>
  <rect id="dirty-6-0" x="0" y="96" width="40" height="16" fill="#ff0000" fill-opacity="0.2"/>
  <rect id="dirty-6-6" x="48" y="96" width="16" height="16" fill="#ff0000" fill-opacity="0.2"/>
  <rect id="dirty-6-9" x="72" y="96" width="48" height="16" fill="#ff0000" fill-opacity="0.2"/>
  <rect id="dirty-6-16" x="128" y="96" width="16" height="16" fill="#ff0000" fill-opacity="0.2"/>
  <rect id="dirty-6-39" x="312" y="96" width="8" height="16" fill="#ff0000" fill-opacity="0.2"/>
  <rect id="dirty-7-0" x="0" y="112" width="40" height="16" fill="#ff0000" fill-opacity="0.2"/>
  <rect id="dirty-7-6" x="48" y="112" width="16" height="16" fill="#ff0000" fill-opacity="0.2"/>
  <rect id="dirty-7-9" x="72" y="112" width="48" height="16" fill="#ff0000" fill-opacity="0.2"/>
  <rect id="dirty-7-16" x="128" y="112" width="16" height="16" fill="#ff0000" fill-opacity="0.2"/>
  <rect id="dirty-7-39" x="312" y="112" width="8" height="16" fill="#ff0000" fill-opacity="0.2"/>
  <rect id="dirty-8-0" x="0" y="128" width="40" height="16" fill="#ff0000" fill-opacity="0.2"/>
  <rect id="dirty-8-6" x="48" y="128" width="16" height="16" fill="#ff0000" fill-opacity="0.2"/>
  <rect id="dirty-8-9" x="72" y="128" width="48" height="16" fill="#ff0000" fill-opacity="0.2"/>
  <rect id="dirty-8-16" x="128" y="128" width="16" height="16" fill="#ff0000" fill-opacity="0.2"/>
  <rect id="dirty-8-39" x="312" y="128" width="8" height="16" fill="#ff0000" fill-opacity="0.2"/>
  <rect id="dirty-9-0" x="0" y="144" width="40" height="16" fill="#ff0000" fill-opacity="0.2"/>
  <rect id="dirty-9-6" x="48" y="144" width="16" height="16" fill="#ff0000" fill-opacity="0.2"/>
  <rect id="dirty-9-9" x="72" y="144" width="48" height="16" fill="#ff0000" fill-opacity="0.2"/>
  <rect id="dirty-9-16" x="128" y="144" width="16" height="16" fill="#ff0000" fill-opacity="0.2"/>
  <rect id="dirty-9-39" x="312" y="144" width="8" height="16" fill="#ff0000" fill-opacity="0.2"/>
  <rect id="dirty-10-0" x="0" y="160" width="40" height="16" fill="#ff0000" fill-opacity="0.2"/>
  <rect id="dirty-10-6" x="48" y="160" width="16" height="16" fill="#ff0000" fill-opacity="0.2"/>
  <rect id="dirty-10-9" x="72" y="160" width="48" height="16" fill="#ff0000" fill-opacity="0.2"/>
  <rect id="dirty-10-16" x="128" y="160" width="16" height="16" fill="#ff0000" fill-opacity="0.2"/>
  <rect id="dirty-10-39" x="312" y="160" width="8" height="16" fill="#ff0000" fill-opacity="0.2"/>
  <rect id="dirty-11-0" x="0" y="176" width="40" height="16" fill="#ff0000" fill-opacity="0.2"/>
  <rect id="dirty-11-6" x="48" y="176" width="16" height="16" fill="#ff0000" fill-opacity="0.2"/>
  <rect id="dirty-11-9" x="72" y="176" width="48" height="16" fill="#ff0000" fill-opacity="0.2"/>
  <rect id="dirty-11-16" x="128" y="176" width="24" height="16" fill="#ff0000" fill-opacity="0.2"/>
  <rect id="dirty-11-39" x="312" y="176" width="8" height="16" fill="#ff0000" fill-opacity="0.2"/>
  <rect id="dirty-12-0" x="0" y="192" width="40" height="16" fill="#ff0000" fill-opacity="0.2"/>
  <rect id="dirty-12-6" x="48" y="192" width="16" height="16" fill="#ff0000" fill-opacity="0.2"/>
  <rect id="dirty-12-9" x="72" y="192" width="48" height="16" fill="#ff0000" fill-opacity="0.2"/>
  <rect id="dirty-12-16" x="128" y="192" width="24" height="16" fill="#ff0000" fill-opacity="0.2"/>
  <rect id="dirty-12-39" x="312" y="192" width="8" height="16" fill="#ff0000" fill-opacity="0.2"/>
  <rect id="dirty-13-0" x="0" y="208" width="40" height="16" fill="#ff0000" fill-opacity="0.2"/>
  <rect id="dirty-13-6" x="48" y="208" width="16" height="16" fill="#ff0000" fill-opacity="0.2"/>
  <rect id="dirty-13-9" x="72" y="208" width="48" height="16" fill="#ff0000" fill-opacity="0.2"/>
  <rect id="dirty-13-16" x="128" y="208" width="24" height="16" fill="#ff0000" fill-opacity="0.2"/>
  <rect id="dirty-13-39" x="312" y="208" width="8" height="16" fill="#ff0000" fill-opacity="0.2"/>
  <rect id="dirty-14-0" x="0" y="224" width="40" height="16" fill="#ff0000" fill-opacity="0.2"/>
  <rect id="dirty-14-6" x="48" y="224" width="16" height="16" fill="#ff0000" fill-opacity="0.2"/>
  <rect id="dirty-14-9" x="72" y="224" width="48" height="16" fill="#ff0000" fill-opacity="0.2"/>
  <rect id="dirty-14-16" x="128" y="224" width="24" height="16" fill="#ff0000" fill-opacity="0.2"/>
  <rect id="dirty-14-39" x="312" y="224" width="8" height="16" fill="#ff0000" fill-opacity="0.2"/>
  <rect id="dirty-15-0" x="0" y="240" width="320" height="16" fill="#ff0000" fill-opacity="0.2"/>
</svg>
