<?xml version="1.0" encoding="UTF-8"?>
<svg xmlns="http://www.w3.org/2000/svg" width="320" height="192" viewBox="0 0 320 192" font-family="monospace" font-size="16">
  <text id="t-0-0" x="0" y="14" style="fill:#0000aa">┌</text>
  <text id="t-0-1" x="8" y="14" style="fill:#0000aa">─</text>
  <text id="t-0-2" x="16" y="14" style="fill:#0000aa">─</text>
  <text id="t-0-3" x="24" y="14" style="fill:#0000aa">─</text>
  <text id="t-0-4" x="32" y="14" style="fill:#0000aa">─</text>
  <text id="t-0-5" x="40" y="14" style="fill:#0000aa">─</text>
  <text id="t-0-6" x="48" y="14" style="fill:#0000aa">─</text>
  <text id="t-0-7" x="56" y="14" style="fill:#0000aa">─</text>
  <text id="t-0-8" x="64" y="14" style="fill:#0000aa">─</text>
  <text id="t-0-9" x="72" y="14" style="fill:#0000aa">─</text>
  <text id="t-0-10" x="80" y="14" style="fill:#0000aa">─</text>
  <text id="t-0-11" x="88" y="14" style="fill:#0000aa">─</text>
  <text id="t-0-12" x="96" y="14" style="fill:#0000aa">─</text>
  <text id="t-0-13" x="104" y="14" style="fill:#0000aa">─</text>
  <text id="t-0-14" x="112" y="14" style="fill:#0000aa">─</text>
  <text id="t-0-15" x="120" y="14" style="fill:#0000aa">─</text>
  <text id="t-0-16" x="128" y="14" style="fill:#0000aa">─</text>
  <text id="t-0-17" x="136" y="14" style="fill:#0000aa">─</text>
  <text id="t-0-18" x="144" y="14" style="fill:#0000aa">─</text>
  <text id="t-0-19" x="152" y="14" style="fill:#0000aa">─</text>
  <text id="t-0-20" x="160" y="14" style="fill:#0000aa">─</text>
  <text id="t-0-21" x="168" y="14" style="fill:#0000aa">─</text>
  <text id="t-0-22" x="176" y="14" style="fill:#0000aa">─</text>
  <text id="t-0-23" x="184" y="14" style="fill:#0000aa">─</text>
  <text id="t-0-24" x="192" y="14" style="fill:#0000aa">─</text>
  <text id="t-0-25" x="200" y="14" style="fill:#0000aa">─</text>
  <text id="t-0-26" x="208" y="14" style="fill:#0000aa">─</text>
  <text id="t-0-27" x="216" y="14" style="fill:#0000aa">─</text>
  <text id="t-0-28" x="224" y="14" style="fill:#0000aa">─</text>
  <text id="t-0-29" x="232" y="14" style="fill:#0000aa">─</text>
  <text id="t-0-30" x="240" y="14" style="fill:#0000aa">─</text>
  <text id="t-0-31" x="248" y="14" style="fill:#0000aa">─</text>
  <text id="t-0-32" x="256" y="14" style="fill:#0000aa">─</text>
  <text id="t-0-33" x="264" y="14" style="fill:#0000aa">─</text>
  <text id="t-0-34" x="272" y="14" style="fill:#0000aa">─</text>
  <text id="t-0-35" x="280" y="14" style="fill:#0000aa">─</text>
  <text id="t-0-36" x="288" y="14" style="fill:#0000aa">─</text>
  <text id="t-0-37" x="296" y="14" style="fill:#0000aa">─</text>
  <text id="t-0-38" x="304" y="14" style="fill:#0000aa">─</text>
  <text id="t-0-39" x="312" y="14" style="fill:#0000aa">─</text>
  <text id="t-1-0" x="0" y="30" style="fill:#0000aa">│</text>
  <text id="t-2-0" x="0" y="46" style="fill:#0000aa">│</text>
  <text id="t-3-0" x="0" y="62" style="fill:#0000aa">│</text>
  <text id="t-4-0" x="0" y="78" style="fill:#0000aa">│</text>
  <text id="t-4-15" x="120" y="78" style="fill:#0000aa">P</text>
  <text id="t-4-16" x="128" y="78" style="fill:#0000aa">l</text>
  <text id="t-4-17" x="136" y="78" style="fill:#0000aa">a</text>
  <text id="t-4-18" x="144" y="78" style="fill:#0000aa">c</text>
  <text id="t-4-19" x="152" y="78" style="fill:#0000aa">e</text>
  <text id="t-4-20" x="160" y="78" style="fill:#0000aa">h</text>
  <text id="t-4-21" x="168" y="78" style="fill:#0000aa">o</text>
  <text id="t-4-22" x="176" y="78" style="fill:#0000aa">l</text>
  <text id="t-4-23" x="184" y="78" style="fill:#0000aa">d</text>
  <text id="t-4-24" x="192" y="78" style="fill:#0000aa">e</text>
  <text id="t-4-25" x="200" y="78" style="fill:#0000aa">r</text>
  <text id="t-5-0" x="0" y="94" style="fill:#0000aa">│</text>
  <text id="t-6-0" x="0" y="110" style="fill:#0000aa">│</text>
  <text id="t-7-0" x="0" y="126" style="fill:#0000aa">└</text>
  <text id="t-7-1" x="8" y="126" style="fill:#0000aa">─</text>
  <text id="t-7-2" x="16" y="126" style="fill:#0000aa">─</text>
  <text id="t-7-3" x="24" y="126" style="fill:#0000aa">─</text>
  <text id="t-7-4" x="32" y="126" style="fill:#0000aa">─</text>
  <text id="t-7-5" x="40" y="126" style="fill:#0000aa">─</text>
  <text id="t-7-6" x="48" y="126" style="fill:#0000aa">─</text>
  <text id="t-7-7" x="56" y="126" style="fill:#0000aa">─</text>
  <text id="t-7-8" x="64" y="126" style="fill:#0000aa">─</text>
  <text id="t-7-9" x="72" y="126" style="fill:#0000aa">─</text>
  <text id="t-7-10" x="80" y="126" style="fill:#0000aa">─</text>
  <text id="t-7-11" x="88" y="126" style="fill:#0000aa">─</text>
  <text id="t-7-12" x="96" y="126" style="fill:#0000aa">─</text>
  <text id="t-7-13" x="104" y="126" style="fill:#0000aa">─</text>
  <text id="t-7-14" x="112" y="126" style="fill:#0000aa">─</text>
  <text id="t-7-15" x="120" y="126" style="fill:#0000aa">─</text>
  <text id="t-7-16" x="128" y="126" style="fill:#0000aa">─</text>
  <text id="t-7-17" x="136" y="126" style="fill:#0000aa">─</text>
  <text id="t-7-18" x="144" y="126" style="fill:#0000aa">─</text>
  <text id="t-7-19" x="152" y="126" style="fill:#0000aa">─</text>
  <text id="t-7-20" x="160" y="126" style="fill:#0000aa">─</text>
  <text id="t-7-21" x="168" y="126" style="fill:#0000aa">─</text>
  <text id="t-7-22" x="176" y="126" style="fill:#0000aa">─</text>
  <text id="t-7-23" x="184" y="126" style="fill:#0000aa">─</text>
  <text id="t-7-24" x="192" y="126" style="fill:#0000aa">─</text>
  <text id="t-7-25" x="200" y="126" style="fill:#0000aa">─</text>
  <text id="t-7-26" x="208" y="126" style="fill:#0000aa">─</text>
  <text id="t-7-27" x="216" y="126" style="fill:#0000aa">─</text>
  <text id="t-7-28" x="224" y="126" style="fill:#0000aa">─</text>
  <text id="t-7-29" x="232" y="126" style="fill:#0000aa">─</text>
  <text id="t-7-30" x="240" y="126" style="fill:#0000aa">─</text>
  <text id="t-7-31" x="248" y="126" style="fill:#0000aa">─</text>
  <text id="t-7-32" x="256" y="126" style="fill:#0000aa">─</text>
  <text id="t-7-33" x="264" y="126" style="fill:#0000aa">─</text>
  <text id="t-7-34" x="272" y="126" style="fill:#0000aa">─</text>
  <text id="t-7-35" x="280" y="126" style="fill:#0000aa">─</text>
  <text id="t-7-36" x="288" y="126" style="fill:#0000aa">─</text>
  <text id="t-7-37" x="296" y="126" style="fill:#0000aa">─</text>
  <text id="t-7-38" x="304" y="126" style="fill:#0000aa">─</text>
  <text id="t-7-39" x="312" y="126" style="fill:#0000aa">─</text>
  <text id="t-8-0" x="0" y="142" style="fill:#0000aa">┌</text>
  <text id="t-8-1" x="8" y="142" style="fill:#0000aa">─</text>
  <text id="t-8-2" x="16" y="142" style="fill:#0000aa">─</text>
  <text id="t-8-3" x="24" y="142" style="fill:#0000aa">─</text>
  <text id="t-8-4" x="32" y="142" style="fill:#0000aa">─</text>
  <text id="t-8-5" x="40" y="142" style="fill:#0000aa">─</text>
  <text id="t-8-6" x="48" y="142" style="fill:#0000aa">─</text>
  <text id="t-8-7" x="56" y="142" style="fill:#0000aa">─</text>
  <text id="t-8-8" x="64" y="142" style="fill:#0000aa">─</text>
  <text id="t-8-9" x="72" y="142" style="fill:#0000aa">─</text>
  <text id="t-8-10" x="80" y="142" style="fill:#0000aa">─</text>
  <text id="t-8-11" x="88" y="142" style="fill:#0000aa">─</text>
  <text id="t-8-12" x="96" y="142" style="fill:#0000aa">─</text>
  <text id="t-8-13" x="104" y="142" style="fill:#0000aa">─</text>
  <text id="t-8-14" x="112" y="142" style="fill:#0000aa">─</text>
  <text id="t-8-15" x="120" y="142" style="fill:#0000aa">─</text>
  <text id="t-8-16" x="128" y="142" style="fill:#0000aa">─</text>
  <text id="t-8-17" x="136" y="142" style="fill:#0000aa">─</text>
  <text id="t-8-18" x="144" y="142" style="fill:#0000aa">─</text>
  <text id="t-8-19" x="152" y="142" style="fill:#0000aa">─</text>
  <text id="t-8-20" x="160" y="142" style="fill:#0000aa">─</text>
  <text id="t-8-21" x="168" y="142" style="fill:#0000aa">─</text>
  <text id="t-8-22" x="176" y="142" style="fill:#0000aa">─</text>
  <text id="t-8-23" x="184" y="142" style="fill:#0000aa">─</text>
  <text id="t-8-24" x="192" y="142" style="fill:#0000aa">─</text>
  <text id="t-8-25" x="200" y="142" style="fill:#0000aa">─</text>
  <text id="t-8-26" x="208" y="142" style="fill:#0000aa">─</text>
  <text id="t-8-27" x="216" y="142" style="fill:#0000aa">─</text>
  <text id="t-8-28" x="224" y="142" style="fill:#0000aa">─</text>
  <text id="t-8-29" x="232" y="142" style="fill:#0000aa">─</text>
  <text id="t-8-30" x="240" y="142" style="fill:#0000aa">─</text>
  <text id="t-8-31" x="248" y="142" style="fill:#0000aa">─</text>
  <text id="t-8-32" x="256" y="142" style="fill:#0000aa">─</text>
  <text id="t-8-33" x="264" y="142" style="fill:#0000aa">─</text>
  <text id="t-8-34" x="272" y="142" style="fill:#0000aa">─</text>
  <text id="t-8-35" x="280" y="142" style="fill:#0000aa">─</text>
  <text id="t-8-36" x="288" y="142" style="fill:#0000aa">─</text>
  <text id="t-8-37" x="296" y="142" style="fill:#0000aa">─</text>
  <text id="t-8-38" x="304" y="142" style="fill:#0000aa">─</text>
  <text id="t-8-39" x="312" y="142" style="fill:#0000aa">─</text>
  <text id="t-9-0" x="0" y="158" style="fill:#0000aa">│</text>
  <text id="t-10-0" x="0" y="174" style="fill:#0000aa">│</text>
  <text id="t-11-0" x="0" y="190" style="fill:#0000aa">│</text>

  <rect id="box-3" x="0" y="0" width="320" height="16" fill="none" stroke="#3399ff" stroke-width="1"/>
  <rect id="box-5" x="0" y="16" width="320" height="16" fill="none" stroke="#3399ff" stroke-width="1"/>
  <rect id="box-7" x="0" y="32" width="320" height="16" fill="none" stroke="#3399ff" stroke-width="1"/>
  <rect id="box-9" x="0" y="48" width="320" height="16" fill="none" stroke="#3399ff" stroke-width="1"/>
  <rect id="box-11" x="0" y="64" width="320" height="16" fill="none" stroke="#3399ff" stroke-width="1"/>
  <rect id="box-13" x="0" y="80" width="320" height="16" fill="none" stroke="#3399ff" stroke-width="1"/>
  <rect id="box-15" x="0" y="96" width="320" height="16" fill="none" stroke="#3399ff" stroke-width="1"/>
  <rect id="box-17" x="0" y="112" width="320" height="16" fill="none" stroke="#3399ff" stroke-width="1"/>
  <rect id="box-20" x="0" y="128" width="320" height="16" fill="none" stroke="#3399ff" stroke-width="1"/>
  <rect id="box-22" x="0" y="144" width="320" height="16" fill="none" stroke="#3399ff" stroke-width="1"/>
  <rect id="box-24" x="0" y="160" width="320" height="16" fill="none" stroke="#3399ff" stroke-width="1"/>
  <rect id="box-26" x="0" y="176" width="320" height="16" fill="none" stroke="#3399ff" stroke-width="1"/>
  <rect id="box-28" x="0" y="192" width="320" height="16" fill="none" stroke="#3399ff" stroke-width="1"/>
  <rect id="box-30" x="0" y="208" width="320" height="16" fill="none" stroke="#3399ff" stroke-width="1"/>
  <rect id="box-32" x="0" y="224" width="320" height="16" fill="none" stroke="#3399ff" stroke-width="1"/>
  <rect id="box-34" x="0" y="240" width="320" height="16" fill="none" stroke="#3399ff" stroke-width="1"/>
  <rect id="dirty-0-0" x="0" y="0" width="320" height="16" fill="#ff0000" fill-opacity="0.2"/>
  <rect id="dirty-1-0" x="0" y="16" width="320" height="16" fill="#ff0000" fill-opacity="0.2"/>
  <rect id="dirty-2-0" x="0" y="32" width="320" height="16" fill="#ff0000" fill-opacity="0.2"/>
  <rect id="dirty-3-0" x="0" y="48" width="320" height="16" fill="#ff0000" fill-opacity="0.2"/>
  <rect id="dirty-4-0" x="0" y="64" width="320" height="16" fill="#ff0000" fill-opacity="0.2"/>
  <rect id="dirty-5-0" x="0" y="80" width="320" height="16" fill="#ff0000" fill-opacity="0.2"/>
  <rect id="dirty-6-0" x="0" y="96" width="320" height="16" fill="#ff0000" fill-opacity="0.2"/>
  <rect id="dirty-7-0" x="0" y="112" width="320" height="16" fill="#ff0000" fill-opacity="0.2"/>
  <rect id="dirty-8-0" x="0" y="128" width="320" height="16" fill="#ff0000" fill-opacity="0.2"/>
  <rect id="dirty-9-0" x="0" y="144" width="320" height="16" fill="#ff0000" fill-opacity="0.2"/>
  <rect id="dirty-10-0" x="0" y="160" width="320" height="16" fill="#ff0000" fill-opacity="0.2"/>
  <rect id="dirty-11-0" x="0" y="176" width="320" height="16" fill="#ff0000" fill-opacity="0.2"/>
</svg>
