<?xml version="1.0" encoding="UTF-8"?>
<svg xmlns="http://www.w3.org/2000/svg" width="320" height="288" viewBox="0 0 320 288" font-family="monospace" font-size="16">
  <text id="t-0-0" x="0" y="14" style="fill:currentColor">┌</text>
  <text id="t-0-1" x="8" y="14" style="fill:currentColor">─</text>
  <text id="t-0-2" x="16" y="14" style="fill:currentColor">─</text>
  <text id="t-0-3" x="24" y="14" style="fill:currentColor">─</text>
  <text id="t-0-4" x="32" y="14" style="fill:currentColor">─</text>
  <text id="t-0-5" x="40" y="14" style="fill:currentColor">─</text>
  <text id="t-0-6" x="48" y="14" style="fill:currentColor">─</text>
  <text id="t-0-7" x="56" y="14" style="fill:currentColor">─</text>
  <text id="t-0-8" x="64" y="14" style="fill:currentColor">─</text>
  <text id="t-0-9" x="72" y="14" style="fill:currentColor">─</text>
  <text id="t-0-10" x="80" y="14" style="fill:currentColor">─</text>
  <text id="t-0-11" x="88" y="14" style="fill:currentColor">─</text>
  <text id="t-0-12" x="96" y="14" style="fill:currentColor">─</text>
  <text id="t-0-13" x="104" y="14" style="fill:currentColor">─</text>
  <text id="t-0-14" x="112" y="14" style="fill:currentColor">─</text>
  <text id="t-0-15" x="120" y="14" style="fill:currentColor">─</text>
  <text id="t-0-16" x="128" y="14" style="fill:currentColor">─</text>
  <text id="t-0-17" x="136" y="14" style="fill:currentColor">─</text>
  <text id="t-0-18" x="144" y="14" style="fill:currentColor">─</text>
  <text id="t-0-19" x="152" y="14" style="fill:currentColor">─</text>
  <text id="t-0-20" x="160" y="14" style="fill:currentColor">─</text>
  <text id="t-0-21" x="168" y="14" style="fill:currentColor">─</text>
  <text id="t-0-22" x="176" y="14" style="fill:currentColor">─</text>
  <text id="t-0-23" x="184" y="14" style="fill:currentColor">─</text>
  <text id="t-0-24" x="192" y="14" style="fill:currentColor">─</text>
  <text id="t-0-25" x="200" y="14" style="fill:currentColor">─</text>
  <text id="t-0-26" x="208" y="14" style="fill:currentColor">─</text>
  <text id="t-0-27" x="216" y="14" style="fill:currentColor">─</text>
  <text id="t-0-28" x="224" y="14" style="fill:currentColor">─</text>
  <text id="t-0-29" x="232" y="14" style="fill:currentColor">─</text>
  <text id="t-0-30" x="240" y="14" style="fill:currentColor">─</text>
  <text id="t-0-31" x="248" y="14" style="fill:currentColor">─</text>
  <text id="t-0-32" x="256" y="14" style="fill:currentColor">─</text>
  <text id="t-0-33" x="264" y="14" style="fill:currentColor">─</text>
  <text id="t-0-34" x="272" y="14" style="fill:currentColor">─</text>
  <text id="t-0-35" x="280" y="14" style="fill:currentColor">─</text>
  <text id="t-0-36" x="288" y="14" style="fill:currentColor">─</text>
  <text id="t-0-37" x="296" y="14" style="fill:currentColor">┐</text>
  <text id="t-1-0" x="0" y="30" style="fill:currentColor">│</text>
  <text id="t-1-1" x="8" y="30" style="fill:currentColor">b</text>
  <text id="t-1-2" x="16" y="30" style="fill:currentColor">s</text>
  <text id="t-1-3" x="24" y="30" style="fill:currentColor">S</text>
  <text id="t-1-4" x="32" y="30" style="fill:currentColor">o</text>
  <text id="t-1-5" x="40" y="30" style="fill:currentColor">l</text>
  <text id="t-1-6" x="48" y="30" style="fill:currentColor">i</text>
  <text id="t-1-7" x="56" y="30" style="fill:currentColor">d</text>
  <text id="t-1-37" x="296" y="30" style="fill:currentColor">│</text>
  <text id="t-2-0" x="0" y="46" style="fill:currentColor">└</text>
  <text id="t-2-1" x="8" y="46" style="fill:currentColor">─</text>
  <text id="t-2-2" x="16" y="46" style="fill:currentColor">─</text>
  <text id="t-2-3" x="24" y="46" style="fill:currentColor">─</text>
  <text id="t-2-4" x="32" y="46" style="fill:currentColor">─</text>
  <text id="t-2-5" x="40" y="46" style="fill:currentColor">─</text>
  <text id="t-2-6" x="48" y="46" style="fill:currentColor">─</text>
  <text id="t-2-7" x="56" y="46" style="fill:currentColor">─</text>
  <text id="t-2-8" x="64" y="46" style="fill:currentColor">─</text>
  <text id="t-2-9" x="72" y="46" style="fill:currentColor">─</text>
  <text id="t-2-10" x="80" y="46" style="fill:currentColor">─</text>
  <text id="t-2-11" x="88" y="46" style="fill:currentColor">─</text>
  <text id="t-2-12" x="96" y="46" style="fill:currentColor">─</text>
  <text id="t-2-13" x="104" y="46" style="fill:currentColor">─</text>
  <text id="t-2-14" x="112" y="46" style="fill:currentColor">─</text>
  <text id="t-2-15" x="120" y="46" style="fill:currentColor">─</text>
  <text id="t-2-16" x="128" y="46" style="fill:currentColor">─</text>
  <text id="t-2-17" x="136" y="46" style="fill:currentColor">─</text>
  <text id="t-2-18" x="144" y="46" style="fill:currentColor">─</text>
  <text id="t-2-19" x="152" y="46" style="fill:currentColor">─</text>
  <text id="t-2-20" x="160" y="46" style="fill:currentColor">─</text>
  <text id="t-2-21" x="168" y="46" style="fill:currentColor">─</text>
  <text id="t-2-22" x="176" y="46" style="fill:currentColor">─</text>
  <text id="t-2-23" x="184" y="46" style="fill:currentColor">─</text>
  <text id="t-2-24" x="192" y="46" style="fill:currentColor">─</text>
  <text id="t-2-25" x="200" y="46" style="fill:currentColor">─</text>
  <text id="t-2-26" x="208" y="46" style="fill:currentColor">─</text>
  <text id="t-2-27" x="216" y="46" style="fill:currentColor">─</text>
  <text id="t-2-28" x="224" y="46" style="fill:currentColor">─</text>
  <text id="t-2-29" x="232" y="46" style="fill:currentColor">─</text>
  <text id="t-2-30" x="240" y="46" style="fill:currentColor">─</text>
  <text id="t-2-31" x="248" y="46" style="fill:currentColor">─</text>
  <text id="t-2-32" x="256" y="46" style="fill:currentColor">─</text>
  <text id="t-2-33" x="264" y="46" style="fill:currentColor">─</text>
  <text id="t-2-34" x="272" y="46" style="fill:currentColor">─</text>
  <text id="t-2-35" x="280" y="46" style="fill:currentColor">─</text>
  <text id="t-2-36" x="288" y="46" style="fill:currentColor">─</text>
  <text id="t-2-37" x="296" y="46" style="fill:currentColor">┘</text>
  <text id="t-3-0" x="0" y="62" style="fill:currentColor">┌</text>
  <text id="t-3-1" x="8" y="62" style="fill:currentColor">┄</text>
  <text id="t-3-2" x="16" y="62" style="fill:currentColor">┄</text>
  <text id="t-3-3" x="24" y="62" style="fill:currentColor">┄</text>
  <text id="t-3-4" x="32" y="62" style="fill:currentColor">┄</text>
  <text id="t-3-5" x="40" y="62" style="fill:currentColor">┄</text>
  <text id="t-3-6" x="48" y="62" style="fill:currentColor">┄</text>
  <text id="t-3-7" x="56" y="62" style="fill:currentColor">┄</text>
  <text id="t-3-8" x="64" y="62" style="fill:currentColor">┄</text>
  <text id="t-3-9" x="72" y="62" style="fill:currentColor">┄</text>
  <text id="t-3-10" x="80" y="62" style="fill:currentColor">┄</text>
  <text id="t-3-11" x="88" y="62" style="fill:currentColor">┄</text>
  <text id="t-3-12" x="96" y="62" style="fill:currentColor">┄</text>
  <text id="t-3-13" x="104" y="62" style="fill:currentColor">┄</text>
  <text id="t-3-14" x="112" y="62" style="fill:currentColor">┄</text>
  <text id="t-3-15" x="120" y="62" style="fill:currentColor">┄</text>
  <text id="t-3-16" x="128" y="62" style="fill:currentColor">┄</text>
  <text id="t-3-17" x="136" y="62" style="fill:currentColor">┄</text>
  <text id="t-3-18" x="144" y="62" style="fill:currentColor">┄</text>
  <text id="t-3-19" x="152" y="62" style="fill:currentColor">┄</text>
  <text id="t-3-20" x="160" y="62" style="fill:currentColor">┄</text>
  <text id="t-3-21" x="168" y="62" style="fill:currentColor">┄</text>
  <text id="t-3-22" x="176" y="62" style="fill:currentColor">┄</text>
  <text id="t-3-23" x="184" y="62" style="fill:currentColor">┄</text>
  <text id="t-3-24" x="192" y="62" style="fill:currentColor">┄</text>
  <text id="t-3-25" x="200" y="62" style="fill:currentColor">┄</text>
  <text id="t-3-26" x="208" y="62" style="fill:currentColor">┄</text>
  <text id="t-3-27" x="216" y="62" style="fill:currentColor">┄</text>
  <text id="t-3-28" x="224" y="62" style="fill:currentColor">┄</text>
  <text id="t-3-29" x="232" y="62" style="fill:currentColor">┄</text>
  <text id="t-3-30" x="240" y="62" style="fill:currentColor">┄</text>
  <text id="t-3-31" x="248" y="62" style="fill:currentColor">┄</text>
  <text id="t-3-32" x="256" y="62" style="fill:currentColor">┄</text>
  <text id="t-3-33" x="264" y="62" style="fill:currentColor">┄</text>
  <text id="t-3-34" x="272" y="62" style="fill:currentColor">┄</text>
  <text id="t-3-35" x="280" y="62" style="fill:currentColor">┄</text>
  <text id="t-3-36" x="288" y="62" style="fill:currentColor">┄</text>
  <text id="t-3-37" x="296" y="62" style="fill:currentColor">┐</text>
  <text id="t-4-0" x="0" y="78" style="fill:currentColor">┆</text>
  <text id="t-4-1" x="8" y="78" style="fill:currentColor">b</text>
  <text id="t-4-2" x="16" y="78" style="fill:currentColor">s</text>
  <text id="t-4-3" x="24" y="78" style="fill:currentColor">D</text>
  <text id="t-4-4" x="32" y="78" style="fill:currentColor">a</text>
  <text id="t-4-5" x="40" y="78" style="fill:currentColor">s</text>
  <text id="t-4-6" x="48" y="78" style="fill:currentColor">h</text>
  <text id="t-4-7" x="56" y="78" style="fill:currentColor">e</text>
  <text id="t-4-8" x="64" y="78" style="fill:currentColor">d</text>
  <text id="t-4-37" x="296" y="78" style="fill:currentColor">┆</text>
  <text id="t-5-0" x="0" y="94" style="fill:currentColor">└</text>
  <text id="t-5-1" x="8" y="94" style="fill:currentColor">┄</text>
  <text id="t-5-2" x="16" y="94" style="fill:currentColor">┄</text>
  <text id="t-5-3" x="24" y="94" style="fill:currentColor">┄</text>
  <text id="t-5-4" x="32" y="94" style="fill:currentColor">┄</text>
  <text id="t-5-5" x="40" y="94" style="fill:currentColor">┄</text>
  <text id="t-5-6" x="48" y="94" style="fill:currentColor">┄</text>
  <text id="t-5-7" x="56" y="94" style="fill:currentColor">┄</text>
  <text id="t-5-8" x="64" y="94" style="fill:currentColor">┄</text>
  <text id="t-5-9" x="72" y="94" style="fill:currentColor">┄</text>
  <text id="t-5-10" x="80" y="94" style="fill:currentColor">┄</text>
  <text id="t-5-11" x="88" y="94" style="fill:currentColor">┄</text>
  <text id="t-5-12" x="96" y="94" style="fill:currentColor">┄</text>
  <text id="t-5-13" x="104" y="94" style="fill:currentColor">┄</text>
  <text id="t-5-14" x="112" y="94" style="fill:currentColor">┄</text>
  <text id="t-5-15" x="120" y="94" style="fill:currentColor">┄</text>
  <text id="t-5-16" x="128" y="94" style="fill:currentColor">┄</text>
  <text id="t-5-17" x="136" y="94" style="fill:currentColor">┄</text>
  <text id="t-5-18" x="144" y="94" style="fill:currentColor">┄</text>
  <text id="t-5-19" x="152" y="94" style="fill:currentColor">┄</text>
  <text id="t-5-20" x="160" y="94" style="fill:currentColor">┄</text>
  <text id="t-5-21" x="168" y="94" style="fill:currentColor">┄</text>
  <text id="t-5-22" x="176" y="94" style="fill:currentColor">┄</text>
  <text id="t-5-23" x="184" y="94" style="fill:currentColor">┄</text>
  <text id="t-5-24" x="192" y="94" style="fill:currentColor">┄</text>
  <text id="t-5-25" x="200" y="94" style="fill:currentColor">┄</text>
  <text id="t-5-26" x="208" y="94" style="fill:currentColor">┄</text>
  <text id="t-5-27" x="216" y="94" style="fill:currentColor">┄</text>
  <text id="t-5-28" x="224" y="94" style="fill:currentColor">┄</text>
  <text id="t-5-29" x="232" y="94" style="fill:currentColor">┄</text>
  <text id="t-5-30" x="240" y="94" style="fill:currentColor">┄</text>
  <text id="t-5-31" x="248" y="94" style="fill:currentColor">┄</text>
  <text id="t-5-32" x="256" y="94" style="fill:currentColor">┄</text>
  <text id="t-5-33" x="264" y="94" style="fill:currentColor">┄</text>
  <text id="t-5-34" x="272" y="94" style="fill:currentColor">┄</text>
  <text id="t-5-35" x="280" y="94" style="fill:currentColor">┄</text>
  <text id="t-5-36" x="288" y="94" style="fill:currentColor">┄</text>
  <text id="t-5-37" x="296" y="94" style="fill:currentColor">┘</text>
  <text id="t-6-0" x="0" y="110" style="fill:currentColor">╔</text>
  <text id="t-6-1" x="8" y="110" style="fill:currentColor">═</text>
  <text id="t-6-2" x="16" y="110" style="fill:currentColor">═</text>
  <text id="t-6-3" x="24" y="110" style="fill:currentColor">═</text>
  <text id="t-6-4" x="32" y="110" style="fill:currentColor">═</text>
  <text id="t-6-5" x="40" y="110" style="fill:currentColor">═</text>
  <text id="t-6-6" x="48" y="110" style="fill:currentColor">═</text>
  <text id="t-6-7" x="56" y="110" style="fill:currentColor">═</text>
  <text id="t-6-8" x="64" y="110" style="fill:currentColor">═</text>
  <text id="t-6-9" x="72" y="110" style="fill:currentColor">═</text>
  <text id="t-6-10" x="80" y="110" style="fill:currentColor">═</text>
  <text id="t-6-11" x="88" y="110" style="fill:currentColor">═</text>
  <text id="t-6-12" x="96" y="110" style="fill:currentColor">═</text>
  <text id="t-6-13" x="104" y="110" style="fill:currentColor">═</text>
  <text id="t-6-14" x="112" y="110" style="fill:currentColor">═</text>
  <text id="t-6-15" x="120" y="110" style="fill:currentColor">═</text>
  <text id="t-6-16" x="128" y="110" style="fill:currentColor">═</text>
  <text id="t-6-17" x="136" y="110" style="fill:currentColor">═</text>
  <text id="t-6-18" x="144" y="110" style="fill:currentColor">═</text>
  <text id="t-6-19" x="152" y="110" style="fill:currentColor">═</text>
  <text id="t-6-20" x="160" y="110" style="fill:currentColor">═</text>
  <text id="t-6-21" x="168" y="110" style="fill:currentColor">═</text>
  <text id="t-6-22" x="176" y="110" style="fill:currentColor">═</text>
  <text id="t-6-23" x="184" y="110" style="fill:currentColor">═</text>
  <text id="t-6-24" x="192" y="110" style="fill:currentColor">═</text>
  <text id="t-6-25" x="200" y="110" style="fill:currentColor">═</text>
  <text id="t-6-26" x="208" y="110" style="fill:currentColor">═</text>
  <text id="t-6-27" x="216" y="110" style="fill:currentColor">═</text>
  <text id="t-6-28" x="224" y="110" style="fill:currentColor">═</text>
  <text id="t-6-29" x="232" y="110" style="fill:currentColor">═</text>
  <text id="t-6-30" x="240" y="110" style="fill:currentColor">═</text>
  <text id="t-6-31" x="248" y="110" style="fill:currentColor">═</text>
  <text id="t-6-32" x="256" y="110" style="fill:currentColor">═</text>
  <text id="t-6-33" x="264" y="110" style="fill:currentColor">═</text>
  <text id="t-6-34" x="272" y="110" style="fill:currentColor">═</text>
  <text id="t-6-35" x="280" y="110" style="fill:currentColor">═</text>
  <text id="t-6-36" x="288" y="110" style="fill:currentColor">═</text>
  <text id="t-6-37" x="296" y="110" style="fill:currentColor">╗</text>
  <text id="t-7-0" x="0" y="126" style="fill:currentColor">║</text>
  <text id="t-7-1" x="8" y="126" style="fill:currentColor">b</text>
  <text id="t-7-2" x="16" y="126" style="fill:currentColor">s</text>
  <text id="t-7-3" x="24" y="126" style="fill:currentColor">D</text>
  <text id="t-7-4" x="32" y="126" style="fill:currentColor">o</text>
  <text id="t-7-5" x="40" y="126" style="fill:currentColor">u</text>
  <text id="t-7-6" x="48" y="126" style="fill:currentColor">b</text>
  <text id="t-7-7" x="56" y="126" style="fill:currentColor">l</text>
  <text id="t-7-8" x="64" y="126" style="fill:currentColor">e</text>
  <text id="t-7-37" x="296" y="126" style="fill:currentColor">║</text>
  <text id="t-8-0" x="0" y="142" style="fill:currentColor">╚</text>
  <text id="t-8-1" x="8" y="142" style="fill:currentColor">═</text>
  <text id="t-8-2" x="16" y="142" style="fill:currentColor">═</text>
  <text id="t-8-3" x="24" y="142" style="fill:currentColor">═</text>
  <text id="t-8-4" x="32" y="142" style="fill:currentColor">═</text>
  <text id="t-8-5" x="40" y="142" style="fill:currentColor">═</text>
  <text id="t-8-6" x="48" y="142" style="fill:currentColor">═</text>
  <text id="t-8-7" x="56" y="142" style="fill:currentColor">═</text>
  <text id="t-8-8" x="64" y="142" style="fill:currentColor">═</text>
  <text id="t-8-9" x="72" y="142" style="fill:currentColor">═</text>
  <text id="t-8-10" x="80" y="142" style="fill:currentColor">═</text>
  <text id="t-8-11" x="88" y="142" style="fill:currentColor">═</text>
  <text id="t-8-12" x="96" y="142" style="fill:currentColor">═</text>
  <text id="t-8-13" x="104" y="142" style="fill:currentColor">═</text>
  <text id="t-8-14" x="112" y="142" style="fill:currentColor">═</text>
  <text id="t-8-15" x="120" y="142" style="fill:currentColor">═</text>
  <text id="t-8-16" x="128" y="142" style="fill:currentColor">═</text>
  <text id="t-8-17" x="136" y="142" style="fill:currentColor">═</text>
  <text id="t-8-18" x="144" y="142" style="fill:currentColor">═</text>
  <text id="t-8-19" x="152" y="142" style="fill:currentColor">═</text>
  <text id="t-8-20" x="160" y="142" style="fill:currentColor">═</text>
  <text id="t-8-21" x="168" y="142" style="fill:currentColor">═</text>
  <text id="t-8-22" x="176" y="142" style="fill:currentColor">═</text>
  <text id="t-8-23" x="184" y="142" style="fill:currentColor">═</text>
  <text id="t-8-24" x="192" y="142" style="fill:currentColor">═</text>
  <text id="t-8-25" x="200" y="142" style="fill:currentColor">═</text>
  <text id="t-8-26" x="208" y="142" style="fill:currentColor">═</text>
  <text id="t-8-27" x="216" y="142" style="fill:currentColor">═</text>
  <text id="t-8-28" x="224" y="142" style="fill:currentColor">═</text>
  <text id="t-8-29" x="232" y="142" style="fill:currentColor">═</text>
  <text id="t-8-30" x="240" y="142" style="fill:currentColor">═</text>
  <text id="t-8-31" x="248" y="142" style="fill:currentColor">═</text>
  <text id="t-8-32" x="256" y="142" style="fill:currentColor">═</text>
  <text id="t-8-33" x="264" y="142" style="fill:currentColor">═</text>
  <text id="t-8-34" x="272" y="142" style="fill:currentColor">═</text>
  <text id="t-8-35" x="280" y="142" style="fill:currentColor">═</text>
  <text id="t-8-36" x="288" y="142" style="fill:currentColor">═</text>
  <text id="t-8-37" x="296" y="142" style="fill:currentColor">╝</text>
  <text id="t-9-0" x="0" y="158" style="fill:currentColor">┏</text>
  <text id="t-9-1" x="8" y="158" style="fill:currentColor">━</text>
  <text id="t-9-2" x="16" y="158" style="fill:currentColor">━</text>
  <text id="t-9-3" x="24" y="158" style="fill:currentColor">━</text>
  <text id="t-9-4" x="32" y="158" style="fill:currentColor">━</text>
  <text id="t-9-5" x="40" y="158" style="fill:currentColor">━</text>
  <text id="t-9-6" x="48" y="158" style="fill:currentColor">━</text>
  <text id="t-9-7" x="56" y="158" style="fill:currentColor">━</text>
  <text id="t-9-8" x="64" y="158" style="fill:currentColor">━</text>
  <text id="t-9-9" x="72" y="158" style="fill:currentColor">━</text>
  <text id="t-9-10" x="80" y="158" style="fill:currentColor">━</text>
  <text id="t-9-11" x="88" y="158" style="fill:currentColor">━</text>
  <text id="t-9-12" x="96" y="158" style="fill:currentColor">━</text>
  <text id="t-9-13" x="104" y="158" style="fill:currentColor">━</text>
  <text id="t-9-14" x="112" y="158" style="fill:currentColor">━</text>
  <text id="t-9-15" x="120" y="158" style="fill:currentColor">━</text>
  <text id="t-9-16" x="128" y="158" style="fill:currentColor">━</text>
  <text id="t-9-17" x="136" y="158" style="fill:currentColor">━</text>
  <text id="t-9-18" x="144" y="158" style="fill:currentColor">━</text>
  <text id="t-9-19" x="152" y="158" style="fill:currentColor">━</text>
  <text id="t-9-20" x="160" y="158" style="fill:currentColor">━</text>
  <text id="t-9-21" x="168" y="158" style="fill:currentColor">━</text>
  <text id="t-9-22" x="176" y="158" style="fill:currentColor">━</text>
  <text id="t-9-23" x="184" y="158" style="fill:currentColor">━</text>
  <text id="t-9-24" x="192" y="158" style="fill:currentColor">━</text>
  <text id="t-9-25" x="200" y="158" style="fill:currentColor">━</text>
  <text id="t-9-26" x="208" y="158" style="fill:currentColor">━</text>
  <text id="t-9-27" x="216" y="158" style="fill:currentColor">━</text>
  <text id="t-9-28" x="224" y="158" style="fill:currentColor">━</text>
  <text id="t-9-29" x="232" y="158" style="fill:currentColor">━</text>
  <text id="t-9-30" x="240" y="158" style="fill:currentColor">━</text>
  <text id="t-9-31" x="248" y="158" style="fill:currentColor">━</text>
  <text id="t-9-32" x="256" y="158" style="fill:currentColor">━</text>
  <text id="t-9-33" x="264" y="158" style="fill:currentColor">━</text>
  <text id="t-9-34" x="272" y="158" style="fill:currentColor">━</text>
  <text id="t-9-35" x="280" y="158" style="fill:currentColor">━</text>
  <text id="t-9-36" x="288" y="158" style="fill:currentColor">━</text>
  <text id="t-9-37" x="296" y="158" style="fill:currentColor">┓</text>
  <text id="t-10-0" x="0" y="174" style="fill:currentColor">┃</text>
  <text id="t-10-1" x="8" y="174" style="fill:currentColor">b</text>
  <text id="t-10-2" x="16" y="174" style="fill:currentColor">s</text>
  <text id="t-10-3" x="24" y="174" style="fill:currentColor">H</text>
  <text id="t-10-4" x="32" y="174" style="fill:currentColor">e</text>
  <text id="t-10-5" x="40" y="174" style="fill:currentColor">a</text>
  <text id="t-10-6" x="48" y="174" style="fill:currentColor">v</text>
  <text id="t-10-7" x="56" y="174" style="fill:currentColor">y</text>
  <text id="t-10-37" x="296" y="174" style="fill:currentColor">┃</text>
  <text id="t-11-0" x="0" y="190" style="fill:currentColor">┗</text>
  <text id="t-11-1" x="8" y="190" style="fill:currentColor">━</text>
  <text id="t-11-2" x="16" y="190" style="fill:currentColor">━</text>
  <text id="t-11-3" x="24" y="190" style="fill:currentColor">━</text>
  <text id="t-11-4" x="32" y="190" style="fill:currentColor">━</text>
  <text id="t-11-5" x="40" y="190" style="fill:currentColor">━</text>
  <text id="t-11-6" x="48" y="190" style="fill:currentColor">━</text>
  <text id="t-11-7" x="56" y="190" style="fill:currentColor">━</text>
  <text id="t-11-8" x="64" y="190" style="fill:currentColor">━</text>
  <text id="t-11-9" x="72" y="190" style="fill:currentColor">━</text>
  <text id="t-11-10" x="80" y="190" style="fill:currentColor">━</text>
  <text id="t-11-11" x="88" y="190" style="fill:currentColor">━</text>
  <text id="t-11-12" x="96" y="190" style="fill:currentColor">━</text>
  <text id="t-11-13" x="104" y="190" style="fill:currentColor">━</text>
  <text id="t-11-14" x="112" y="190" style="fill:currentColor">━</text>
  <text id="t-11-15" x="120" y="190" style="fill:currentColor">━</text>
  <text id="t-11-16" x="128" y="190" style="fill:currentColor">━</text>
  <text id="t-11-17" x="136" y="190" style="fill:currentColor">━</text>
  <text id="t-11-18" x="144" y="190" style="fill:currentColor">━</text>
  <text id="t-11-19" x="152" y="190" style="fill:currentColor">━</text>
  <text id="t-11-20" x="160" y="190" style="fill:currentColor">━</text>
  <text id="t-11-21" x="168" y="190" style="fill:currentColor">━</text>
  <text id="t-11-22" x="176" y="190" style="fill:currentColor">━</text>
  <text id="t-11-23" x="184" y="190" style="fill:currentColor">━</text>
  <text id="t-11-24" x="192" y="190" style="fill:currentColor">━</text>
  <text id="t-11-25" x="200" y="190" style="fill:currentColor">━</text>
  <text id="t-11-26" x="208" y="190" style="fill:currentColor">━</text>
  <text id="t-11-27" x="216" y="190" style="fill:currentColor">━</text>
  <text id="t-11-28" x="224" y="190" style="fill:currentColor">━</text>
  <text id="t-11-29" x="232" y="190" style="fill:currentColor">━</text>
  <text id="t-11-30" x="240" y="190" style="fill:currentColor">━</text>
  <text id="t-11-31" x="248" y="190" style="fill:currentColor">━</text>
  <text id="t-11-32" x="256" y="190" style="fill:currentColor">━</text>
  <text id="t-11-33" x="264" y="190" style="fill:currentColor">━</text>
  <text id="t-11-34" x="272" y="190" style="fill:currentColor">━</text>
  <text id="t-11-35" x="280" y="190" style="fill:currentColor">━</text>
  <text id="t-11-36" x="288" y="190" style="fill:currentColor">━</text>
  <text id="t-11-37" x="296" y="190" style="fill:currentColor">┛</text>
  <text id="t-12-0" x="0" y="206" style="fill:currentColor">+</text>
  <text id="t-12-1" x="8" y="206" style="fill:currentColor">-</text>
  <text id="t-12-2" x="16" y="206" style="fill:currentColor">-</text>
  <text id="t-12-3" x="24" y="206" style="fill:currentColor">-</text>
  <text id="t-12-4" x="32" y="206" style="fill:currentColor">-</text>
  <text id="t-12-5" x="40" y="206" style="fill:currentColor">-</text>
  <text id="t-12-6" x="48" y="206" style="fill:currentColor">-</text>
  <text id="t-12-7" x="56" y="206" style="fill:currentColor">-</text>
  <text id="t-12-8" x="64" y="206" style="fill:currentColor">-</text>
  <text id="t-12-9" x="72" y="206" style="fill:currentColor">-</text>
  <text id="t-12-10" x="80" y="206" style="fill:currentColor">-</text>
  <text id="t-12-11" x="88" y="206" style="fill:currentColor">-</text>
  <text id="t-12-12" x="96" y="206" style="fill:currentColor">-</text>
  <text id="t-12-13" x="104" y="206" style="fill:currentColor">-</text>
  <text id="t-12-14" x="112" y="206" style="fill:currentColor">-</text>
  <text id="t-12-15" x="120" y="206" style="fill:currentColor">-</text>
  <text id="t-12-16" x="128" y="206" style="fill:currentColor">-</text>
  <text id="t-12-17" x="136" y="206" style="fill:currentColor">-</text>
  <text id="t-12-18" x="144" y="206" style="fill:currentColor">-</text>
  <text id="t-12-19" x="152" y="206" style="fill:currentColor">-</text>
  <text id="t-12-20" x="160" y="206" style="fill:currentColor">-</text>
  <text id="t-12-21" x="168" y="206" style="fill:currentColor">-</text>
  <text id="t-12-22" x="176" y="206" style="fill:currentColor">-</text>
  <text id="t-12-23" x="184" y="206" style="fill:currentColor">-</text>
  <text id="t-12-24" x="192" y="206" style="fill:currentColor">-</text>
  <text id="t-12-25" x="200" y="206" style="fill:currentColor">-</text>
  <text id="t-12-26" x="208" y="206" style="fill:currentColor">-</text>
  <text id="t-12-27" x="216" y="206" style="fill:currentColor">-</text>
  <text id="t-12-28" x="224" y="206" style="fill:currentColor">-</text>
  <text id="t-12-29" x="232" y="206" style="fill:currentColor">-</text>
  <text id="t-12-30" x="240" y="206" style="fill:currentColor">-</text>
  <text id="t-12-31" x="248" y="206" style="fill:currentColor">-</text>
  <text id="t-12-32" x="256" y="206" style="fill:currentColor">-</text>
  <text id="t-12-33" x="264" y="206" style="fill:currentColor">-</text>
  <text id="t-12-34" x="272" y="206" style="fill:currentColor">-</text>
  <text id="t-12-35" x="280" y="206" style="fill:currentColor">-</text>
  <text id="t-12-36" x="288" y="206" style="fill:currentColor">-</text>
  <text id="t-12-37" x="296" y="206" style="fill:currentColor">+</text>
  <text id="t-13-0" x="0" y="222" style="fill:currentColor">|</text>
  <text id="t-13-1" x="8" y="222" style="fill:currentColor">b</text>
  <text id="t-13-2" x="16" y="222" style="fill:currentColor">s</text>
  <text id="t-13-3" x="24" y="222" style="fill:currentColor">A</text>
  <text id="t-13-4" x="32" y="222" style="fill:currentColor">s</text>
  <text id="t-13-5" x="40" y="222" style="fill:currentColor">c</text>
  <text id="t-13-6" x="48" y="222" style="fill:currentColor">i</text>
  <text id="t-13-7" x="56" y="222" style="fill:currentColor">i</text>
  <text id="t-13-37" x="296" y="222" style="fill:currentColor">|</text>
  <text id="t-14-0" x="0" y="238" style="fill:currentColor">+</text>
  <text id="t-14-1" x="8" y="238" style="fill:currentColor">-</text>
  <text id="t-14-2" x="16" y="238" style="fill:currentColor">-</text>
  <text id="t-14-3" x="24" y="238" style="fill:currentColor">-</text>
  <text id="t-14-4" x="32" y="238" style="fill:currentColor">-</text>
  <text id="t-14-5" x="40" y="238" style="fill:currentColor">-</text>
  <text id="t-14-6" x="48" y="238" style="fill:currentColor">-</text>
  <text id="t-14-7" x="56" y="238" style="fill:currentColor">-</text>
  <text id="t-14-8" x="64" y="238" style="fill:currentColor">-</text>
  <text id="t-14-9" x="72" y="238" style="fill:currentColor">-</text>
  <text id="t-14-10" x="80" y="238" style="fill:currentColor">-</text>
  <text id="t-14-11" x="88" y="238" style="fill:currentColor">-</text>
  <text id="t-14-12" x="96" y="238" style="fill:currentColor">-</text>
  <text id="t-14-13" x="104" y="238" style="fill:currentColor">-</text>
  <text id="t-14-14" x="112" y="238" style="fill:currentColor">-</text>
  <text id="t-14-15" x="120" y="238" style="fill:currentColor">-</text>
  <text id="t-14-16" x="128" y="238" style="fill:currentColor">-</text>
  <text id="t-14-17" x="136" y="238" style="fill:currentColor">-</text>
  <text id="t-14-18" x="144" y="238" style="fill:currentColor">-</text>
  <text id="t-14-19" x="152" y="238" style="fill:currentColor">-</text>
  <text id="t-14-20" x="160" y="238" style="fill:currentColor">-</text>
  <text id="t-14-21" x="168" y="238" style="fill:currentColor">-</text>
  <text id="t-14-22" x="176" y="238" style="fill:currentColor">-</text>
  <text id="t-14-23" x="184" y="238" style="fill:currentColor">-</text>
  <text id="t-14-24" x="192" y="238" style="fill:currentColor">-</text>
  <text id="t-14-25" x="200" y="238" style="fill:currentColor">-</text>
  <text id="t-14-26" x="208" y="238" style="fill:currentColor">-</text>
  <text id="t-14-27" x="216" y="238" style="fill:currentColor">-</text>
  <text id="t-14-28" x="224" y="238" style="fill:currentColor">-</text>
  <text id="t-14-29" x="232" y="238" style="fill:currentColor">-</text>
  <text id="t-14-30" x="240" y="238" style="fill:currentColor">-</text>
  <text id="t-14-31" x="248" y="238" style="fill:currentColor">-</text>
  <text id="t-14-32" x="256" y="238" style="fill:currentColor">-</text>
  <text id="t-14-33" x="264" y="238" style="fill:currentColor">-</text>
  <text id="t-14-34" x="272" y="238" style="fill:currentColor">-</text>
  <text id="t-14-35" x="280" y="238" style="fill:currentColor">-</text>
  <text id="t-14-36" x="288" y="238" style="fill:currentColor">-</text>
  <text id="t-14-37" x="296" y="238" style="fill:currentColor">+</text>
  <text id="t-15-0" x="0" y="254" style="fill:currentColor">╭</text>
  <text id="t-15-1" x="8" y="254" style="fill:currentColor">─</text>
  <text id="t-15-2" x="16" y="254" style="fill:currentColor">─</text>
  <text id="t-15-3" x="24" y="254" style="fill:currentColor">─</text>
  <text id="t-15-4" x="32" y="254" style="fill:currentColor">─</text>
  <text id="t-15-5" x="40" y="254" style="fill:currentColor">─</text>
  <text id="t-15-6" x="48" y="254" style="fill:currentColor">─</text>
  <text id="t-15-7" x="56" y="254" style="fill:currentColor">─</text>
  <text id="t-15-8" x="64" y="254" style="fill:currentColor">─</text>
  <text id="t-15-9" x="72" y="254" style="fill:currentColor">─</text>
  <text id="t-15-10" x="80" y="254" style="fill:currentColor">─</text>
  <text id="t-15-11" x="88" y="254" style="fill:currentColor">─</text>
  <text id="t-15-12" x="96" y="254" style="fill:currentColor">─</text>
  <text id="t-15-13" x="104" y="254" style="fill:currentColor">─</text>
  <text id="t-15-14" x="112" y="254" style="fill:currentColor">─</text>
  <text id="t-15-15" x="120" y="254" style="fill:currentColor">─</text>
  <text id="t-15-16" x="128" y="254" style="fill:currentColor">─</text>
  <text id="t-15-17" x="136" y="254" style="fill:currentColor">─</text>
  <text id="t-15-18" x="144" y="254" style="fill:currentColor">─</text>
  <text id="t-15-19" x="152" y="254" style="fill:currentColor">─</text>
  <text id="t-15-20" x="160" y="254" style="fill:currentColor">─</text>
  <text id="t-15-21" x="168" y="254" style="fill:currentColor">─</text>
  <text id="t-15-22" x="176" y="254" style="fill:currentColor">─</text>
  <text id="t-15-23" x="184" y="254" style="fill:currentColor">─</text>
  <text id="t-15-24" x="192" y="254" style="fill:currentColor">─</text>
  <text id="t-15-25" x="200" y="254" style="fill:currentColor">─</text>
  <text id="t-15-26" x="208" y="254" style="fill:currentColor">─</text>
  <text id="t-15-27" x="216" y="254" style="fill:currentColor">─</text>
  <text id="t-15-28" x="224" y="254" style="fill:currentColor">─</text>
  <text id="t-15-29" x="232" y="254" style="fill:currentColor">─</text>
  <text id="t-15-30" x="240" y="254" style="fill:currentColor">─</text>
  <text id="t-15-31" x="248" y="254" style="fill:currentColor">─</text>
  <text id="t-15-32" x="256" y="254" style="fill:currentColor">─</text>
  <text id="t-15-33" x="264" y="254" style="fill:currentColor">─</text>
  <text id="t-15-34" x="272" y="254" style="fill:currentColor">─</text>
  <text id="t-15-35" x="280" y="254" style="fill:currentColor">─</text>
  <text id="t-15-36" x="288" y="254" style="fill:currentColor">─</text>
  <text id="t-15-37" x="296" y="254" style="fill:currentColor">╮</text>
  <text id="t-16-0" x="0" y="270" style="fill:currentColor">│</text>
  <text id="t-16-1" x="8" y="270" style="fill:currentColor">b</text>
  <text id="t-16-2" x="16" y="270" style="fill:currentColor">s</text>
  <text id="t-16-3" x="24" y="270" style="fill:currentColor">R</text>
  <text id="t-16-4" x="32" y="270" style="fill:currentColor">o</text>
  <text id="t-16-5" x="40" y="270" style="fill:currentColor">u</text>
  <text id="t-16-6" x="48" y="270" style="fill:currentColor">n</text>
  <text id="t-16-7" x="56" y="270" style="fill:currentColor">d</text>
  <text id="t-16-37" x="296" y="270" style="fill:currentColor">│</text>
  <text id="t-17-0" x="0" y="286" style="fill:currentColor">╰</text>
  <text id="t-17-1" x="8" y="286" style="fill:currentColor">─</text>
  <text id="t-17-2" x="16" y="286" style="fill:currentColor">─</text>
  <text id="t-17-3" x="24" y="286" style="fill:currentColor">─</text>
  <text id="t-17-4" x="32" y="286" style="fill:currentColor">─</text>
  <text id="t-17-5" x="40" y="286" style="fill:currentColor">─</text>
  <text id="t-17-6" x="48" y="286" style="fill:currentColor">─</text>
  <text id="t-17-7" x="56" y="286" style="fill:currentColor">─</text>
  <text id="t-17-8" x="64" y="286" style="fill:currentColor">─</text>
  <text id="t-17-9" x="72" y="286" style="fill:currentColor">─</text>
  <text id="t-17-10" x="80" y="286" style="fill:currentColor">─</text>
  <text id="t-17-11" x="88" y="286" style="fill:currentColor">─</text>
  <text id="t-17-12" x="96" y="286" style="fill:currentColor">─</text>
  <text id="t-17-13" x="104" y="286" style="fill:currentColor">─</text>
  <text id="t-17-14" x="112" y="286" style="fill:currentColor">─</text>
  <text id="t-17-15" x="120" y="286" style="fill:currentColor">─</text>
  <text id="t-17-16" x="128" y="286" style="fill:currentColor">─</text>
  <text id="t-17-17" x="136" y="286" style="fill:currentColor">─</text>
  <text id="t-17-18" x="144" y="286" style="fill:currentColor">─</text>
  <text id="t-17-19" x="152" y="286" style="fill:currentColor">─</text>
  <text id="t-17-20" x="160" y="286" style="fill:currentColor">─</text>
  <text id="t-17-21" x="168" y="286" style="fill:currentColor">─</text>
  <text id="t-17-22" x="176" y="286" style="fill:currentColor">─</text>
  <text id="t-17-23" x="184" y="286" style="fill:currentColor">─</text>
  <text id="t-17-24" x="192" y="286" style="fill:currentColor">─</text>
  <text id="t-17-25" x="200" y="286" style="fill:currentColor">─</text>
  <text id="t-17-26" x="208" y="286" style="fill:currentColor">─</text>
  <text id="t-17-27" x="216" y="286" style="fill:currentColor">─</text>
  <text id="t-17-28" x="224" y="286" style="fill:currentColor">─</text>
  <text id="t-17-29" x="232" y="286" style="fill:currentColor">─</text>
  <text id="t-17-30" x="240" y="286" style="fill:currentColor">─</text>
  <text id="t-17-31" x="248" y="286" style="fill:currentColor">─</text>
  <text id="t-17-32" x="256" y="286" style="fill:currentColor">─</text>
  <text id="t-17-33" x="264" y="286" style="fill:currentColor">─</text>
  <text id="t-17-34" x="272" y="286" style="fill:currentColor">─</text>
  <text id="t-17-35" x="280" y="286" style="fill:currentColor">─</text>
  <text id="t-17-36" x="288" y="286" style="fill:currentColor">─</text>
  <text id="t-17-37" x="296" y="286" style="fill:currentColor">╯</text>
</svg>
