<?xml version="1.0" encoding="UTF-8"?>
<svg xmlns="http://www.w3.org/2000/svg" width="640" height="80" viewBox="0 0 640 80" font-family="monospace" font-size="16">
  <text id="t-0-0" x="0" y="14" style="fill:currentColor">┌</text>
  <text id="t-0-1" x="8" y="14" style="fill:currentColor">─</text>
  <text id="t-0-2" x="16" y="14" style="fill:currentColor">─</text>
  <text id="t-0-3" x="24" y="14" style="fill:currentColor">─</text>
  <text id="t-0-4" x="32" y="14" style="fill:currentColor">─</text>
  <text id="t-0-5" x="40" y="14" style="fill:currentColor">─</text>
  <text id="t-0-6" x="48" y="14" style="fill:currentColor">─</text>
  <text id="t-0-7" x="56" y="14" style="fill:currentColor">─</text>
  <text id="t-0-8" x="64" y="14" style="fill:currentColor">─</text>
  <text id="t-0-9" x="72" y="14" style="fill:currentColor">─</text>
  <text id="t-0-10" x="80" y="14" style="fill:currentColor">─</text>
  <text id="t-0-11" x="88" y="14" style="fill:currentColor">─</text>
  <text id="t-0-12" x="96" y="14" style="fill:currentColor">─</text>
  <text id="t-0-13" x="104" y="14" style="fill:currentColor">─</text>
  <text id="t-0-14" x="112" y="14" style="fill:currentColor">─</text>
  <text id="t-0-15" x="120" y="14" style="fill:currentColor">─</text>
  <text id="t-0-16" x="128" y="14" style="fill:currentColor">─</text>
  <text id="t-0-17" x="136" y="14" style="fill:currentColor">─</text>
  <text id="t-0-18" x="144" y="14" style="fill:currentColor">─</text>
  <text id="t-0-19" x="152" y="14" style="fill:currentColor">─</text>
  <text id="t-0-20" x="160" y="14" style="fill:currentColor">─</text>
  <text id="t-0-21" x="168" y="14" style="fill:currentColor">─</text>
  <text id="t-0-22" x="176" y="14" style="fill:currentColor">─</text>
  <text id="t-0-23" x="184" y="14" style="fill:currentColor">─</text>
  <text id="t-0-24" x="192" y="14" style="fill:currentColor">─</text>
  <text id="t-0-25" x="200" y="14" style="fill:currentColor">─</text>
  <text id="t-0-26" x="208" y="14" style="fill:currentColor">─</text>
  <text id="t-0-27" x="216" y="14" style="fill:currentColor">─</text>
  <text id="t-0-28" x="224" y="14" style="fill:currentColor">─</text>
  <text id="t-0-29" x="232" y="14" style="fill:currentColor">─</text>
  <text id="t-0-30" x="240" y="14" style="fill:currentColor">─</text>
  <text id="t-0-31" x="248" y="14" style="fill:currentColor">─</text>
  <text id="t-0-32" x="256" y="14" style="fill:currentColor">─</text>
  <text id="t-0-33" x="264" y="14" style="fill:currentColor">─</text>
  <text id="t-0-34" x="272" y="14" style="fill:currentColor">─</text>
  <text id="t-0-35" x="280" y="14" style="fill:currentColor">─</text>
  <text id="t-0-36" x="288" y="14" style="fill:currentColor">─</text>
  <text id="t-0-37" x="296" y="14" style="fill:currentColor">─</text>
  <text id="t-0-38" x="304" y="14" style="fill:currentColor">─</text>
  <text id="t-0-39" x="312" y="14" style="fill:currentColor">─</text>
  <text id="t-0-40" x="320" y="14" style="fill:currentColor">─</text>
  <text id="t-0-41" x="328" y="14" style="fill:currentColor">─</text>
  <text id="t-0-42" x="336" y="14" style="fill:currentColor">─</text>
  <text id="t-0-43" x="344" y="14" style="fill:currentColor">─</text>
  <text id="t-0-44" x="352" y="14" style="fill:currentColor">─</text>
  <text id="t-0-45" x="360" y="14" style="fill:currentColor">─</text>
  <text id="t-0-46" x="368" y="14" style="fill:currentColor">─</text>
  <text id="t-0-47" x="376" y="14" style="fill:currentColor">─</text>
  <text id="t-0-48" x="384" y="14" style="fill:currentColor">─</text>
  <text id="t-0-49" x="392" y="14" style="fill:currentColor">─</text>
  <text id="t-0-50" x="400" y="14" style="fill:currentColor">─</text>
  <text id="t-0-51" x="408" y="14" style="fill:currentColor">─</text>
  <text id="t-0-52" x="416" y="14" style="fill:currentColor">─</text>
  <text id="t-0-53" x="424" y="14" style="fill:currentColor">─</text>
  <text id="t-0-54" x="432" y="14" style="fill:currentColor">─</text>
  <text id="t-0-55" x="440" y="14" style="fill:currentColor">─</text>
  <text id="t-0-56" x="448" y="14" style="fill:currentColor">─</text>
  <text id="t-0-57" x="456" y="14" style="fill:currentColor">─</text>
  <text id="t-0-58" x="464" y="14" style="fill:currentColor">─</text>
  <text id="t-0-59" x="472" y="14" style="fill:currentColor">─</text>
  <text id="t-0-60" x="480" y="14" style="fill:currentColor">─</text>
  <text id="t-0-61" x="488" y="14" style="fill:currentColor">─</text>
  <text id="t-0-62" x="496" y="14" style="fill:currentColor">─</text>
  <text id="t-0-63" x="504" y="14" style="fill:currentColor">─</text>
  <text id="t-0-64" x="512" y="14" style="fill:currentColor">─</text>
  <text id="t-0-65" x="520" y="14" style="fill:currentColor">─</text>
  <text id="t-0-66" x="528" y="14" style="fill:currentColor">─</text>
  <text id="t-0-67" x="536" y="14" style="fill:currentColor">─</text>
  <text id="t-0-68" x="544" y="14" style="fill:currentColor">─</text>
  <text id="t-0-69" x="552" y="14" style="fill:currentColor">─</text>
  <text id="t-0-70" x="560" y="14" style="fill:currentColor">─</text>
  <text id="t-0-71" x="568" y="14" style="fill:currentColor">─</text>
  <text id="t-0-72" x="576" y="14" style="fill:currentColor">─</text>
  <text id="t-0-73" x="584" y="14" style="fill:currentColor">─</text>
  <text id="t-0-74" x="592" y="14" style="fill:currentColor">─</text>
  <text id="t-0-75" x="600" y="14" style="fill:currentColor">─</text>
  <text id="t-0-76" x="608" y="14" style="fill:currentColor">─</text>
  <text id="t-0-77" x="616" y="14" style="fill:currentColor">─</text>
  <text id="t-0-78" x="624" y="14" style="fill:currentColor">─</text>
  <text id="t-0-79" x="632" y="14" style="fill:currentColor">┐</text>
  <text id="t-1-0" x="0" y="30" style="fill:currentColor">│</text>
  <text id="t-1-1" x="8" y="30" style="fill:currentColor">D</text>
  <text id="t-1-2" x="16" y="30" style="fill:currentColor">o</text>
  <text id="t-1-3" x="24" y="30" style="fill:currentColor">c</text>
  <text id="t-1-4" x="32" y="30" style="fill:currentColor">k</text>
  <text id="t-1-5" x="40" y="30" style="fill:currentColor">e</text>
  <text id="t-1-6" x="48" y="30" style="fill:currentColor">d</text>
  <text id="t-1-8" x="64" y="30" style="fill:currentColor">l</text>
  <text id="t-1-9" x="72" y="30" style="fill:currentColor">e</text>
  <text id="t-1-10" x="80" y="30" style="fill:currentColor">f</text>
  <text id="t-1-11" x="88" y="30" style="fill:currentColor">t</text>
  <text id="t-1-13" x="104" y="30" style="fill:currentColor">1</text>
  <text id="t-1-14" x="112" y="30" style="fill:currentColor">D</text>
  <text id="t-1-15" x="120" y="30" style="fill:currentColor">o</text>
  <text id="t-1-16" x="128" y="30" style="fill:currentColor">c</text>
  <text id="t-1-17" x="136" y="30" style="fill:currentColor">k</text>
  <text id="t-1-18" x="144" y="30" style="fill:currentColor">e</text>
  <text id="t-1-19" x="152" y="30" style="fill:currentColor">d</text>
  <text id="t-1-21" x="168" y="30" style="fill:currentColor">l</text>
  <text id="t-1-22" x="176" y="30" style="fill:currentColor">e</text>
  <text id="t-1-23" x="184" y="30" style="fill:currentColor">f</text>
  <text id="t-1-24" x="192" y="30" style="fill:currentColor">t</text>
  <text id="t-1-26" x="208" y="30" style="fill:currentColor">2</text>
  <text id="t-1-27" x="216" y="30" style="fill:currentColor">W</text>
  <text id="t-1-28" x="224" y="30" style="fill:currentColor">i</text>
  <text id="t-1-29" x="232" y="30" style="fill:currentColor">d</text>
  <text id="t-1-30" x="240" y="30" style="fill:currentColor">g</text>
  <text id="t-1-31" x="248" y="30" style="fill:currentColor">e</text>
  <text id="t-1-32" x="256" y="30" style="fill:currentColor">t</text>
  <text id="t-1-34" x="272" y="30" style="fill:currentColor">1</text>
  <text id="t-1-35" x="280" y="30" style="fill:currentColor">W</text>
  <text id="t-1-36" x="288" y="30" style="fill:currentColor">i</text>
  <text id="t-1-37" x="296" y="30" style="fill:currentColor">d</text>
  <text id="t-1-38" x="304" y="30" style="fill:currentColor">g</text>
  <text id="t-1-39" x="312" y="30" style="fill:currentColor">e</text>
  <text id="t-1-40" x="320" y="30" style="fill:currentColor">t</text>
  <text id="t-1-42" x="336" y="30" style="fill:currentColor">2</text>
  <text id="t-1-79" x="632" y="30" style="fill:currentColor">│</text>
  <text id="t-2-0" x="0" y="46" style="fill:currentColor">│</text>
  <text id="t-2-79" x="632" y="46" style="fill:currentColor">│</text>
  <text id="t-3-0" x="0" y="62" style="fill:currentColor">│</text>
  <text id="t-3-79" x="632" y="62" style="fill:currentColor">│</text>
  <text id="t-4-0" x="0" y="78" style="fill:currentColor">└</text>
  <text id="t-4-1" x="8" y="78" style="fill:currentColor">─</text>
  <text id="t-4-2" x="16" y="78" style="fill:currentColor">─</text>
  <text id="t-4-3" x="24" y="78" style="fill:currentColor">─</text>
  <text id="t-4-4" x="32" y="78" style="fill:currentColor">─</text>
  <text id="t-4-5" x="40" y="78" style="fill:currentColor">─</text>
  <text id="t-4-6" x="48" y="78" style="fill:currentColor">─</text>
  <text id="t-4-7" x="56" y="78" style="fill:currentColor">─</text>
  <text id="t-4-8" x="64" y="78" style="fill:currentColor">─</text>
  <text id="t-4-9" x="72" y="78" style="fill:currentColor">─</text>
  <text id="t-4-10" x="80" y="78" style="fill:currentColor">─</text>
  <text id="t-4-11" x="88" y="78" style="fill:currentColor">─</text>
  <text id="t-4-12" x="96" y="78" style="fill:currentColor">─</text>
  <text id="t-4-13" x="104" y="78" style="fill:currentColor">─</text>
  <text id="t-4-14" x="112" y="78" style="fill:currentColor">─</text>
  <text id="t-4-15" x="120" y="78" style="fill:currentColor">─</text>
  <text id="t-4-16" x="128" y="78" style="fill:currentColor">─</text>
  <text id="t-4-17" x="136" y="78" style="fill:currentColor">─</text>
  <text id="t-4-18" x="144" y="78" style="fill:currentColor">─</text>
  <text id="t-4-19" x="152" y="78" style="fill:currentColor">─</text>
  <text id="t-4-20" x="160" y="78" style="fill:currentColor">─</text>
  <text id="t-4-21" x="168" y="78" style="fill:currentColor">─</text>
  <text id="t-4-22" x="176" y="78" style="fill:currentColor">─</text>
  <text id="t-4-23" x="184" y="78" style="fill:currentColor">─</text>
  <text id="t-4-24" x="192" y="78" style="fill:currentColor">─</text>
  <text id="t-4-25" x="200" y="78" style="fill:currentColor">─</text>
  <text id="t-4-26" x="208" y="78" style="fill:currentColor">─</text>
  <text id="t-4-27" x="216" y="78" style="fill:currentColor">─</text>
  <text id="t-4-28" x="224" y="78" style="fill:currentColor">─</text>
  <text id="t-4-29" x="232" y="78" style="fill:currentColor">─</text>
  <text id="t-4-30" x="240" y="78" style="fill:currentColor">─</text>
  <text id="t-4-31" x="248" y="78" style="fill:currentColor">─</text>
  <text id="t-4-32" x="256" y="78" style="fill:currentColor">─</text>
  <text id="t-4-33" x="264" y="78" style="fill:currentColor">─</text>
  <text id="t-4-34" x="272" y="78" style="fill:currentColor">─</text>
  <text id="t-4-35" x="280" y="78" style="fill:currentColor">─</text>
  <text id="t-4-36" x="288" y="78" style="fill:currentColor">─</text>
  <text id="t-4-37" x="296" y="78" style="fill:currentColor">─</text>
  <text id="t-4-38" x="304" y="78" style="fill:currentColor">─</text>
  <text id="t-4-39" x="312" y="78" style="fill:currentColor">─</text>
  <text id="t-4-40" x="320" y="78" style="fill:currentColor">─</text>
  <text id="t-4-41" x="328" y="78" style="fill:currentColor">─</text>
  <text id="t-4-42" x="336" y="78" style="fill:currentColor">─</text>
  <text id="t-4-43" x="344" y="78" style="fill:currentColor">─</text>
  <text id="t-4-44" x="352" y="78" style="fill:currentColor">─</text>
  <text id="t-4-45" x="360" y="78" style="fill:currentColor">─</text>
  <text id="t-4-46" x="368" y="78" style="fill:currentColor">─</text>
  <text id="t-4-47" x="376" y="78" style="fill:currentColor">─</text>
  <text id="t-4-48" x="384" y="78" style="fill:currentColor">─</text>
  <text id="t-4-49" x="392" y="78" style="fill:currentColor">─</text>
  <text id="t-4-50" x="400" y="78" style="fill:currentColor">─</text>
  <text id="t-4-51" x="408" y="78" style="fill:currentColor">─</text>
  <text id="t-4-52" x="416" y="78" style="fill:currentColor">─</text>
  <text id="t-4-53" x="424" y="78" style="fill:currentColor">─</text>
  <text id="t-4-54" x="432" y="78" style="fill:currentColor">─</text>
  <text id="t-4-55" x="440" y="78" style="fill:currentColor">─</text>
  <text id="t-4-56" x="448" y="78" style="fill:currentColor">─</text>
  <text id="t-4-57" x="456" y="78" style="fill:currentColor">─</text>
  <text id="t-4-58" x="464" y="78" style="fill:currentColor">─</text>
  <text id="t-4-59" x="472" y="78" style="fill:currentColor">─</text>
  <text id="t-4-60" x="480" y="78" style="fill:currentColor">─</text>
  <text id="t-4-61" x="488" y="78" style="fill:currentColor">─</text>
  <text id="t-4-62" x="496" y="78" style="fill:currentColor">─</text>
  <text id="t-4-63" x="504" y="78" style="fill:currentColor">─</text>
  <text id="t-4-64" x="512" y="78" style="fill:currentColor">─</text>
  <text id="t-4-65" x="520" y="78" style="fill:currentColor">─</text>
  <text id="t-4-66" x="528" y="78" style="fill:currentColor">─</text>
  <text id="t-4-67" x="536" y="78" style="fill:currentColor">─</text>
  <text id="t-4-68" x="544" y="78" style="fill:currentColor">─</text>
  <text id="t-4-69" x="552" y="78" style="fill:currentColor">─</text>
  <text id="t-4-70" x="560" y="78" style="fill:currentColor">─</text>
  <text id="t-4-71" x="568" y="78" style="fill:currentColor">─</text>
  <text id="t-4-72" x="576" y="78" style="fill:currentColor">─</text>
  <text id="t-4-73" x="584" y="78" style="fill:currentColor">─</text>
  <text id="t-4-74" x="592" y="78" style="fill:currentColor">─</text>
  <text id="t-4-75" x="600" y="78" style="fill:currentColor">─</text>
  <text id="t-4-76" x="608" y="78" style="fill:currentColor">─</text>
  <text id="t-4-77" x="616" y="78" style="fill:currentColor">─</text>
  <text id="t-4-78" x="624" y="78" style="fill:currentColor">─</text>
  <text id="t-4-79" x="632" y="78" style="fill:currentColor">┘</text>
</svg>
