<?xml version="1.0" encoding="UTF-8"?>
<svg xmlns="http://www.w3.org/2000/svg" width="480" height="80" viewBox="0 0 480 80" font-family="monospace" font-size="16">
  <text id="t-0-0" x="0" y="14" style="fill:currentColor">┌</text>
  <text id="t-0-1" x="8" y="14" style="fill:currentColor">─</text>
  <text id="t-0-2" x="16" y="14" style="fill:currentColor">─</text>
  <text id="t-0-3" x="24" y="14" style="fill:currentColor">─</text>
  <text id="t-0-4" x="32" y="14" style="fill:currentColor">─</text>
  <text id="t-0-5" x="40" y="14" style="fill:currentColor">─</text>
  <text id="t-0-6" x="48" y="14" style="fill:currentColor">─</text>
  <text id="t-0-7" x="56" y="14" style="fill:currentColor">─</text>
  <text id="t-0-8" x="64" y="14" style="fill:currentColor">─</text>
  <text id="t-0-9" x="72" y="14" style="fill:currentColor">─</text>
  <text id="t-0-10" x="80" y="14" style="fill:currentColor">─</text>
  <text id="t-0-11" x="88" y="14" style="fill:currentColor">─</text>
  <text id="t-0-12" x="96" y="14" style="fill:currentColor">─</text>
  <text id="t-0-13" x="104" y="14" style="fill:currentColor">─</text>
  <text id="t-0-14" x="112" y="14" style="fill:currentColor">─</text>
  <text id="t-0-15" x="120" y="14" style="fill:currentColor">─</text>
  <text id="t-0-16" x="128" y="14" style="fill:currentColor">─</text>
  <text id="t-0-17" x="136" y="14" style="fill:currentColor">─</text>
  <text id="t-0-18" x="144" y="14" style="fill:currentColor">─</text>
  <text id="t-0-19" x="152" y="14" style="fill:currentColor">─</text>
  <text id="t-0-20" x="160" y="14" style="fill:currentColor">─</text>
  <text id="t-0-21" x="168" y="14" style="fill:currentColor">─</text>
  <text id="t-0-22" x="176" y="14" style="fill:currentColor">─</text>
  <text id="t-0-23" x="184" y="14" style="fill:currentColor">─</text>
  <text id="t-0-24" x="192" y="14" style="fill:currentColor">─</text>
  <text id="t-0-25" x="200" y="14" style="fill:currentColor">─</text>
  <text id="t-0-26" x="208" y="14" style="fill:currentColor">─</text>
  <text id="t-0-27" x="216" y="14" style="fill:currentColor">─</text>
  <text id="t-0-28" x="224" y="14" style="fill:currentColor">─</text>
  <text id="t-0-29" x="232" y="14" style="fill:currentColor">─</text>
  <text id="t-0-30" x="240" y="14" style="fill:currentColor">─</text>
  <text id="t-0-31" x="248" y="14" style="fill:currentColor">─</text>
  <text id="t-0-32" x="256" y="14" style="fill:currentColor">─</text>
  <text id="t-0-33" x="264" y="14" style="fill:currentColor">─</text>
  <text id="t-0-34" x="272" y="14" style="fill:currentColor">┐</text>
  <text id="t-1-0" x="0" y="30" style="fill:currentColor">│</text>
  <text id="t-1-1" x="8" y="30" style="fill:currentColor">╭</text>
  <text id="t-1-2" x="16" y="30" style="fill:currentColor">─</text>
  <text id="t-1-3" x="24" y="30" style="fill:currentColor">─</text>
  <text id="t-1-4" x="32" y="30" style="fill:currentColor">─</text>
  <text id="t-1-5" x="40" y="30" style="fill:currentColor">─</text>
  <text id="t-1-6" x="48" y="30" style="fill:currentColor">─</text>
  <text id="t-1-7" x="56" y="30" style="fill:currentColor">─</text>
  <text id="t-1-8" x="64" y="30" style="fill:currentColor">╮</text>
  <text id="t-1-9" x="72" y="30" style="fill:currentColor">╭</text>
  <text id="t-1-10" x="80" y="30" style="fill:currentColor">─</text>
  <text id="t-1-11" x="88" y="30" style="fill:currentColor">─</text>
  <text id="t-1-12" x="96" y="30" style="fill:currentColor">─</text>
  <text id="t-1-13" x="104" y="30" style="fill:currentColor">─</text>
  <text id="t-1-14" x="112" y="30" style="fill:currentColor">─</text>
  <text id="t-1-15" x="120" y="30" style="fill:currentColor">─</text>
  <text id="t-1-16" x="128" y="30" style="fill:currentColor">─</text>
  <text id="t-1-17" x="136" y="30" style="fill:currentColor">─</text>
  <text id="t-1-18" x="144" y="30" style="fill:currentColor">─</text>
  <text id="t-1-19" x="152" y="30" style="fill:currentColor">─</text>
  <text id="t-1-20" x="160" y="30" style="fill:currentColor">╮</text>
  <text id="t-1-21" x="168" y="30" style="fill:currentColor">╭</text>
  <text id="t-1-22" x="176" y="30" style="fill:currentColor">─</text>
  <text id="t-1-23" x="184" y="30" style="fill:currentColor">─</text>
  <text id="t-1-24" x="192" y="30" style="fill:currentColor">─</text>
  <text id="t-1-25" x="200" y="30" style="fill:currentColor">─</text>
  <text id="t-1-26" x="208" y="30" style="fill:currentColor">─</text>
  <text id="t-1-27" x="216" y="30" style="fill:currentColor">─</text>
  <text id="t-1-28" x="224" y="30" style="fill:currentColor">─</text>
  <text id="t-1-29" x="232" y="30" style="fill:currentColor">─</text>
  <text id="t-1-30" x="240" y="30" style="fill:currentColor">─</text>
  <text id="t-1-31" x="248" y="30" style="fill:currentColor">╮</text>
  <text id="t-1-34" x="272" y="30" style="fill:currentColor">│</text>
  <text id="t-2-0" x="0" y="46" style="fill:currentColor">│</text>
  <text id="t-2-1" x="8" y="46" style="fill:currentColor">│</text>
  <text id="t-2-4" x="32" y="46" style="fill:currentColor">O</text>
  <text id="t-2-5" x="40" y="46" style="fill:currentColor">K</text>
  <text id="t-2-8" x="64" y="46" style="fill:currentColor">│</text>
  <text id="t-2-9" x="72" y="46" style="fill:currentColor">│</text>
  <text id="t-2-12" x="96" y="46" style="fill:currentColor">C</text>
  <text id="t-2-13" x="104" y="46" style="fill:currentColor">a</text>
  <text id="t-2-14" x="112" y="46" style="fill:currentColor">n</text>
  <text id="t-2-15" x="120" y="46" style="fill:currentColor">c</text>
  <text id="t-2-16" x="128" y="46" style="fill:currentColor">e</text>
  <text id="t-2-17" x="136" y="46" style="fill:currentColor">l</text>
  <text id="t-2-20" x="160" y="46" style="fill:currentColor">│</text>
  <text id="t-2-21" x="168" y="46" style="fill:currentColor">│</text>
  <text id="t-2-24" x="192" y="46" style="fill:currentColor">A</text>
  <text id="t-2-25" x="200" y="46" style="fill:currentColor">p</text>
  <text id="t-2-26" x="208" y="46" style="fill:currentColor">p</text>
  <text id="t-2-27" x="216" y="46" style="fill:currentColor">l</text>
  <text id="t-2-28" x="224" y="46" style="fill:currentColor">y</text>
  <text id="t-2-31" x="248" y="46" style="fill:currentColor">│</text>
  <text id="t-2-34" x="272" y="46" style="fill:currentColor">│</text>
  <text id="t-3-0" x="0" y="62" style="fill:currentColor">│</text>
  <text id="t-3-1" x="8" y="62" style="fill:currentColor">╰</text>
  <text id="t-3-2" x="16" y="62" style="fill:currentColor">─</text>
  <text id="t-3-3" x="24" y="62" style="fill:currentColor">─</text>
  <text id="t-3-4" x="32" y="62" style="fill:currentColor">─</text>
  <text id="t-3-5" x="40" y="62" style="fill:currentColor">─</text>
  <text id="t-3-6" x="48" y="62" style="fill:currentColor">─</text>
  <text id="t-3-7" x="56" y="62" style="fill:currentColor">─</text>
  <text id="t-3-8" x="64" y="62" style="fill:currentColor">╯</text>
  <text id="t-3-9" x="72" y="62" style="fill:currentColor">╰</text>
  <text id="t-3-10" x="80" y="62" style="fill:currentColor">─</text>
  <text id="t-3-11" x="88" y="62" style="fill:currentColor">─</text>
  <text id="t-3-12" x="96" y="62" style="fill:currentColor">─</text>
  <text id="t-3-13" x="104" y="62" style="fill:currentColor">─</text>
  <text id="t-3-14" x="112" y="62" style="fill:currentColor">─</text>
  <text id="t-3-15" x="120" y="62" style="fill:currentColor">─</text>
  <text id="t-3-16" x="128" y="62" style="fill:currentColor">─</text>
  <text id="t-3-17" x="136" y="62" style="fill:currentColor">─</text>
  <text id="t-3-18" x="144" y="62" style="fill:currentColor">─</text>
  <text id="t-3-19" x="152" y="62" style="fill:currentColor">─</text>
  <text id="t-3-20" x="160" y="62" style="fill:currentColor">╯</text>
  <text id="t-3-21" x="168" y="62" style="fill:currentColor">╰</text>
  <text id="t-3-22" x="176" y="62" style="fill:currentColor">─</text>
  <text id="t-3-23" x="184" y="62" style="fill:currentColor">─</text>
  <text id="t-3-24" x="192" y="62" style="fill:currentColor">─</text>
  <text id="t-3-25" x="200" y="62" style="fill:currentColor">─</text>
  <text id="t-3-26" x="208" y="62" style="fill:currentColor">─</text>
  <text id="t-3-27" x="216" y="62" style="fill:currentColor">─</text>
  <text id="t-3-28" x="224" y="62" style="fill:currentColor">─</text>
  <text id="t-3-29" x="232" y="62" style="fill:currentColor">─</text>
  <text id="t-3-30" x="240" y="62" style="fill:currentColor">─</text>
  <text id="t-3-31" x="248" y="62" style="fill:currentColor">╯</text>
  <text id="t-3-34" x="272" y="62" style="fill:currentColor">│</text>
  <text id="t-4-0" x="0" y="78" style="fill:currentColor">└</text>
  <text id="t-4-1" x="8" y="78" style="fill:currentColor">─</text>
  <text id="t-4-2" x="16" y="78" style="fill:currentColor">─</text>
  <text id="t-4-3" x="24" y="78" style="fill:currentColor">─</text>
  <text id="t-4-4" x="32" y="78" style="fill:currentColor">─</text>
  <text id="t-4-5" x="40" y="78" style="fill:currentColor">─</text>
  <text id="t-4-6" x="48" y="78" style="fill:currentColor">─</text>
  <text id="t-4-7" x="56" y="78" style="fill:currentColor">─</text>
  <text id="t-4-8" x="64" y="78" style="fill:currentColor">─</text>
  <text id="t-4-9" x="72" y="78" style="fill:currentColor">─</text>
  <text id="t-4-10" x="80" y="78" style="fill:currentColor">─</text>
  <text id="t-4-11" x="88" y="78" style="fill:currentColor">─</text>
  <text id="t-4-12" x="96" y="78" style="fill:currentColor">─</text>
  <text id="t-4-13" x="104" y="78" style="fill:currentColor">─</text>
  <text id="t-4-14" x="112" y="78" style="fill:currentColor">─</text>
  <text id="t-4-15" x="120" y="78" style="fill:currentColor">─</text>
  <text id="t-4-16" x="128" y="78" style="fill:currentColor">─</text>
  <text id="t-4-17" x="136" y="78" style="fill:currentColor">─</text>
  <text id="t-4-18" x="144" y="78" style="fill:currentColor">─</text>
  <text id="t-4-19" x="152" y="78" style="fill:currentColor">─</text>
  <text id="t-4-20" x="160" y="78" style="fill:currentColor">─</text>
  <text id="t-4-21" x="168" y="78" style="fill:currentColor">─</text>
  <text id="t-4-22" x="176" y="78" style="fill:currentColor">─</text>
  <text id="t-4-23" x="184" y="78" style="fill:currentColor">─</text>
  <text id="t-4-24" x="192" y="78" style="fill:currentColor">─</text>
  <text id="t-4-25" x="200" y="78" style="fill:currentColor">─</text>
  <text id="t-4-26" x="208" y="78" style="fill:currentColor">─</text>
  <text id="t-4-27" x="216" y="78" style="fill:currentColor">─</text>
  <text id="t-4-28" x="224" y="78" style="fill:currentColor">─</text>
  <text id="t-4-29" x="232" y="78" style="fill:currentColor">─</text>
  <text id="t-4-30" x="240" y="78" style="fill:currentColor">─</text>
  <text id="t-4-31" x="248" y="78" style="fill:currentColor">─</text>
  <text id="t-4-32" x="256" y="78" style="fill:currentColor">─</text>
  <text id="t-4-33" x="264" y="78" style="fill:currentColor">─</text>
  <text id="t-4-34" x="272" y="78" style="fill:currentColor">┘</text>

  <rect id="box-54" x="0" y="0" width="480" height="16" fill="none" stroke="#3399ff" stroke-width="1"/>
  <rect id="box-56" x="0" y="16" width="480" height="16" fill="none" stroke="#3399ff" stroke-width="1"/>
  <rect id="box-58" x="0" y="32" width="480" height="16" fill="none" stroke="#3399ff" stroke-width="1"/>
  <rect id="box-60" x="0" y="48" width="480" height="16" fill="none" stroke="#3399ff" stroke-width="1"/>
  <rect id="box-62" x="0" y="64" width="480" height="16" fill="none" stroke="#3399ff" stroke-width="1"/>
  <rect id="dirty-0-0" x="0" y="0" width="280" height="16" fill="#ff0000" fill-opacity="0.2"/>
  <rect id="dirty-1-0" x="0" y="16" width="256" height="16" fill="#ff0000" fill-opacity="0.2"/>
  <rect id="dirty-1-34" x="272" y="16" width="8" height="16" fill="#ff0000" fill-opacity="0.2"/>
  <rect id="dirty-2-0" x="0" y="32" width="16" height="16" fill="#ff0000" fill-opacity="0.2"/>
  <rect id="dirty-2-4" x="32" y="32" width="16" height="16" fill="#ff0000" fill-opacity="0.2"/>
  <rect id="dirty-2-8" x="64" y="32" width="16" height="16" fill="#ff0000" fill-opacity="0.2"/>
  <rect id="dirty-2-12" x="96" y="32" width="48" height="16" fill="#ff0000" fill-opacity="0.2"/>
  <rect id="dirty-2-20" x="160" y="32" width="16" height="16" fill="#ff0000" fill-opacity="0.2"/>
  <rect id="dirty-2-24" x="192" y="32" width="40" height="16" fill="#ff0000" fill-opacity="0.2"/>
  <rect id="dirty-2-31" x="248" y="32" width="8" height="16" fill="#ff0000" fill-opacity="0.2"/>
  <rect id="dirty-2-34" x="272" y="32" width="8" height="16" fill="#ff0000" fill-opacity="0.2"/>
  <rect id="dirty-3-0" x="0" y="48" width="256" height="16" fill="#ff0000" fill-opacity="0.2"/>
  <rect id="dirty-3-34" x="272" y="48" width="8" height="16" fill="#ff0000" fill-opacity="0.2"/>
  <rect id="dirty-4-0" x="0" y="64" width="280" height="16" fill="#ff0000" fill-opacity="0.2"/>
</svg>
