<?xml version="1.0" encoding="UTF-8"?>
<svg xmlns="http://www.w3.org/2000/svg" width="320" height="288" viewBox="0 0 320 288" font-family="monospace" font-size="16">
  <rect id="bg-0-0" x="0" y="0" width="8" height="16" fill="#0000aa"/>
  <rect id="bg-0-1" x="8" y="0" width="16" height="16" fill="#0000aa"/>
  <text id="t-0-1" x="8" y="14" style="fill:#aaaaaa">⭐</text>
  <rect id="bg-0-3" x="24" y="0" width="8" height="16" fill="#0000aa"/>
  <rect id="bg-0-4" x="32" y="0" width="8" height="16" fill="#0000aa"/>
  <text id="t-0-4" x="32" y="14" style="fill:#aaaaaa">D</text>
  <rect id="bg-0-5" x="40" y="0" width="8" height="16" fill="#0000aa"/>
  <text id="t-0-5" x="40" y="14" style="fill:#aaaaaa">a</text>
  <rect id="bg-0-6" x="48" y="0" width="8" height="16" fill="#0000aa"/>
  <text id="t-0-6" x="48" y="14" style="fill:#aaaaaa">t</text>
  <rect id="bg-0-7" x="56" y="0" width="8" height="16" fill="#0000aa"/>
  <text id="t-0-7" x="56" y="14" style="fill:#aaaaaa">a</text>
  <rect id="bg-0-8" x="64" y="0" width="8" height="16" fill="#0000aa"/>
  <text id="t-0-8" x="64" y="14" style="fill:#aaaaaa">T</text>
  <rect id="bg-0-9" x="72" y="0" width="8" height="16" fill="#0000aa"/>
  <text id="t-0-9" x="72" y="14" style="fill:#aaaaaa">a</text>
  <rect id="bg-0-10" x="80" y="0" width="8" height="16" fill="#0000aa"/>
  <text id="t-0-10" x="80" y="14" style="fill:#aaaaaa">b</text>
  <rect id="bg-0-11" x="88" y="0" width="8" height="16" fill="#0000aa"/>
  <text id="t-0-11" x="88" y="14" style="fill:#aaaaaa">l</text>
  <rect id="bg-0-12" x="96" y="0" width="8" height="16" fill="#0000aa"/>
  <text id="t-0-12" x="96" y="14" style="fill:#aaaaaa">e</text>
  <rect id="bg-0-13" x="104" y="0" width="8" height="16" fill="#0000aa"/>
  <rect id="bg-0-14" x="112" y="0" width="8" height="16" fill="#0000aa"/>
  <text id="t-0-14" x="112" y="14" style="fill:#aaaaaa">D</text>
  <rect id="bg-0-15" x="120" y="0" width="8" height="16" fill="#0000aa"/>
  <text id="t-0-15" x="120" y="14" style="fill:#aaaaaa">e</text>
  <rect id="bg-0-16" x="128" y="0" width="8" height="16" fill="#0000aa"/>
  <text id="t-0-16" x="128" y="14" style="fill:#aaaaaa">m</text>
  <rect id="bg-0-17" x="136" y="0" width="8" height="16" fill="#0000aa"/>
  <text id="t-0-17" x="136" y="14" style="fill:#aaaaaa">o</text>
  <rect id="bg-0-18" x="144" y="0" width="8" height="16" fill="#0000aa"/>
  <rect id="bg-0-19" x="152" y="0" width="8" height="16" fill="#0000aa"/>
  <text id="t-0-19" x="152" y="14" style="fill:#aaaaaa">—</text>
  <rect id="bg-0-20" x="160" y="0" width="8" height="16" fill="#0000aa"/>
  <rect id="bg-0-21" x="168" y="0" width="8" height="16" fill="#0000aa"/>
  <text id="t-0-21" x="168" y="14" style="fill:#aaaaaa">1</text>
  <rect id="bg-0-22" x="176" y="0" width="8" height="16" fill="#0000aa"/>
  <text id="t-0-22" x="176" y="14" style="fill:#aaaaaa">0</text>
  <rect id="bg-0-23" x="184" y="0" width="8" height="16" fill="#0000aa"/>
  <text id="t-0-23" x="184" y="14" style="fill:#aaaaaa">0</text>
  <rect id="bg-0-24" x="192" y="0" width="8" height="16" fill="#0000aa"/>
  <text id="t-0-24" x="192" y="14" style="fill:#aaaaaa">0</text>
  <rect id="bg-0-25" x="200" y="0" width="8" height="16" fill="#0000aa"/>
  <rect id="bg-0-26" x="208" y="0" width="8" height="16" fill="#0000aa"/>
  <text id="t-0-26" x="208" y="14" style="fill:#aaaaaa">r</text>
  <rect id="bg-0-27" x="216" y="0" width="8" height="16" fill="#0000aa"/>
  <text id="t-0-27" x="216" y="14" style="fill:#aaaaaa">o</text>
  <rect id="bg-0-28" x="224" y="0" width="8" height="16" fill="#0000aa"/>
  <text id="t-0-28" x="224" y="14" style="fill:#aaaaaa">w</text>
  <rect id="bg-0-29" x="232" y="0" width="8" height="16" fill="#0000aa"/>
  <text id="t-0-29" x="232" y="14" style="fill:#aaaaaa">s</text>
  <rect id="bg-0-30" x="240" y="0" width="8" height="16" fill="#0000aa"/>
  <text id="t-0-30" x="240" y="14" style="fill:#aaaaaa">,</text>
  <rect id="bg-0-31" x="248" y="0" width="8" height="16" fill="#0000aa"/>
  <rect id="bg-0-32" x="256" y="0" width="8" height="16" fill="#0000aa"/>
  <text id="t-0-32" x="256" y="14" style="fill:#aaaaaa">v</text>
  <rect id="bg-0-33" x="264" y="0" width="8" height="16" fill="#0000aa"/>
  <text id="t-0-33" x="264" y="14" style="fill:#aaaaaa">i</text>
  <rect id="bg-0-34" x="272" y="0" width="8" height="16" fill="#0000aa"/>
  <text id="t-0-34" x="272" y="14" style="fill:#aaaaaa">r</text>
  <rect id="bg-0-35" x="280" y="0" width="8" height="16" fill="#0000aa"/>
  <text id="t-0-35" x="280" y="14" style="fill:#aaaaaa">t</text>
  <rect id="bg-0-36" x="288" y="0" width="8" height="16" fill="#0000aa"/>
  <text id="t-0-36" x="288" y="14" style="fill:#aaaaaa">u</text>
  <rect id="bg-0-37" x="296" y="0" width="8" height="16" fill="#0000aa"/>
  <rect id="bg-0-38" x="304" y="0" width="8" height="16" fill="#0000aa"/>
  <rect id="bg-0-39" x="312" y="0" width="8" height="16" fill="#0000aa"/>
  <text id="t-1-0" x="0" y="30" style="fill:currentColor">┌</text>
  <text id="t-1-1" x="8" y="30" style="fill:currentColor">─</text>
  <text id="t-1-2" x="16" y="30" style="fill:currentColor">─</text>
  <text id="t-1-3" x="24" y="30" style="fill:currentColor">─</text>
  <text id="t-1-4" x="32" y="30" style="fill:currentColor">─</text>
  <text id="t-1-5" x="40" y="30" style="fill:currentColor">─</text>
  <text id="t-1-6" x="48" y="30" style="fill:currentColor">─</text>
  <text id="t-1-7" x="56" y="30" style="fill:currentColor">─</text>
  <text id="t-1-8" x="64" y="30" style="fill:currentColor">─</text>
  <text id="t-1-9" x="72" y="30" style="fill:currentColor">─</text>
  <text id="t-1-10" x="80" y="30" style="fill:currentColor">─</text>
  <text id="t-1-11" x="88" y="30" style="fill:currentColor">─</text>
  <text id="t-1-12" x="96" y="30" style="fill:currentColor">─</text>
  <text id="t-1-13" x="104" y="30" style="fill:currentColor">─</text>
  <text id="t-1-14" x="112" y="30" style="fill:currentColor">─</text>
  <text id="t-1-15" x="120" y="30" style="fill:currentColor">─</text>
  <text id="t-1-16" x="128" y="30" style="fill:currentColor">─</text>
  <text id="t-1-17" x="136" y="30" style="fill:currentColor">─</text>
  <text id="t-1-18" x="144" y="30" style="fill:currentColor">─</text>
  <text id="t-1-19" x="152" y="30" style="fill:currentColor">─</text>
  <text id="t-1-20" x="160" y="30" style="fill:currentColor">─</text>
  <text id="t-1-21" x="168" y="30" style="fill:currentColor">─</text>
  <text id="t-1-22" x="176" y="30" style="fill:currentColor">─</text>
  <text id="t-1-23" x="184" y="30" style="fill:currentColor">─</text>
  <text id="t-1-24" x="192" y="30" style="fill:currentColor">─</text>
  <text id="t-1-25" x="200" y="30" style="fill:currentColor">─</text>
  <text id="t-1-26" x="208" y="30" style="fill:currentColor">─</text>
  <text id="t-1-27" x="216" y="30" style="fill:currentColor">─</text>
  <text id="t-1-28" x="224" y="30" style="fill:currentColor">┐</text>
  <text id="t-2-0" x="0" y="46" style="fill:currentColor">│</text>
  <text id="t-2-1" x="8" y="46" style="fill:currentColor">i</text>
  <text id="t-2-2" x="16" y="46" style="fill:currentColor">d</text>
  <text id="t-2-7" x="56" y="46" style="fill:currentColor">n</text>
  <text id="t-2-8" x="64" y="46" style="fill:currentColor">a</text>
  <text id="t-2-9" x="72" y="46" style="fill:currentColor">m</text>
  <text id="t-2-10" x="80" y="46" style="fill:currentColor">e</text>
  <text id="t-2-20" x="160" y="46" style="fill:currentColor">a</text>
  <text id="t-2-21" x="168" y="46" style="fill:currentColor">m</text>
  <text id="t-2-22" x="176" y="46" style="fill:currentColor">o</text>
  <text id="t-2-23" x="184" y="46" style="fill:currentColor">u</text>
  <text id="t-2-24" x="192" y="46" style="fill:currentColor">n</text>
  <text id="t-2-25" x="200" y="46" style="fill:currentColor">t</text>
  <text id="t-2-28" x="224" y="46" style="fill:currentColor">│</text>
  <text id="t-3-0" x="0" y="62" style="fill:currentColor">│</text>
  <text id="t-3-1" x="8" y="62" style="fill:currentColor">─</text>
  <text id="t-3-2" x="16" y="62" style="fill:currentColor">─</text>
  <text id="t-3-3" x="24" y="62" style="fill:currentColor">─</text>
  <text id="t-3-4" x="32" y="62" style="fill:currentColor">─</text>
  <text id="t-3-5" x="40" y="62" style="fill:currentColor">─</text>
  <text id="t-3-6" x="48" y="62" style="fill:currentColor">─</text>
  <text id="t-3-7" x="56" y="62" style="fill:currentColor">─</text>
  <text id="t-3-8" x="64" y="62" style="fill:currentColor">─</text>
  <text id="t-3-9" x="72" y="62" style="fill:currentColor">─</text>
  <text id="t-3-10" x="80" y="62" style="fill:currentColor">─</text>
  <text id="t-3-11" x="88" y="62" style="fill:currentColor">─</text>
  <text id="t-3-12" x="96" y="62" style="fill:currentColor">─</text>
  <text id="t-3-13" x="104" y="62" style="fill:currentColor">─</text>
  <text id="t-3-14" x="112" y="62" style="fill:currentColor">─</text>
  <text id="t-3-15" x="120" y="62" style="fill:currentColor">─</text>
  <text id="t-3-16" x="128" y="62" style="fill:currentColor">─</text>
  <text id="t-3-17" x="136" y="62" style="fill:currentColor">─</text>
  <text id="t-3-18" x="144" y="62" style="fill:currentColor">─</text>
  <text id="t-3-19" x="152" y="62" style="fill:currentColor">─</text>
  <text id="t-3-20" x="160" y="62" style="fill:currentColor">─</text>
  <text id="t-3-21" x="168" y="62" style="fill:currentColor">─</text>
  <text id="t-3-22" x="176" y="62" style="fill:currentColor">─</text>
  <text id="t-3-23" x="184" y="62" style="fill:currentColor">─</text>
  <text id="t-3-24" x="192" y="62" style="fill:currentColor">─</text>
  <text id="t-3-25" x="200" y="62" style="fill:currentColor">─</text>
  <text id="t-3-26" x="208" y="62" style="fill:currentColor">─</text>
  <text id="t-3-27" x="216" y="62" style="fill:currentColor">─</text>
  <text id="t-3-28" x="224" y="62" style="fill:currentColor">│</text>
  <text id="t-4-0" x="0" y="78" style="fill:currentColor">│</text>
  <text id="t-4-1" x="8" y="78" style="fill:currentColor">0</text>
  <text id="t-4-7" x="56" y="78" style="fill:currentColor">a</text>
  <text id="t-4-8" x="64" y="78" style="fill:currentColor">l</text>
  <text id="t-4-9" x="72" y="78" style="fill:currentColor">p</text>
  <text id="t-4-10" x="80" y="78" style="fill:currentColor">h</text>
  <text id="t-4-11" x="88" y="78" style="fill:currentColor">a</text>
  <text id="t-4-20" x="160" y="78" style="fill:currentColor">2</text>
  <text id="t-4-21" x="168" y="78" style="fill:currentColor">6</text>
  <text id="t-4-22" x="176" y="78" style="fill:currentColor">8</text>
  <text id="t-4-23" x="184" y="78" style="fill:currentColor">9</text>
  <text id="t-4-24" x="192" y="78" style="fill:currentColor">3</text>
  <text id="t-4-28" x="224" y="78" style="fill:currentColor">│</text>
  <text id="t-5-0" x="0" y="94" style="fill:currentColor">│</text>
  <text id="t-5-1" x="8" y="94" style="fill:currentColor">1</text>
  <text id="t-5-7" x="56" y="94" style="fill:currentColor">b</text>
  <text id="t-5-8" x="64" y="94" style="fill:currentColor">e</text>
  <text id="t-5-9" x="72" y="94" style="fill:currentColor">t</text>
  <text id="t-5-10" x="80" y="94" style="fill:currentColor">a</text>
  <text id="t-5-20" x="160" y="94" style="fill:currentColor">2</text>
  <text id="t-5-21" x="168" y="94" style="fill:currentColor">9</text>
  <text id="t-5-22" x="176" y="94" style="fill:currentColor">5</text>
  <text id="t-5-23" x="184" y="94" style="fill:currentColor">3</text>
  <text id="t-5-24" x="192" y="94" style="fill:currentColor">5</text>
  <text id="t-5-28" x="224" y="94" style="fill:currentColor">│</text>
  <text id="t-6-0" x="0" y="110" style="fill:currentColor">│</text>
  <text id="t-6-1" x="8" y="110" style="fill:currentColor">2</text>
  <text id="t-6-7" x="56" y="110" style="fill:currentColor">g</text>
  <text id="t-6-8" x="64" y="110" style="fill:currentColor">a</text>
  <text id="t-6-9" x="72" y="110" style="fill:currentColor">m</text>
  <text id="t-6-10" x="80" y="110" style="fill:currentColor">m</text>
  <text id="t-6-11" x="88" y="110" style="fill:currentColor">a</text>
  <text id="t-6-20" x="160" y="110" style="fill:currentColor">2</text>
  <text id="t-6-21" x="168" y="110" style="fill:currentColor">1</text>
  <text id="t-6-22" x="176" y="110" style="fill:currentColor">4</text>
  <text id="t-6-23" x="184" y="110" style="fill:currentColor">0</text>
  <text id="t-6-24" x="192" y="110" style="fill:currentColor">3</text>
  <text id="t-6-28" x="224" y="110" style="fill:currentColor">│</text>
  <text id="t-7-0" x="0" y="126" style="fill:currentColor">│</text>
  <text id="t-7-1" x="8" y="126" style="fill:currentColor">3</text>
  <text id="t-7-7" x="56" y="126" style="fill:currentColor">d</text>
  <text id="t-7-8" x="64" y="126" style="fill:currentColor">e</text>
  <text id="t-7-9" x="72" y="126" style="fill:currentColor">l</text>
  <text id="t-7-10" x="80" y="126" style="fill:currentColor">t</text>
  <text id="t-7-11" x="88" y="126" style="fill:currentColor">a</text>
  <text id="t-7-20" x="160" y="126" style="fill:currentColor">5</text>
  <text id="t-7-21" x="168" y="126" style="fill:currentColor">5</text>
  <text id="t-7-22" x="176" y="126" style="fill:currentColor">6</text>
  <text id="t-7-23" x="184" y="126" style="fill:currentColor">4</text>
  <text id="t-7-24" x="192" y="126" style="fill:currentColor">7</text>
  <text id="t-7-28" x="224" y="126" style="fill:currentColor">│</text>
  <text id="t-8-0" x="0" y="142" style="fill:currentColor">│</text>
  <text id="t-8-1" x="8" y="142" style="fill:currentColor">4</text>
  <text id="t-8-7" x="56" y="142" style="fill:currentColor">e</text>
  <text id="t-8-8" x="64" y="142" style="fill:currentColor">p</text>
  <text id="t-8-9" x="72" y="142" style="fill:currentColor">s</text>
  <text id="t-8-10" x="80" y="142" style="fill:currentColor">i</text>
  <text id="t-8-11" x="88" y="142" style="fill:currentColor">l</text>
  <text id="t-8-12" x="96" y="142" style="fill:currentColor">o</text>
  <text id="t-8-13" x="104" y="142" style="fill:currentColor">n</text>
  <text id="t-8-20" x="160" y="142" style="fill:currentColor">9</text>
  <text id="t-8-21" x="168" y="142" style="fill:currentColor">0</text>
  <text id="t-8-22" x="176" y="142" style="fill:currentColor">7</text>
  <text id="t-8-23" x="184" y="142" style="fill:currentColor">7</text>
  <text id="t-8-28" x="224" y="142" style="fill:currentColor">│</text>
  <text id="t-9-0" x="0" y="158" style="fill:currentColor">│</text>
  <text id="t-9-1" x="8" y="158" style="fill:currentColor">5</text>
  <text id="t-9-7" x="56" y="158" style="fill:currentColor">z</text>
  <text id="t-9-8" x="64" y="158" style="fill:currentColor">e</text>
  <text id="t-9-9" x="72" y="158" style="fill:currentColor">t</text>
  <text id="t-9-10" x="80" y="158" style="fill:currentColor">a</text>
  <text id="t-9-20" x="160" y="158" style="fill:currentColor">2</text>
  <text id="t-9-21" x="168" y="158" style="fill:currentColor">6</text>
  <text id="t-9-22" x="176" y="158" style="fill:currentColor">4</text>
  <text id="t-9-23" x="184" y="158" style="fill:currentColor">7</text>
  <text id="t-9-24" x="192" y="158" style="fill:currentColor">1</text>
  <text id="t-9-28" x="224" y="158" style="fill:currentColor">│</text>
  <text id="t-10-0" x="0" y="174" style="fill:currentColor">│</text>
  <text id="t-10-1" x="8" y="174" style="fill:currentColor">6</text>
  <text id="t-10-7" x="56" y="174" style="fill:currentColor">e</text>
  <text id="t-10-8" x="64" y="174" style="fill:currentColor">t</text>
  <text id="t-10-9" x="72" y="174" style="fill:currentColor">a</text>
  <text id="t-10-20" x="160" y="174" style="fill:currentColor">3</text>
  <text id="t-10-21" x="168" y="174" style="fill:currentColor">2</text>
  <text id="t-10-22" x="176" y="174" style="fill:currentColor">4</text>
  <text id="t-10-23" x="184" y="174" style="fill:currentColor">6</text>
  <text id="t-10-24" x="192" y="174" style="fill:currentColor">1</text>
  <text id="t-10-28" x="224" y="174" style="fill:currentColor">│</text>
  <text id="t-11-0" x="0" y="190" style="fill:currentColor">│</text>
  <text id="t-11-1" x="8" y="190" style="fill:currentColor">7</text>
  <text id="t-11-7" x="56" y="190" style="fill:currentColor">t</text>
  <text id="t-11-8" x="64" y="190" style="fill:currentColor">h</text>
  <text id="t-11-9" x="72" y="190" style="fill:currentColor">e</text>
  <text id="t-11-10" x="80" y="190" style="fill:currentColor">t</text>
  <text id="t-11-11" x="88" y="190" style="fill:currentColor">a</text>
  <text id="t-11-20" x="160" y="190" style="fill:currentColor">5</text>
  <text id="t-11-21" x="168" y="190" style="fill:currentColor">3</text>
  <text id="t-11-22" x="176" y="190" style="fill:currentColor">6</text>
  <text id="t-11-23" x="184" y="190" style="fill:currentColor">3</text>
  <text id="t-11-24" x="192" y="190" style="fill:currentColor">8</text>
  <text id="t-11-28" x="224" y="190" style="fill:currentColor">│</text>
  <text id="t-12-0" x="0" y="206" style="fill:currentColor">│</text>
  <text id="t-12-1" x="8" y="206" style="fill:currentColor">8</text>
  <text id="t-12-7" x="56" y="206" style="fill:currentColor">i</text>
  <text id="t-12-8" x="64" y="206" style="fill:currentColor">o</text>
  <text id="t-12-9" x="72" y="206" style="fill:currentColor">t</text>
  <text id="t-12-10" x="80" y="206" style="fill:currentColor">a</text>
  <text id="t-12-20" x="160" y="206" style="fill:currentColor">5</text>
  <text id="t-12-21" x="168" y="206" style="fill:currentColor">8</text>
  <text id="t-12-22" x="176" y="206" style="fill:currentColor">1</text>
  <text id="t-12-23" x="184" y="206" style="fill:currentColor">0</text>
  <text id="t-12-24" x="192" y="206" style="fill:currentColor">2</text>
  <text id="t-12-28" x="224" y="206" style="fill:currentColor">│</text>
  <text id="t-13-0" x="0" y="222" style="fill:currentColor">│</text>
  <text id="t-13-1" x="8" y="222" style="fill:currentColor">9</text>
  <text id="t-13-7" x="56" y="222" style="fill:currentColor">k</text>
  <text id="t-13-8" x="64" y="222" style="fill:currentColor">a</text>
  <text id="t-13-9" x="72" y="222" style="fill:currentColor">p</text>
  <text id="t-13-10" x="80" y="222" style="fill:currentColor">p</text>
  <text id="t-13-11" x="88" y="222" style="fill:currentColor">a</text>
  <text id="t-13-20" x="160" y="222" style="fill:currentColor">5</text>
  <text id="t-13-21" x="168" y="222" style="fill:currentColor">9</text>
  <text id="t-13-22" x="176" y="222" style="fill:currentColor">5</text>
  <text id="t-13-23" x="184" y="222" style="fill:currentColor">3</text>
  <text id="t-13-24" x="192" y="222" style="fill:currentColor">6</text>
  <text id="t-13-28" x="224" y="222" style="fill:currentColor">│</text>
  <text id="t-14-0" x="0" y="238" style="fill:currentColor">│</text>
  <text id="t-14-1" x="8" y="238" style="fill:currentColor">1</text>
  <text id="t-14-2" x="16" y="238" style="fill:currentColor">0</text>
  <text id="t-14-7" x="56" y="238" style="fill:currentColor">a</text>
  <text id="t-14-8" x="64" y="238" style="fill:currentColor">l</text>
  <text id="t-14-9" x="72" y="238" style="fill:currentColor">p</text>
  <text id="t-14-10" x="80" y="238" style="fill:currentColor">h</text>
  <text id="t-14-11" x="88" y="238" style="fill:currentColor">a</text>
  <text id="t-14-20" x="160" y="238" style="fill:currentColor">1</text>
  <text id="t-14-21" x="168" y="238" style="fill:currentColor">8</text>
  <text id="t-14-22" x="176" y="238" style="fill:currentColor">7</text>
  <text id="t-14-23" x="184" y="238" style="fill:currentColor">3</text>
  <text id="t-14-24" x="192" y="238" style="fill:currentColor">1</text>
  <text id="t-14-28" x="224" y="238" style="fill:currentColor">│</text>
  <text id="t-15-0" x="0" y="254" style="fill:currentColor">│</text>
  <text id="t-15-1" x="8" y="254" style="fill:currentColor">1</text>
  <text id="t-15-2" x="16" y="254" style="fill:currentColor">1</text>
  <text id="t-15-7" x="56" y="254" style="fill:currentColor">b</text>
  <text id="t-15-8" x="64" y="254" style="fill:currentColor">e</text>
  <text id="t-15-9" x="72" y="254" style="fill:currentColor">t</text>
  <text id="t-15-10" x="80" y="254" style="fill:currentColor">a</text>
  <text id="t-15-20" x="160" y="254" style="fill:currentColor">6</text>
  <text id="t-15-21" x="168" y="254" style="fill:currentColor">0</text>
  <text id="t-15-22" x="176" y="254" style="fill:currentColor">7</text>
  <text id="t-15-23" x="184" y="254" style="fill:currentColor">5</text>
  <text id="t-15-24" x="192" y="254" style="fill:currentColor">1</text>
  <text id="t-15-28" x="224" y="254" style="fill:currentColor">│</text>
  <text id="t-16-0" x="0" y="270" style="fill:currentColor">│</text>
  <text id="t-16-1" x="8" y="270" style="fill:currentColor">1</text>
  <text id="t-16-2" x="16" y="270" style="fill:currentColor">2</text>
  <text id="t-16-7" x="56" y="270" style="fill:currentColor">g</text>
  <text id="t-16-8" x="64" y="270" style="fill:currentColor">a</text>
  <text id="t-16-9" x="72" y="270" style="fill:currentColor">m</text>
  <text id="t-16-10" x="80" y="270" style="fill:currentColor">m</text>
  <text id="t-16-11" x="88" y="270" style="fill:currentColor">a</text>
  <text id="t-16-20" x="160" y="270" style="fill:currentColor">1</text>
  <text id="t-16-21" x="168" y="270" style="fill:currentColor">7</text>
  <text id="t-16-22" x="176" y="270" style="fill:currentColor">3</text>
  <text id="t-16-23" x="184" y="270" style="fill:currentColor">4</text>
  <text id="t-16-24" x="192" y="270" style="fill:currentColor">3</text>
  <text id="t-16-28" x="224" y="270" style="fill:currentColor">│</text>
  <text id="t-17-0" x="0" y="286" style="fill:currentColor">│</text>
  <text id="t-17-1" x="8" y="286" style="fill:currentColor">1</text>
  <text id="t-17-2" x="16" y="286" style="fill:currentColor">3</text>
  <text id="t-17-7" x="56" y="286" style="fill:currentColor">d</text>
  <text id="t-17-8" x="64" y="286" style="fill:currentColor">e</text>
  <text id="t-17-9" x="72" y="286" style="fill:currentColor">l</text>
  <text id="t-17-10" x="80" y="286" style="fill:currentColor">t</text>
  <text id="t-17-11" x="88" y="286" style="fill:currentColor">a</text>
  <text id="t-17-20" x="160" y="286" style="fill:currentColor">1</text>
  <text id="t-17-21" x="168" y="286" style="fill:currentColor">7</text>
  <text id="t-17-22" x="176" y="286" style="fill:currentColor">8</text>
  <text id="t-17-23" x="184" y="286" style="fill:currentColor">5</text>
  <text id="t-17-24" x="192" y="286" style="fill:currentColor">5</text>
  <text id="t-17-28" x="224" y="286" style="fill:currentColor">│</text>

  <rect id="box-3" x="0" y="0" width="320" height="16" fill="none" stroke="#3399ff" stroke-width="1"/>
  <rect id="box-7" x="0" y="16" width="320" height="16" fill="none" stroke="#3399ff" stroke-width="1"/>
  <rect id="box-6" x="0" y="32" width="320" height="16" fill="none" stroke="#3399ff" stroke-width="1"/>
  <rect id="box-10" x="0" y="48" width="320" height="16" fill="none" stroke="#3399ff" stroke-width="1"/>
  <rect id="box-12" x="0" y="64" width="320" height="16" fill="none" stroke="#3399ff" stroke-width="1"/>
  <rect id="box-14" x="0" y="80" width="320" height="16" fill="none" stroke="#3399ff" stroke-width="1"/>
  <rect id="box-16" x="0" y="96" width="320" height="16" fill="none" stroke="#3399ff" stroke-width="1"/>
  <rect id="box-18" x="0" y="112" width="320" height="16" fill="none" stroke="#3399ff" stroke-width="1"/>
  <rect id="box-20" x="0" y="128" width="320" height="16" fill="none" stroke="#3399ff" stroke-width="1"/>
  <rect id="box-22" x="0" y="144" width="320" height="16" fill="none" stroke="#3399ff" stroke-width="1"/>
  <rect id="box-24" x="0" y="160" width="320" height="16" fill="none" stroke="#3399ff" stroke-width="1"/>
  <rect id="box-26" x="0" y="176" width="320" height="16" fill="none" stroke="#3399ff" stroke-width="1"/>
  <rect id="box-28" x="0" y="192" width="320" height="16" fill="none" stroke="#3399ff" stroke-width="1"/>
  <rect id="box-30" x="0" y="208" width="320" height="16" fill="none" stroke="#3399ff" stroke-width="1"/>
  <rect id="box-32" x="0" y="224" width="320" height="16" fill="none" stroke="#3399ff" stroke-width="1"/>
  <rect id="box-34" x="0" y="240" width="320" height="16" fill="none" stroke="#3399ff" stroke-width="1"/>
  <rect id="box-36" x="0" y="256" width="320" height="16" fill="none" stroke="#3399ff" stroke-width="1"/>
  <rect id="box-38" x="0" y="272" width="320" height="16" fill="none" stroke="#3399ff" stroke-width="1"/>
  <rect id="box-40" x="0" y="288" width="320" height="16" fill="none" stroke="#3399ff" stroke-width="1"/>
</svg>
