<?xml version="1.0" encoding="UTF-8"?>
<svg xmlns="http://www.w3.org/2000/svg" width="320" height="160" viewBox="0 0 320 160" font-family="monospace" font-size="16">
  <text id="t-0-0" x="0" y="14" style="fill:currentColor">┌</text>
  <text id="t-0-1" x="8" y="14" style="fill:currentColor">─</text>
  <text id="t-0-2" x="16" y="14" style="fill:currentColor">─</text>
  <text id="t-0-3" x="24" y="14" style="fill:currentColor">─</text>
  <text id="t-0-4" x="32" y="14" style="fill:currentColor">─</text>
  <text id="t-0-5" x="40" y="14" style="fill:currentColor">─</text>
  <text id="t-0-6" x="48" y="14" style="fill:currentColor">─</text>
  <text id="t-0-7" x="56" y="14" style="fill:currentColor">─</text>
  <text id="t-0-8" x="64" y="14" style="fill:currentColor">─</text>
  <text id="t-0-9" x="72" y="14" style="fill:currentColor">─</text>
  <text id="t-0-10" x="80" y="14" style="fill:currentColor">─</text>
  <text id="t-0-11" x="88" y="14" style="fill:currentColor">┐</text>
  <text id="t-1-0" x="0" y="30" style="fill:currentColor">│</text>
  <text id="t-1-1" x="8" y="30" style="fill:currentColor">p</text>
  <text id="t-1-2" x="16" y="30" style="fill:currentColor">a</text>
  <text id="t-1-3" x="24" y="30" style="fill:currentColor">d</text>
  <text id="t-1-4" x="32" y="30" style="fill:currentColor">d</text>
  <text id="t-1-5" x="40" y="30" style="fill:currentColor">e</text>
  <text id="t-1-6" x="48" y="30" style="fill:currentColor">d</text>
  <text id="t-1-11" x="88" y="30" style="fill:currentColor">│</text>
  <text id="t-2-0" x="0" y="46" style="fill:currentColor">└</text>
  <text id="t-2-1" x="8" y="46" style="fill:currentColor">─</text>
  <text id="t-2-2" x="16" y="46" style="fill:currentColor">─</text>
  <text id="t-2-3" x="24" y="46" style="fill:currentColor">─</text>
  <text id="t-2-4" x="32" y="46" style="fill:currentColor">─</text>
  <text id="t-2-5" x="40" y="46" style="fill:currentColor">─</text>
  <text id="t-2-6" x="48" y="46" style="fill:currentColor">─</text>
  <text id="t-2-7" x="56" y="46" style="fill:currentColor">─</text>
  <text id="t-2-8" x="64" y="46" style="fill:currentColor">─</text>
  <text id="t-2-9" x="72" y="46" style="fill:currentColor">─</text>
  <text id="t-2-10" x="80" y="46" style="fill:currentColor">─</text>
  <text id="t-2-11" x="88" y="46" style="fill:currentColor">┘</text>
  <text id="t-3-0" x="0" y="62" style="fill:currentColor">┌</text>
  <text id="t-3-1" x="8" y="62" style="fill:currentColor">─</text>
  <text id="t-3-2" x="16" y="62" style="fill:currentColor">─</text>
  <text id="t-3-3" x="24" y="62" style="fill:currentColor">─</text>
  <text id="t-3-4" x="32" y="62" style="fill:currentColor">─</text>
  <text id="t-3-5" x="40" y="62" style="fill:currentColor">─</text>
  <text id="t-3-6" x="48" y="62" style="fill:currentColor">─</text>
  <text id="t-3-7" x="56" y="62" style="fill:currentColor">─</text>
  <text id="t-3-8" x="64" y="62" style="fill:currentColor">─</text>
  <text id="t-3-9" x="72" y="62" style="fill:currentColor">─</text>
  <text id="t-3-10" x="80" y="62" style="fill:currentColor">─</text>
  <text id="t-3-11" x="88" y="62" style="fill:currentColor">─</text>
  <text id="t-3-12" x="96" y="62" style="fill:currentColor">─</text>
  <text id="t-3-13" x="104" y="62" style="fill:currentColor">─</text>
  <text id="t-3-14" x="112" y="62" style="fill:currentColor">─</text>
  <text id="t-3-15" x="120" y="62" style="fill:currentColor">─</text>
  <text id="t-3-16" x="128" y="62" style="fill:currentColor">─</text>
  <text id="t-3-17" x="136" y="62" style="fill:currentColor">─</text>
  <text id="t-3-18" x="144" y="62" style="fill:currentColor">─</text>
  <text id="t-3-19" x="152" y="62" style="fill:currentColor">─</text>
  <text id="t-3-20" x="160" y="62" style="fill:currentColor">─</text>
  <text id="t-3-21" x="168" y="62" style="fill:currentColor">┐</text>
  <text id="t-4-0" x="0" y="78" style="fill:currentColor">│</text>
  <text id="t-4-1" x="8" y="78" style="fill:currentColor">p</text>
  <text id="t-4-2" x="16" y="78" style="fill:currentColor">a</text>
  <text id="t-4-3" x="24" y="78" style="fill:currentColor">d</text>
  <text id="t-4-4" x="32" y="78" style="fill:currentColor">d</text>
  <text id="t-4-5" x="40" y="78" style="fill:currentColor">e</text>
  <text id="t-4-6" x="48" y="78" style="fill:currentColor">d</text>
  <text id="t-4-21" x="168" y="78" style="fill:currentColor">│</text>
  <text id="t-5-0" x="0" y="94" style="fill:currentColor">└</text>
  <text id="t-5-1" x="8" y="94" style="fill:currentColor">─</text>
  <text id="t-5-2" x="16" y="94" style="fill:currentColor">─</text>
  <text id="t-5-3" x="24" y="94" style="fill:currentColor">─</text>
  <text id="t-5-4" x="32" y="94" style="fill:currentColor">─</text>
  <text id="t-5-5" x="40" y="94" style="fill:currentColor">─</text>
  <text id="t-5-6" x="48" y="94" style="fill:currentColor">─</text>
  <text id="t-5-7" x="56" y="94" style="fill:currentColor">─</text>
  <text id="t-5-8" x="64" y="94" style="fill:currentColor">─</text>
  <text id="t-5-9" x="72" y="94" style="fill:currentColor">─</text>
  <text id="t-5-10" x="80" y="94" style="fill:currentColor">─</text>
  <text id="t-5-11" x="88" y="94" style="fill:currentColor">─</text>
  <text id="t-5-12" x="96" y="94" style="fill:currentColor">─</text>
  <text id="t-5-13" x="104" y="94" style="fill:currentColor">─</text>
  <text id="t-5-14" x="112" y="94" style="fill:currentColor">─</text>
  <text id="t-5-15" x="120" y="94" style="fill:currentColor">─</text>
  <text id="t-5-16" x="128" y="94" style="fill:currentColor">─</text>
  <text id="t-5-17" x="136" y="94" style="fill:currentColor">─</text>
  <text id="t-5-18" x="144" y="94" style="fill:currentColor">─</text>
  <text id="t-5-19" x="152" y="94" style="fill:currentColor">─</text>
  <text id="t-5-20" x="160" y="94" style="fill:currentColor">─</text>
  <text id="t-5-21" x="168" y="94" style="fill:currentColor">┘</text>
  <text id="t-6-0" x="0" y="110" style="fill:currentColor">┌</text>
  <text id="t-6-1" x="8" y="110" style="fill:currentColor">─</text>
  <text id="t-6-2" x="16" y="110" style="fill:currentColor">─</text>
  <text id="t-6-3" x="24" y="110" style="fill:currentColor">─</text>
  <text id="t-6-4" x="32" y="110" style="fill:currentColor">─</text>
  <text id="t-6-5" x="40" y="110" style="fill:currentColor">─</text>
  <text id="t-6-6" x="48" y="110" style="fill:currentColor">─</text>
  <text id="t-6-7" x="56" y="110" style="fill:currentColor">─</text>
  <text id="t-6-8" x="64" y="110" style="fill:currentColor">─</text>
  <text id="t-6-9" x="72" y="110" style="fill:currentColor">─</text>
  <text id="t-6-10" x="80" y="110" style="fill:currentColor">─</text>
  <text id="t-6-11" x="88" y="110" style="fill:currentColor">─</text>
  <text id="t-6-12" x="96" y="110" style="fill:currentColor">─</text>
  <text id="t-6-13" x="104" y="110" style="fill:currentColor">─</text>
  <text id="t-6-14" x="112" y="110" style="fill:currentColor">─</text>
  <text id="t-6-15" x="120" y="110" style="fill:currentColor">─</text>
  <text id="t-6-16" x="128" y="110" style="fill:currentColor">─</text>
  <text id="t-6-17" x="136" y="110" style="fill:currentColor">─</text>
  <text id="t-6-18" x="144" y="110" style="fill:currentColor">─</text>
  <text id="t-6-19" x="152" y="110" style="fill:currentColor">─</text>
  <text id="t-6-20" x="160" y="110" style="fill:currentColor">─</text>
  <text id="t-6-21" x="168" y="110" style="fill:currentColor">─</text>
  <text id="t-6-22" x="176" y="110" style="fill:currentColor">─</text>
  <text id="t-6-23" x="184" y="110" style="fill:currentColor">─</text>
  <text id="t-6-24" x="192" y="110" style="fill:currentColor">─</text>
  <text id="t-6-25" x="200" y="110" style="fill:currentColor">─</text>
  <text id="t-6-26" x="208" y="110" style="fill:currentColor">─</text>
  <text id="t-6-27" x="216" y="110" style="fill:currentColor">─</text>
  <text id="t-6-28" x="224" y="110" style="fill:currentColor">─</text>
  <text id="t-6-29" x="232" y="110" style="fill:currentColor">─</text>
  <text id="t-6-30" x="240" y="110" style="fill:currentColor">─</text>
  <text id="t-6-31" x="248" y="110" style="fill:currentColor">┐</text>
  <text id="t-7-0" x="0" y="126" style="fill:currentColor">│</text>
  <text id="t-7-1" x="8" y="126" style="fill:currentColor">p</text>
  <text id="t-7-2" x="16" y="126" style="fill:currentColor">a</text>
  <text id="t-7-3" x="24" y="126" style="fill:currentColor">d</text>
  <text id="t-7-4" x="32" y="126" style="fill:currentColor">d</text>
  <text id="t-7-5" x="40" y="126" style="fill:currentColor">e</text>
  <text id="t-7-6" x="48" y="126" style="fill:currentColor">d</text>
  <text id="t-7-31" x="248" y="126" style="fill:currentColor">│</text>
  <text id="t-8-0" x="0" y="142" style="fill:currentColor">└</text>
  <text id="t-8-1" x="8" y="142" style="fill:currentColor">─</text>
  <text id="t-8-2" x="16" y="142" style="fill:currentColor">─</text>
  <text id="t-8-3" x="24" y="142" style="fill:currentColor">─</text>
  <text id="t-8-4" x="32" y="142" style="fill:currentColor">─</text>
  <text id="t-8-5" x="40" y="142" style="fill:currentColor">─</text>
  <text id="t-8-6" x="48" y="142" style="fill:currentColor">─</text>
  <text id="t-8-7" x="56" y="142" style="fill:currentColor">─</text>
  <text id="t-8-8" x="64" y="142" style="fill:currentColor">─</text>
  <text id="t-8-9" x="72" y="142" style="fill:currentColor">─</text>
  <text id="t-8-10" x="80" y="142" style="fill:currentColor">─</text>
  <text id="t-8-11" x="88" y="142" style="fill:currentColor">─</text>
  <text id="t-8-12" x="96" y="142" style="fill:currentColor">─</text>
  <text id="t-8-13" x="104" y="142" style="fill:currentColor">─</text>
  <text id="t-8-14" x="112" y="142" style="fill:currentColor">─</text>
  <text id="t-8-15" x="120" y="142" style="fill:currentColor">─</text>
  <text id="t-8-16" x="128" y="142" style="fill:currentColor">─</text>
  <text id="t-8-17" x="136" y="142" style="fill:currentColor">─</text>
  <text id="t-8-18" x="144" y="142" style="fill:currentColor">─</text>
  <text id="t-8-19" x="152" y="142" style="fill:currentColor">─</text>
  <text id="t-8-20" x="160" y="142" style="fill:currentColor">─</text>
  <text id="t-8-21" x="168" y="142" style="fill:currentColor">─</text>
  <text id="t-8-22" x="176" y="142" style="fill:currentColor">─</text>
  <text id="t-8-23" x="184" y="142" style="fill:currentColor">─</text>
  <text id="t-8-24" x="192" y="142" style="fill:currentColor">─</text>
  <text id="t-8-25" x="200" y="142" style="fill:currentColor">─</text>
  <text id="t-8-26" x="208" y="142" style="fill:currentColor">─</text>
  <text id="t-8-27" x="216" y="142" style="fill:currentColor">─</text>
  <text id="t-8-28" x="224" y="142" style="fill:currentColor">─</text>
  <text id="t-8-29" x="232" y="142" style="fill:currentColor">─</text>
  <text id="t-8-30" x="240" y="142" style="fill:currentColor">─</text>
  <text id="t-8-31" x="248" y="142" style="fill:currentColor">┘</text>

  <rect id="box-84" x="0" y="0" width="320" height="16" fill="none" stroke="#3399ff" stroke-width="1"/>
  <rect id="box-86" x="0" y="16" width="320" height="16" fill="none" stroke="#3399ff" stroke-width="1"/>
  <rect id="box-88" x="0" y="32" width="320" height="16" fill="none" stroke="#3399ff" stroke-width="1"/>
  <rect id="box-90" x="0" y="48" width="320" height="16" fill="none" stroke="#3399ff" stroke-width="1"/>
  <rect id="box-92" x="0" y="64" width="320" height="16" fill="none" stroke="#3399ff" stroke-width="1"/>
  <rect id="box-94" x="0" y="80" width="320" height="16" fill="none" stroke="#3399ff" stroke-width="1"/>
  <rect id="box-96" x="0" y="96" width="320" height="16" fill="none" stroke="#3399ff" stroke-width="1"/>
  <rect id="box-98" x="0" y="112" width="320" height="16" fill="none" stroke="#3399ff" stroke-width="1"/>
  <rect id="box-100" x="0" y="128" width="320" height="16" fill="none" stroke="#3399ff" stroke-width="1"/>
  <rect id="box-102" x="0" y="144" width="320" height="16" fill="none" stroke="#3399ff" stroke-width="1"/>
  <rect id="dirty-0-0" x="0" y="0" width="96" height="16" fill="#ff0000" fill-opacity="0.2"/>
  <rect id="dirty-1-0" x="0" y="16" width="56" height="16" fill="#ff0000" fill-opacity="0.2"/>
  <rect id="dirty-1-11" x="88" y="16" width="8" height="16" fill="#ff0000" fill-opacity="0.2"/>
  <rect id="dirty-2-0" x="0" y="32" width="96" height="16" fill="#ff0000" fill-opacity="0.2"/>
  <rect id="dirty-3-0" x="0" y="48" width="176" height="16" fill="#ff0000" fill-opacity="0.2"/>
  <rect id="dirty-4-0" x="0" y="64" width="56" height="16" fill="#ff0000" fill-opacity="0.2"/>
  <rect id="dirty-4-21" x="168" y="64" width="8" height="16" fill="#ff0000" fill-opacity="0.2"/>
  <rect id="dirty-5-0" x="0" y="80" width="176" height="16" fill="#ff0000" fill-opacity="0.2"/>
  <rect id="dirty-6-0" x="0" y="96" width="256" height="16" fill="#ff0000" fill-opacity="0.2"/>
  <rect id="dirty-7-0" x="0" y="112" width="56" height="16" fill="#ff0000" fill-opacity="0.2"/>
  <rect id="dirty-7-31" x="248" y="112" width="8" height="16" fill="#ff0000" fill-opacity="0.2"/>
  <rect id="dirty-8-0" x="0" y="128" width="256" height="16" fill="#ff0000" fill-opacity="0.2"/>
</svg>
