<?xml version="1.0" encoding="UTF-8"?>
<svg xmlns="http://www.w3.org/2000/svg" width="400" height="80" viewBox="0 0 400 80" font-family="monospace" font-size="16">
  <text id="t-0-0" x="0" y="14" style="fill:currentColor">┌</text>
  <text id="t-0-1" x="8" y="14" style="fill:currentColor">─</text>
  <text id="t-0-2" x="16" y="14" style="fill:currentColor">─</text>
  <text id="t-0-3" x="24" y="14" style="fill:currentColor">─</text>
  <text id="t-0-4" x="32" y="14" style="fill:currentColor">─</text>
  <text id="t-0-5" x="40" y="14" style="fill:currentColor">─</text>
  <text id="t-0-6" x="48" y="14" style="fill:currentColor">─</text>
  <text id="t-0-7" x="56" y="14" style="fill:currentColor">─</text>
  <text id="t-0-8" x="64" y="14" style="fill:currentColor">─</text>
  <text id="t-0-9" x="72" y="14" style="fill:currentColor">─</text>
  <text id="t-0-10" x="80" y="14" style="fill:currentColor">─</text>
  <text id="t-0-11" x="88" y="14" style="fill:currentColor">─</text>
  <text id="t-0-12" x="96" y="14" style="fill:currentColor">─</text>
  <text id="t-0-13" x="104" y="14" style="fill:currentColor">─</text>
  <text id="t-0-14" x="112" y="14" style="fill:currentColor">─</text>
  <text id="t-0-15" x="120" y="14" style="fill:currentColor">─</text>
  <text id="t-0-16" x="128" y="14" style="fill:currentColor">─</text>
  <text id="t-0-17" x="136" y="14" style="fill:currentColor">─</text>
  <text id="t-0-18" x="144" y="14" style="fill:currentColor">─</text>
  <text id="t-0-19" x="152" y="14" style="fill:currentColor">─</text>
  <text id="t-0-20" x="160" y="14" style="fill:currentColor">─</text>
  <text id="t-0-21" x="168" y="14" style="fill:currentColor">─</text>
  <text id="t-0-22" x="176" y="14" style="fill:currentColor">─</text>
  <text id="t-0-23" x="184" y="14" style="fill:currentColor">─</text>
  <text id="t-0-24" x="192" y="14" style="fill:currentColor">─</text>
  <text id="t-0-25" x="200" y="14" style="fill:currentColor">─</text>
  <text id="t-0-26" x="208" y="14" style="fill:currentColor">─</text>
  <text id="t-0-27" x="216" y="14" style="fill:currentColor">─</text>
  <text id="t-0-28" x="224" y="14" style="fill:currentColor">─</text>
  <text id="t-0-29" x="232" y="14" style="fill:currentColor">─</text>
  <text id="t-0-30" x="240" y="14" style="fill:currentColor">─</text>
  <text id="t-0-31" x="248" y="14" style="fill:currentColor">─</text>
  <text id="t-0-32" x="256" y="14" style="fill:currentColor">─</text>
  <text id="t-0-33" x="264" y="14" style="fill:currentColor">┐</text>
  <text id="t-1-0" x="0" y="30" style="fill:currentColor">│</text>
  <text id="t-1-1" x="8" y="30" style="fill:currentColor">a</text>
  <text id="t-1-2" x="16" y="30" style="fill:currentColor">l</text>
  <text id="t-1-3" x="24" y="30" style="fill:currentColor">p</text>
  <text id="t-1-4" x="32" y="30" style="fill:currentColor">h</text>
  <text id="t-1-5" x="40" y="30" style="fill:currentColor">a</text>
  <text id="t-1-11" x="88" y="30" style="fill:currentColor">b</text>
  <text id="t-1-12" x="96" y="30" style="fill:currentColor">e</text>
  <text id="t-1-13" x="104" y="30" style="fill:currentColor">t</text>
  <text id="t-1-14" x="112" y="30" style="fill:currentColor">a</text>
  <text id="t-1-21" x="168" y="30" style="fill:currentColor">g</text>
  <text id="t-1-22" x="176" y="30" style="fill:currentColor">a</text>
  <text id="t-1-23" x="184" y="30" style="fill:currentColor">m</text>
  <text id="t-1-24" x="192" y="30" style="fill:currentColor">m</text>
  <text id="t-1-25" x="200" y="30" style="fill:currentColor">a</text>
  <text id="t-1-33" x="264" y="30" style="fill:currentColor">│</text>
  <text id="t-2-0" x="0" y="46" style="fill:currentColor">│</text>
  <text id="t-2-33" x="264" y="46" style="fill:currentColor">│</text>
  <text id="t-3-0" x="0" y="62" style="fill:currentColor">│</text>
  <text id="t-3-33" x="264" y="62" style="fill:currentColor">│</text>
  <text id="t-4-0" x="0" y="78" style="fill:currentColor">└</text>
  <text id="t-4-1" x="8" y="78" style="fill:currentColor">─</text>
  <text id="t-4-2" x="16" y="78" style="fill:currentColor">─</text>
  <text id="t-4-3" x="24" y="78" style="fill:currentColor">─</text>
  <text id="t-4-4" x="32" y="78" style="fill:currentColor">─</text>
  <text id="t-4-5" x="40" y="78" style="fill:currentColor">─</text>
  <text id="t-4-6" x="48" y="78" style="fill:currentColor">─</text>
  <text id="t-4-7" x="56" y="78" style="fill:currentColor">─</text>
  <text id="t-4-8" x="64" y="78" style="fill:currentColor">─</text>
  <text id="t-4-9" x="72" y="78" style="fill:currentColor">─</text>
  <text id="t-4-10" x="80" y="78" style="fill:currentColor">─</text>
  <text id="t-4-11" x="88" y="78" style="fill:currentColor">─</text>
  <text id="t-4-12" x="96" y="78" style="fill:currentColor">─</text>
  <text id="t-4-13" x="104" y="78" style="fill:currentColor">─</text>
  <text id="t-4-14" x="112" y="78" style="fill:currentColor">─</text>
  <text id="t-4-15" x="120" y="78" style="fill:currentColor">─</text>
  <text id="t-4-16" x="128" y="78" style="fill:currentColor">─</text>
  <text id="t-4-17" x="136" y="78" style="fill:currentColor">─</text>
  <text id="t-4-18" x="144" y="78" style="fill:currentColor">─</text>
  <text id="t-4-19" x="152" y="78" style="fill:currentColor">─</text>
  <text id="t-4-20" x="160" y="78" style="fill:currentColor">─</text>
  <text id="t-4-21" x="168" y="78" style="fill:currentColor">─</text>
  <text id="t-4-22" x="176" y="78" style="fill:currentColor">─</text>
  <text id="t-4-23" x="184" y="78" style="fill:currentColor">─</text>
  <text id="t-4-24" x="192" y="78" style="fill:currentColor">─</text>
  <text id="t-4-25" x="200" y="78" style="fill:currentColor">─</text>
  <text id="t-4-26" x="208" y="78" style="fill:currentColor">─</text>
  <text id="t-4-27" x="216" y="78" style="fill:currentColor">─</text>
  <text id="t-4-28" x="224" y="78" style="fill:currentColor">─</text>
  <text id="t-4-29" x="232" y="78" style="fill:currentColor">─</text>
  <text id="t-4-30" x="240" y="78" style="fill:currentColor">─</text>
  <text id="t-4-31" x="248" y="78" style="fill:currentColor">─</text>
  <text id="t-4-32" x="256" y="78" style="fill:currentColor">─</text>
  <text id="t-4-33" x="264" y="78" style="fill:currentColor">┘</text>

  <rect id="box-42" x="0" y="0" width="400" height="16" fill="none" stroke="#3399ff" stroke-width="1"/>
  <rect id="box-44" x="0" y="16" width="400" height="16" fill="none" stroke="#3399ff" stroke-width="1"/>
  <rect id="box-46" x="0" y="32" width="400" height="16" fill="none" stroke="#3399ff" stroke-width="1"/>
  <rect id="box-48" x="0" y="48" width="400" height="16" fill="none" stroke="#3399ff" stroke-width="1"/>
  <rect id="box-50" x="0" y="64" width="400" height="16" fill="none" stroke="#3399ff" stroke-width="1"/>
  <rect id="dirty-0-0" x="0" y="0" width="272" height="16" fill="#ff0000" fill-opacity="0.2"/>
  <rect id="dirty-1-0" x="0" y="16" width="48" height="16" fill="#ff0000" fill-opacity="0.2"/>
  <rect id="dirty-1-11" x="88" y="16" width="32" height="16" fill="#ff0000" fill-opacity="0.2"/>
  <rect id="dirty-1-21" x="168" y="16" width="40" height="16" fill="#ff0000" fill-opacity="0.2"/>
  <rect id="dirty-1-33" x="264" y="16" width="8" height="16" fill="#ff0000" fill-opacity="0.2"/>
  <rect id="dirty-2-0" x="0" y="32" width="8" height="16" fill="#ff0000" fill-opacity="0.2"/>
  <rect id="dirty-2-33" x="264" y="32" width="8" height="16" fill="#ff0000" fill-opacity="0.2"/>
  <rect id="dirty-3-0" x="0" y="48" width="8" height="16" fill="#ff0000" fill-opacity="0.2"/>
  <rect id="dirty-3-33" x="264" y="48" width="8" height="16" fill="#ff0000" fill-opacity="0.2"/>
  <rect id="dirty-4-0" x="0" y="64" width="272" height="16" fill="#ff0000" fill-opacity="0.2"/>
</svg>
