<?xml version="1.0" encoding="UTF-8"?>
<svg xmlns="http://www.w3.org/2000/svg" width="400" height="192" viewBox="0 0 400 192" font-family="monospace" font-size="16">
  <text id="t-0-0" x="0" y="14" style="fill:currentColor">╭</text>
  <text id="t-0-1" x="8" y="14" style="fill:currentColor">─</text>
  <text id="t-0-2" x="16" y="14" style="fill:currentColor">─</text>
  <text id="t-0-3" x="24" y="14" style="fill:currentColor">─</text>
  <text id="t-0-4" x="32" y="14" style="fill:currentColor">─</text>
  <text id="t-0-5" x="40" y="14" style="fill:currentColor">─</text>
  <text id="t-0-6" x="48" y="14" style="fill:currentColor">─</text>
  <text id="t-0-7" x="56" y="14" style="fill:currentColor">─</text>
  <text id="t-0-8" x="64" y="14" style="fill:currentColor">─</text>
  <text id="t-0-9" x="72" y="14" style="fill:currentColor">─</text>
  <text id="t-0-10" x="80" y="14" style="fill:currentColor">─</text>
  <text id="t-0-11" x="88" y="14" style="fill:currentColor">─</text>
  <text id="t-0-12" x="96" y="14" style="fill:currentColor">─</text>
  <text id="t-0-13" x="104" y="14" style="fill:currentColor">─</text>
  <text id="t-0-14" x="112" y="14" style="fill:currentColor">─</text>
  <text id="t-0-15" x="120" y="14" style="fill:currentColor">─</text>
  <text id="t-0-16" x="128" y="14" style="fill:currentColor">─</text>
  <text id="t-0-17" x="136" y="14" style="fill:currentColor">─</text>
  <text id="t-0-18" x="144" y="14" style="fill:currentColor">─</text>
  <text id="t-0-19" x="152" y="14" style="fill:currentColor">─</text>
  <text id="t-0-20" x="160" y="14" style="fill:currentColor">─</text>
  <text id="t-0-21" x="168" y="14" style="fill:currentColor">─</text>
  <text id="t-0-22" x="176" y="14" style="fill:currentColor">─</text>
  <text id="t-0-23" x="184" y="14" style="fill:currentColor">─</text>
  <text id="t-0-24" x="192" y="14" style="fill:currentColor">─</text>
  <text id="t-0-25" x="200" y="14" style="fill:currentColor">─</text>
  <text id="t-0-26" x="208" y="14" style="fill:currentColor">─</text>
  <text id="t-0-27" x="216" y="14" style="fill:currentColor">─</text>
  <text id="t-0-28" x="224" y="14" style="fill:currentColor">─</text>
  <text id="t-0-29" x="232" y="14" style="fill:currentColor">─</text>
  <text id="t-0-30" x="240" y="14" style="fill:currentColor">─</text>
  <text id="t-0-31" x="248" y="14" style="fill:currentColor">─</text>
  <text id="t-0-32" x="256" y="14" style="fill:currentColor">─</text>
  <text id="t-0-33" x="264" y="14" style="fill:currentColor">─</text>
  <text id="t-0-34" x="272" y="14" style="fill:currentColor">╮</text>
  <text id="t-1-0" x="0" y="30" style="fill:currentColor">│</text>
  <text id="t-1-3" x="24" y="30" style="fill:currentColor">[</text>
  <text id="t-1-4" x="32" y="30" style="fill:currentColor">i</text>
  <text id="t-1-5" x="40" y="30" style="fill:currentColor">t</text>
  <text id="t-1-6" x="48" y="30" style="fill:currentColor">a</text>
  <text id="t-1-7" x="56" y="30" style="fill:currentColor">l</text>
  <text id="t-1-8" x="64" y="30" style="fill:currentColor">i</text>
  <text id="t-1-9" x="72" y="30" style="fill:currentColor">c</text>
  <text id="t-1-11" x="88" y="30" style="fill:currentColor">r</text>
  <text id="t-1-12" x="96" y="30" style="fill:currentColor">e</text>
  <text id="t-1-13" x="104" y="30" style="fill:currentColor">d</text>
  <text id="t-1-14" x="112" y="30" style="fill:currentColor">]</text>
  <text id="t-1-15" x="120" y="30" style="fill:currentColor">F</text>
  <text id="t-1-16" x="128" y="30" style="fill:currentColor">o</text>
  <text id="t-1-17" x="136" y="30" style="fill:currentColor">c</text>
  <text id="t-1-18" x="144" y="30" style="fill:currentColor">u</text>
  <text id="t-1-19" x="152" y="30" style="fill:currentColor">s</text>
  <text id="t-1-20" x="160" y="30" style="fill:currentColor">e</text>
  <text id="t-1-21" x="168" y="30" style="fill:currentColor">d</text>
  <text id="t-1-22" x="176" y="30" style="fill:currentColor">[</text>
  <text id="t-1-23" x="184" y="30" style="fill:currentColor">/</text>
  <text id="t-1-24" x="192" y="30" style="fill:currentColor">]</text>
  <text id="t-1-26" x="208" y="30" style="fill:currentColor">B</text>
  <text id="t-1-27" x="216" y="30" style="fill:currentColor">u</text>
  <text id="t-1-28" x="224" y="30" style="fill:currentColor">t</text>
  <text id="t-1-29" x="232" y="30" style="fill:currentColor">t</text>
  <text id="t-1-30" x="240" y="30" style="fill:currentColor">o</text>
  <text id="t-1-31" x="248" y="30" style="fill:currentColor">n</text>
  <text id="t-1-34" x="272" y="30" style="fill:currentColor">│</text>
  <text id="t-2-0" x="0" y="46" style="fill:currentColor">╰</text>
  <text id="t-2-1" x="8" y="46" style="fill:currentColor">─</text>
  <text id="t-2-2" x="16" y="46" style="fill:currentColor">─</text>
  <text id="t-2-3" x="24" y="46" style="fill:currentColor">─</text>
  <text id="t-2-4" x="32" y="46" style="fill:currentColor">─</text>
  <text id="t-2-5" x="40" y="46" style="fill:currentColor">─</text>
  <text id="t-2-6" x="48" y="46" style="fill:currentColor">─</text>
  <text id="t-2-7" x="56" y="46" style="fill:currentColor">─</text>
  <text id="t-2-8" x="64" y="46" style="fill:currentColor">─</text>
  <text id="t-2-9" x="72" y="46" style="fill:currentColor">─</text>
  <text id="t-2-10" x="80" y="46" style="fill:currentColor">─</text>
  <text id="t-2-11" x="88" y="46" style="fill:currentColor">─</text>
  <text id="t-2-12" x="96" y="46" style="fill:currentColor">─</text>
  <text id="t-2-13" x="104" y="46" style="fill:currentColor">─</text>
  <text id="t-2-14" x="112" y="46" style="fill:currentColor">─</text>
  <text id="t-2-15" x="120" y="46" style="fill:currentColor">─</text>
  <text id="t-2-16" x="128" y="46" style="fill:currentColor">─</text>
  <text id="t-2-17" x="136" y="46" style="fill:currentColor">─</text>
  <text id="t-2-18" x="144" y="46" style="fill:currentColor">─</text>
  <text id="t-2-19" x="152" y="46" style="fill:currentColor">─</text>
  <text id="t-2-20" x="160" y="46" style="fill:currentColor">─</text>
  <text id="t-2-21" x="168" y="46" style="fill:currentColor">─</text>
  <text id="t-2-22" x="176" y="46" style="fill:currentColor">─</text>
  <text id="t-2-23" x="184" y="46" style="fill:currentColor">─</text>
  <text id="t-2-24" x="192" y="46" style="fill:currentColor">─</text>
  <text id="t-2-25" x="200" y="46" style="fill:currentColor">─</text>
  <text id="t-2-26" x="208" y="46" style="fill:currentColor">─</text>
  <text id="t-2-27" x="216" y="46" style="fill:currentColor">─</text>
  <text id="t-2-28" x="224" y="46" style="fill:currentColor">─</text>
  <text id="t-2-29" x="232" y="46" style="fill:currentColor">─</text>
  <text id="t-2-30" x="240" y="46" style="fill:currentColor">─</text>
  <text id="t-2-31" x="248" y="46" style="fill:currentColor">─</text>
  <text id="t-2-32" x="256" y="46" style="fill:currentColor">─</text>
  <text id="t-2-33" x="264" y="46" style="fill:currentColor">─</text>
  <text id="t-2-34" x="272" y="46" style="fill:currentColor">╯</text>
  <text id="t-3-0" x="0" y="62" style="fill:currentColor">╭</text>
  <text id="t-3-1" x="8" y="62" style="fill:currentColor">─</text>
  <text id="t-3-2" x="16" y="62" style="fill:currentColor">─</text>
  <text id="t-3-3" x="24" y="62" style="fill:currentColor">─</text>
  <text id="t-3-4" x="32" y="62" style="fill:currentColor">─</text>
  <text id="t-3-5" x="40" y="62" style="fill:currentColor">─</text>
  <text id="t-3-6" x="48" y="62" style="fill:currentColor">─</text>
  <text id="t-3-7" x="56" y="62" style="fill:currentColor">─</text>
  <text id="t-3-8" x="64" y="62" style="fill:currentColor">─</text>
  <text id="t-3-9" x="72" y="62" style="fill:currentColor">─</text>
  <text id="t-3-10" x="80" y="62" style="fill:currentColor">─</text>
  <text id="t-3-11" x="88" y="62" style="fill:currentColor">─</text>
  <text id="t-3-12" x="96" y="62" style="fill:currentColor">─</text>
  <text id="t-3-13" x="104" y="62" style="fill:currentColor">─</text>
  <text id="t-3-14" x="112" y="62" style="fill:currentColor">─</text>
  <text id="t-3-15" x="120" y="62" style="fill:currentColor">─</text>
  <text id="t-3-16" x="128" y="62" style="fill:currentColor">─</text>
  <text id="t-3-17" x="136" y="62" style="fill:currentColor">─</text>
  <text id="t-3-18" x="144" y="62" style="fill:currentColor">─</text>
  <text id="t-3-19" x="152" y="62" style="fill:currentColor">─</text>
  <text id="t-3-20" x="160" y="62" style="fill:currentColor">─</text>
  <text id="t-3-21" x="168" y="62" style="fill:currentColor">─</text>
  <text id="t-3-22" x="176" y="62" style="fill:currentColor">─</text>
  <text id="t-3-23" x="184" y="62" style="fill:currentColor">─</text>
  <text id="t-3-24" x="192" y="62" style="fill:currentColor">─</text>
  <text id="t-3-25" x="200" y="62" style="fill:currentColor">─</text>
  <text id="t-3-26" x="208" y="62" style="fill:currentColor">─</text>
  <text id="t-3-27" x="216" y="62" style="fill:currentColor">─</text>
  <text id="t-3-28" x="224" y="62" style="fill:currentColor">─</text>
  <text id="t-3-29" x="232" y="62" style="fill:currentColor">─</text>
  <text id="t-3-30" x="240" y="62" style="fill:currentColor">─</text>
  <text id="t-3-31" x="248" y="62" style="fill:currentColor">─</text>
  <text id="t-3-32" x="256" y="62" style="fill:currentColor">─</text>
  <text id="t-3-33" x="264" y="62" style="fill:currentColor">─</text>
  <text id="t-3-34" x="272" y="62" style="fill:currentColor">╮</text>
  <text id="t-4-0" x="0" y="78" style="fill:currentColor">│</text>
  <text id="t-4-3" x="24" y="78" style="fill:currentColor">[</text>
  <text id="t-4-4" x="32" y="78" style="fill:currentColor">i</text>
  <text id="t-4-5" x="40" y="78" style="fill:currentColor">t</text>
  <text id="t-4-6" x="48" y="78" style="fill:currentColor">a</text>
  <text id="t-4-7" x="56" y="78" style="fill:currentColor">l</text>
  <text id="t-4-8" x="64" y="78" style="fill:currentColor">i</text>
  <text id="t-4-9" x="72" y="78" style="fill:currentColor">c</text>
  <text id="t-4-11" x="88" y="78" style="fill:currentColor">r</text>
  <text id="t-4-12" x="96" y="78" style="fill:currentColor">e</text>
  <text id="t-4-13" x="104" y="78" style="fill:currentColor">d</text>
  <text id="t-4-14" x="112" y="78" style="fill:currentColor">]</text>
  <text id="t-4-15" x="120" y="78" style="fill:currentColor">B</text>
  <text id="t-4-16" x="128" y="78" style="fill:currentColor">l</text>
  <text id="t-4-17" x="136" y="78" style="fill:currentColor">u</text>
  <text id="t-4-18" x="144" y="78" style="fill:currentColor">r</text>
  <text id="t-4-19" x="152" y="78" style="fill:currentColor">r</text>
  <text id="t-4-20" x="160" y="78" style="fill:currentColor">e</text>
  <text id="t-4-21" x="168" y="78" style="fill:currentColor">d</text>
  <text id="t-4-22" x="176" y="78" style="fill:currentColor">[</text>
  <text id="t-4-23" x="184" y="78" style="fill:currentColor">/</text>
  <text id="t-4-24" x="192" y="78" style="fill:currentColor">]</text>
  <text id="t-4-26" x="208" y="78" style="fill:currentColor">B</text>
  <text id="t-4-27" x="216" y="78" style="fill:currentColor">u</text>
  <text id="t-4-28" x="224" y="78" style="fill:currentColor">t</text>
  <text id="t-4-29" x="232" y="78" style="fill:currentColor">t</text>
  <text id="t-4-30" x="240" y="78" style="fill:currentColor">o</text>
  <text id="t-4-31" x="248" y="78" style="fill:currentColor">n</text>
  <text id="t-4-34" x="272" y="78" style="fill:currentColor">│</text>
  <text id="t-5-0" x="0" y="94" style="fill:currentColor">╰</text>
  <text id="t-5-1" x="8" y="94" style="fill:currentColor">─</text>
  <text id="t-5-2" x="16" y="94" style="fill:currentColor">─</text>
  <text id="t-5-3" x="24" y="94" style="fill:currentColor">─</text>
  <text id="t-5-4" x="32" y="94" style="fill:currentColor">─</text>
  <text id="t-5-5" x="40" y="94" style="fill:currentColor">─</text>
  <text id="t-5-6" x="48" y="94" style="fill:currentColor">─</text>
  <text id="t-5-7" x="56" y="94" style="fill:currentColor">─</text>
  <text id="t-5-8" x="64" y="94" style="fill:currentColor">─</text>
  <text id="t-5-9" x="72" y="94" style="fill:currentColor">─</text>
  <text id="t-5-10" x="80" y="94" style="fill:currentColor">─</text>
  <text id="t-5-11" x="88" y="94" style="fill:currentColor">─</text>
  <text id="t-5-12" x="96" y="94" style="fill:currentColor">─</text>
  <text id="t-5-13" x="104" y="94" style="fill:currentColor">─</text>
  <text id="t-5-14" x="112" y="94" style="fill:currentColor">─</text>
  <text id="t-5-15" x="120" y="94" style="fill:currentColor">─</text>
  <text id="t-5-16" x="128" y="94" style="fill:currentColor">─</text>
  <text id="t-5-17" x="136" y="94" style="fill:currentColor">─</text>
  <text id="t-5-18" x="144" y="94" style="fill:currentColor">─</text>
  <text id="t-5-19" x="152" y="94" style="fill:currentColor">─</text>
  <text id="t-5-20" x="160" y="94" style="fill:currentColor">─</text>
  <text id="t-5-21" x="168" y="94" style="fill:currentColor">─</text>
  <text id="t-5-22" x="176" y="94" style="fill:currentColor">─</text>
  <text id="t-5-23" x="184" y="94" style="fill:currentColor">─</text>
  <text id="t-5-24" x="192" y="94" style="fill:currentColor">─</text>
  <text id="t-5-25" x="200" y="94" style="fill:currentColor">─</text>
  <text id="t-5-26" x="208" y="94" style="fill:currentColor">─</text>
  <text id="t-5-27" x="216" y="94" style="fill:currentColor">─</text>
  <text id="t-5-28" x="224" y="94" style="fill:currentColor">─</text>
  <text id="t-5-29" x="232" y="94" style="fill:currentColor">─</text>
  <text id="t-5-30" x="240" y="94" style="fill:currentColor">─</text>
  <text id="t-5-31" x="248" y="94" style="fill:currentColor">─</text>
  <text id="t-5-32" x="256" y="94" style="fill:currentColor">─</text>
  <text id="t-5-33" x="264" y="94" style="fill:currentColor">─</text>
  <text id="t-5-34" x="272" y="94" style="fill:currentColor">╯</text>
  <text id="t-6-0" x="0" y="110" style="fill:currentColor">╭</text>
  <text id="t-6-1" x="8" y="110" style="fill:currentColor">─</text>
  <text id="t-6-2" x="16" y="110" style="fill:currentColor">─</text>
  <text id="t-6-3" x="24" y="110" style="fill:currentColor">─</text>
  <text id="t-6-4" x="32" y="110" style="fill:currentColor">─</text>
  <text id="t-6-5" x="40" y="110" style="fill:currentColor">─</text>
  <text id="t-6-6" x="48" y="110" style="fill:currentColor">─</text>
  <text id="t-6-7" x="56" y="110" style="fill:currentColor">─</text>
  <text id="t-6-8" x="64" y="110" style="fill:currentColor">─</text>
  <text id="t-6-9" x="72" y="110" style="fill:currentColor">─</text>
  <text id="t-6-10" x="80" y="110" style="fill:currentColor">─</text>
  <text id="t-6-11" x="88" y="110" style="fill:currentColor">─</text>
  <text id="t-6-12" x="96" y="110" style="fill:currentColor">─</text>
  <text id="t-6-13" x="104" y="110" style="fill:currentColor">─</text>
  <text id="t-6-14" x="112" y="110" style="fill:currentColor">─</text>
  <text id="t-6-15" x="120" y="110" style="fill:currentColor">─</text>
  <text id="t-6-16" x="128" y="110" style="fill:currentColor">─</text>
  <text id="t-6-17" x="136" y="110" style="fill:currentColor">─</text>
  <text id="t-6-18" x="144" y="110" style="fill:currentColor">─</text>
  <text id="t-6-19" x="152" y="110" style="fill:currentColor">─</text>
  <text id="t-6-20" x="160" y="110" style="fill:currentColor">─</text>
  <text id="t-6-21" x="168" y="110" style="fill:currentColor">─</text>
  <text id="t-6-22" x="176" y="110" style="fill:currentColor">─</text>
  <text id="t-6-23" x="184" y="110" style="fill:currentColor">─</text>
  <text id="t-6-24" x="192" y="110" style="fill:currentColor">─</text>
  <text id="t-6-25" x="200" y="110" style="fill:currentColor">─</text>
  <text id="t-6-26" x="208" y="110" style="fill:currentColor">─</text>
  <text id="t-6-27" x="216" y="110" style="fill:currentColor">─</text>
  <text id="t-6-28" x="224" y="110" style="fill:currentColor">─</text>
  <text id="t-6-29" x="232" y="110" style="fill:currentColor">─</text>
  <text id="t-6-30" x="240" y="110" style="fill:currentColor">─</text>
  <text id="t-6-31" x="248" y="110" style="fill:currentColor">─</text>
  <text id="t-6-32" x="256" y="110" style="fill:currentColor">─</text>
  <text id="t-6-33" x="264" y="110" style="fill:currentColor">─</text>
  <text id="t-6-34" x="272" y="110" style="fill:currentColor">─</text>
  <text id="t-6-35" x="280" y="110" style="fill:currentColor">╮</text>
  <text id="t-7-0" x="0" y="126" style="fill:currentColor">│</text>
  <text id="t-7-3" x="24" y="126" style="fill:currentColor">[</text>
  <text id="t-7-4" x="32" y="126" style="fill:currentColor">i</text>
  <text id="t-7-5" x="40" y="126" style="fill:currentColor">t</text>
  <text id="t-7-6" x="48" y="126" style="fill:currentColor">a</text>
  <text id="t-7-7" x="56" y="126" style="fill:currentColor">l</text>
  <text id="t-7-8" x="64" y="126" style="fill:currentColor">i</text>
  <text id="t-7-9" x="72" y="126" style="fill:currentColor">c</text>
  <text id="t-7-11" x="88" y="126" style="fill:currentColor">r</text>
  <text id="t-7-12" x="96" y="126" style="fill:currentColor">e</text>
  <text id="t-7-13" x="104" y="126" style="fill:currentColor">d</text>
  <text id="t-7-14" x="112" y="126" style="fill:currentColor">]</text>
  <text id="t-7-15" x="120" y="126" style="fill:currentColor">D</text>
  <text id="t-7-16" x="128" y="126" style="fill:currentColor">i</text>
  <text id="t-7-17" x="136" y="126" style="fill:currentColor">s</text>
  <text id="t-7-18" x="144" y="126" style="fill:currentColor">a</text>
  <text id="t-7-19" x="152" y="126" style="fill:currentColor">b</text>
  <text id="t-7-20" x="160" y="126" style="fill:currentColor">l</text>
  <text id="t-7-21" x="168" y="126" style="fill:currentColor">e</text>
  <text id="t-7-22" x="176" y="126" style="fill:currentColor">d</text>
  <text id="t-7-23" x="184" y="126" style="fill:currentColor">[</text>
  <text id="t-7-24" x="192" y="126" style="fill:currentColor">/</text>
  <text id="t-7-25" x="200" y="126" style="fill:currentColor">]</text>
  <text id="t-7-27" x="216" y="126" style="fill:currentColor">B</text>
  <text id="t-7-28" x="224" y="126" style="fill:currentColor">u</text>
  <text id="t-7-29" x="232" y="126" style="fill:currentColor">t</text>
  <text id="t-7-30" x="240" y="126" style="fill:currentColor">t</text>
  <text id="t-7-31" x="248" y="126" style="fill:currentColor">o</text>
  <text id="t-7-32" x="256" y="126" style="fill:currentColor">n</text>
  <text id="t-7-35" x="280" y="126" style="fill:currentColor">│</text>
  <text id="t-8-0" x="0" y="142" style="fill:currentColor">╰</text>
  <text id="t-8-1" x="8" y="142" style="fill:currentColor">─</text>
  <text id="t-8-2" x="16" y="142" style="fill:currentColor">─</text>
  <text id="t-8-3" x="24" y="142" style="fill:currentColor">─</text>
  <text id="t-8-4" x="32" y="142" style="fill:currentColor">─</text>
  <text id="t-8-5" x="40" y="142" style="fill:currentColor">─</text>
  <text id="t-8-6" x="48" y="142" style="fill:currentColor">─</text>
  <text id="t-8-7" x="56" y="142" style="fill:currentColor">─</text>
  <text id="t-8-8" x="64" y="142" style="fill:currentColor">─</text>
  <text id="t-8-9" x="72" y="142" style="fill:currentColor">─</text>
  <text id="t-8-10" x="80" y="142" style="fill:currentColor">─</text>
  <text id="t-8-11" x="88" y="142" style="fill:currentColor">─</text>
  <text id="t-8-12" x="96" y="142" style="fill:currentColor">─</text>
  <text id="t-8-13" x="104" y="142" style="fill:currentColor">─</text>
  <text id="t-8-14" x="112" y="142" style="fill:currentColor">─</text>
  <text id="t-8-15" x="120" y="142" style="fill:currentColor">─</text>
  <text id="t-8-16" x="128" y="142" style="fill:currentColor">─</text>
  <text id="t-8-17" x="136" y="142" style="fill:currentColor">─</text>
  <text id="t-8-18" x="144" y="142" style="fill:currentColor">─</text>
  <text id="t-8-19" x="152" y="142" style="fill:currentColor">─</text>
  <text id="t-8-20" x="160" y="142" style="fill:currentColor">─</text>
  <text id="t-8-21" x="168" y="142" style="fill:currentColor">─</text>
  <text id="t-8-22" x="176" y="142" style="fill:currentColor">─</text>
  <text id="t-8-23" x="184" y="142" style="fill:currentColor">─</text>
  <text id="t-8-24" x="192" y="142" style="fill:currentColor">─</text>
  <text id="t-8-25" x="200" y="142" style="fill:currentColor">─</text>
  <text id="t-8-26" x="208" y="142" style="fill:currentColor">─</text>
  <text id="t-8-27" x="216" y="142" style="fill:currentColor">─</text>
  <text id="t-8-28" x="224" y="142" style="fill:currentColor">─</text>
  <text id="t-8-29" x="232" y="142" style="fill:currentColor">─</text>
  <text id="t-8-30" x="240" y="142" style="fill:currentColor">─</text>
  <text id="t-8-31" x="248" y="142" style="fill:currentColor">─</text>
  <text id="t-8-32" x="256" y="142" style="fill:currentColor">─</text>
  <text id="t-8-33" x="264" y="142" style="fill:currentColor">─</text>
  <text id="t-8-34" x="272" y="142" style="fill:currentColor">─</text>
  <text id="t-8-35" x="280" y="142" style="fill:currentColor">╯</text>
</svg>
