<?xml version="1.0" encoding="UTF-8"?>
<svg xmlns="http://www.w3.org/2000/svg" width="160" height="48" viewBox="0 0 160 48" font-family="monospace" font-size="16">
  <text id="t-0-0" x="0" y="14" style="fill:currentColor">╭</text>
  <text id="t-0-1" x="8" y="14" style="fill:currentColor">─</text>
  <text id="t-0-2" x="16" y="14" style="fill:currentColor">─</text>
  <text id="t-0-3" x="24" y="14" style="fill:currentColor">─</text>
  <text id="t-0-4" x="32" y="14" style="fill:currentColor">─</text>
  <text id="t-0-5" x="40" y="14" style="fill:currentColor">─</text>
  <text id="t-0-6" x="48" y="14" style="fill:currentColor">─</text>
  <text id="t-0-7" x="56" y="14" style="fill:currentColor">─</text>
  <text id="t-0-8" x="64" y="14" style="fill:currentColor">─</text>
  <text id="t-0-9" x="72" y="14" style="fill:currentColor">─</text>
  <text id="t-0-10" x="80" y="14" style="fill:currentColor">─</text>
  <text id="t-0-11" x="88" y="14" style="fill:currentColor">─</text>
  <text id="t-0-12" x="96" y="14" style="fill:currentColor">─</text>
  <text id="t-0-13" x="104" y="14" style="fill:currentColor">╮</text>
  <text id="t-1-0" x="0" y="30" style="fill:currentColor">│</text>
  <text id="t-1-13" x="104" y="30" style="fill:currentColor">│</text>
  <text id="t-2-0" x="0" y="46" style="fill:currentColor">╰</text>
  <text id="t-2-1" x="8" y="46" style="fill:currentColor">─</text>
  <text id="t-2-2" x="16" y="46" style="fill:currentColor">─</text>
  <text id="t-2-3" x="24" y="46" style="fill:currentColor">─</text>
  <text id="t-2-4" x="32" y="46" style="fill:currentColor">─</text>
  <text id="t-2-5" x="40" y="46" style="fill:currentColor">─</text>
  <text id="t-2-6" x="48" y="46" style="fill:currentColor">─</text>
  <text id="t-2-7" x="56" y="46" style="fill:currentColor">─</text>
  <text id="t-2-8" x="64" y="46" style="fill:currentColor">─</text>
  <text id="t-2-9" x="72" y="46" style="fill:currentColor">─</text>
  <text id="t-2-10" x="80" y="46" style="fill:currentColor">─</text>
  <text id="t-2-11" x="88" y="46" style="fill:currentColor">─</text>
  <text id="t-2-12" x="96" y="46" style="fill:currentColor">─</text>
  <text id="t-2-13" x="104" y="46" style="fill:currentColor">╯</text>
</svg>
