<?xml version="1.0" encoding="UTF-8"?>
<svg xmlns="http://www.w3.org/2000/svg" width="320" height="192" viewBox="0 0 320 192" font-family="monospace" font-size="16">
  <rect id="bg-0-0" x="0" y="0" width="8" height="16" fill="#0000aa"/>
  <rect id="bg-0-1" x="8" y="0" width="16" height="16" fill="#0000aa"/>
  <text id="t-0-1" x="8" y="14" style="fill:#aaaaaa">⭐</text>
  <rect id="bg-0-3" x="24" y="0" width="8" height="16" fill="#0000aa"/>
  <rect id="bg-0-4" x="32" y="0" width="8" height="16" fill="#0000aa"/>
  <rect id="bg-0-5" x="40" y="0" width="8" height="16" fill="#0000aa"/>
  <rect id="bg-0-6" x="48" y="0" width="8" height="16" fill="#0000aa"/>
  <rect id="bg-0-7" x="56" y="0" width="8" height="16" fill="#0000aa"/>
  <rect id="bg-0-8" x="64" y="0" width="8" height="16" fill="#0000aa"/>
  <rect id="bg-0-9" x="72" y="0" width="8" height="16" fill="#0000aa"/>
  <rect id="bg-0-10" x="80" y="0" width="8" height="16" fill="#0000aa"/>
  <rect id="bg-0-11" x="88" y="0" width="8" height="16" fill="#0000aa"/>
  <rect id="bg-0-12" x="96" y="0" width="8" height="16" fill="#0000aa"/>
  <rect id="bg-0-13" x="104" y="0" width="8" height="16" fill="#0000aa"/>
  <rect id="bg-0-14" x="112" y="0" width="8" height="16" fill="#0000aa"/>
  <text id="t-0-14" x="112" y="14" style="fill:#aaaaaa">T</text>
  <rect id="bg-0-15" x="120" y="0" width="8" height="16" fill="#0000aa"/>
  <text id="t-0-15" x="120" y="14" style="fill:#aaaaaa">a</text>
  <rect id="bg-0-16" x="128" y="0" width="8" height="16" fill="#0000aa"/>
  <text id="t-0-16" x="128" y="14" style="fill:#aaaaaa">s</text>
  <rect id="bg-0-17" x="136" y="0" width="8" height="16" fill="#0000aa"/>
  <text id="t-0-17" x="136" y="14" style="fill:#aaaaaa">k</text>
  <rect id="bg-0-18" x="144" y="0" width="8" height="16" fill="#0000aa"/>
  <text id="t-0-18" x="144" y="14" style="fill:#aaaaaa">s</text>
  <rect id="bg-0-19" x="152" y="0" width="8" height="16" fill="#0000aa"/>
  <rect id="bg-0-20" x="160" y="0" width="8" height="16" fill="#0000aa"/>
  <text id="t-0-20" x="160" y="14" style="fill:#aaaaaa">—</text>
  <rect id="bg-0-21" x="168" y="0" width="8" height="16" fill="#0000aa"/>
  <rect id="bg-0-22" x="176" y="0" width="8" height="16" fill="#0000aa"/>
  <text id="t-0-22" x="176" y="14" style="fill:#aaaaaa">d</text>
  <rect id="bg-0-23" x="184" y="0" width="8" height="16" fill="#0000aa"/>
  <text id="t-0-23" x="184" y="14" style="fill:#aaaaaa">e</text>
  <rect id="bg-0-24" x="192" y="0" width="8" height="16" fill="#0000aa"/>
  <text id="t-0-24" x="192" y="14" style="fill:#aaaaaa">m</text>
  <rect id="bg-0-25" x="200" y="0" width="8" height="16" fill="#0000aa"/>
  <text id="t-0-25" x="200" y="14" style="fill:#aaaaaa">o</text>
  <rect id="bg-0-26" x="208" y="0" width="8" height="16" fill="#0000aa"/>
  <rect id="bg-0-27" x="216" y="0" width="8" height="16" fill="#0000aa"/>
  <rect id="bg-0-28" x="224" y="0" width="8" height="16" fill="#0000aa"/>
  <rect id="bg-0-29" x="232" y="0" width="8" height="16" fill="#0000aa"/>
  <rect id="bg-0-30" x="240" y="0" width="8" height="16" fill="#0000aa"/>
  <rect id="bg-0-31" x="248" y="0" width="8" height="16" fill="#0000aa"/>
  <rect id="bg-0-32" x="256" y="0" width="8" height="16" fill="#0000aa"/>
  <rect id="bg-0-33" x="264" y="0" width="8" height="16" fill="#0000aa"/>
  <rect id="bg-0-34" x="272" y="0" width="8" height="16" fill="#0000aa"/>
  <rect id="bg-0-35" x="280" y="0" width="8" height="16" fill="#0000aa"/>
  <rect id="bg-0-36" x="288" y="0" width="8" height="16" fill="#0000aa"/>
  <rect id="bg-0-37" x="296" y="0" width="8" height="16" fill="#0000aa"/>
  <rect id="bg-0-38" x="304" y="0" width="8" height="16" fill="#0000aa"/>
  <rect id="bg-0-39" x="312" y="0" width="8" height="16" fill="#0000aa"/>
  <text id="t-1-0" x="0" y="30" style="fill:currentColor">[</text>
  <text id="t-1-1" x="8" y="30" style="fill:currentColor">x</text>
  <text id="t-1-2" x="16" y="30" style="fill:currentColor">]</text>
  <text id="t-1-4" x="32" y="30" style="fill:currentColor">W</text>
  <text id="t-1-5" x="40" y="30" style="fill:currentColor">r</text>
  <text id="t-1-6" x="48" y="30" style="fill:currentColor">i</text>
  <text id="t-1-7" x="56" y="30" style="fill:currentColor">t</text>
  <text id="t-1-8" x="64" y="30" style="fill:currentColor">e</text>
  <text id="t-1-10" x="80" y="30" style="fill:currentColor">d</text>
  <text id="t-1-11" x="88" y="30" style="fill:currentColor">o</text>
  <text id="t-1-12" x="96" y="30" style="fill:currentColor">c</text>
  <text id="t-1-13" x="104" y="30" style="fill:currentColor">s</text>
  <text id="t-2-0" x="0" y="46" style="fill:currentColor">[</text>
  <text id="t-2-2" x="16" y="46" style="fill:currentColor">]</text>
  <text id="t-2-4" x="32" y="46" style="fill:currentColor">S</text>
  <text id="t-2-5" x="40" y="46" style="fill:currentColor">h</text>
  <text id="t-2-6" x="48" y="46" style="fill:currentColor">i</text>
  <text id="t-2-7" x="56" y="46" style="fill:currentColor">p</text>
  <text id="t-2-9" x="72" y="46" style="fill:currentColor">M</text>
  <text id="t-2-10" x="80" y="46" style="fill:currentColor">2</text>
  <text id="t-2-11" x="88" y="46" style="fill:currentColor">7</text>
  <text id="t-3-0" x="0" y="62" style="fill:currentColor">[</text>
  <text id="t-3-2" x="16" y="62" style="fill:currentColor">]</text>
  <text id="t-3-4" x="32" y="62" style="fill:currentColor">C</text>
  <text id="t-3-5" x="40" y="62" style="fill:currentColor">e</text>
  <text id="t-3-6" x="48" y="62" style="fill:currentColor">l</text>
  <text id="t-3-7" x="56" y="62" style="fill:currentColor">e</text>
  <text id="t-3-8" x="64" y="62" style="fill:currentColor">b</text>
  <text id="t-3-9" x="72" y="62" style="fill:currentColor">r</text>
  <text id="t-3-10" x="80" y="62" style="fill:currentColor">a</text>
  <text id="t-3-11" x="88" y="62" style="fill:currentColor">t</text>
  <text id="t-3-12" x="96" y="62" style="fill:currentColor">e</text>
  <text id="t-4-0" x="0" y="78" style="fill:#aaaaaa">[</text>
  <text id="t-4-1" x="8" y="78" style="fill:#aaaaaa">n</text>
  <text id="t-4-2" x="16" y="78" style="fill:#aaaaaa">]</text>
  <text id="t-4-4" x="32" y="78" style="fill:#aaaaaa">N</text>
  <text id="t-4-5" x="40" y="78" style="fill:#aaaaaa">e</text>
  <text id="t-4-6" x="48" y="78" style="fill:#aaaaaa">w</text>
  <text id="t-4-8" x="64" y="78" style="fill:#aaaaaa">t</text>
  <text id="t-4-9" x="72" y="78" style="fill:#aaaaaa">a</text>
  <text id="t-4-10" x="80" y="78" style="fill:#aaaaaa">s</text>
  <text id="t-4-11" x="88" y="78" style="fill:#aaaaaa">k</text>
  <text id="t-4-14" x="112" y="78" style="fill:#aaaaaa">[</text>
  <text id="t-4-15" x="120" y="78" style="fill:#aaaaaa">x</text>
  <text id="t-4-16" x="128" y="78" style="fill:#aaaaaa">]</text>
  <text id="t-4-18" x="144" y="78" style="fill:#aaaaaa">T</text>
  <text id="t-4-19" x="152" y="78" style="fill:#aaaaaa">o</text>
  <text id="t-4-20" x="160" y="78" style="fill:#aaaaaa">g</text>
  <text id="t-4-21" x="168" y="78" style="fill:#aaaaaa">g</text>
  <text id="t-4-22" x="176" y="78" style="fill:#aaaaaa">l</text>
  <text id="t-4-23" x="184" y="78" style="fill:#aaaaaa">e</text>
  <text id="t-4-25" x="200" y="78" style="fill:#aaaaaa">d</text>
  <text id="t-4-26" x="208" y="78" style="fill:#aaaaaa">o</text>
  <text id="t-4-27" x="216" y="78" style="fill:#aaaaaa">n</text>
  <text id="t-4-28" x="224" y="78" style="fill:#aaaaaa">e</text>
  <text id="t-4-31" x="248" y="78" style="fill:#aaaaaa">[</text>
  <text id="t-4-32" x="256" y="78" style="fill:#aaaaaa">q</text>
  <text id="t-4-33" x="264" y="78" style="fill:#aaaaaa">]</text>
  <text id="t-4-35" x="280" y="78" style="fill:#aaaaaa">Q</text>
  <text id="t-4-36" x="288" y="78" style="fill:#aaaaaa">u</text>
  <text id="t-4-37" x="296" y="78" style="fill:#aaaaaa">i</text>
  <text id="t-4-38" x="304" y="78" style="fill:#aaaaaa">t</text>

  <rect id="box-3" x="0" y="0" width="320" height="16" fill="none" stroke="#3399ff" stroke-width="1"/>
  <rect id="box-8" x="0" y="16" width="320" height="16" fill="none" stroke="#3399ff" stroke-width="1"/>
  <rect id="box-12" x="0" y="32" width="320" height="16" fill="none" stroke="#3399ff" stroke-width="1"/>
  <rect id="box-16" x="0" y="48" width="320" height="16" fill="none" stroke="#3399ff" stroke-width="1"/>
  <rect id="box-19" x="0" y="64" width="320" height="16" fill="none" stroke="#3399ff" stroke-width="1"/>
</svg>
