<?xml version="1.0" encoding="UTF-8"?>
<svg xmlns="http://www.w3.org/2000/svg" width="400" height="128" viewBox="0 0 400 128" font-family="monospace" font-size="16">
  <text id="t-0-0" x="0" y="14" style="fill:currentColor">[</text>
  <text id="t-0-1" x="8" y="14" style="fill:currentColor">O</text>
  <text id="t-0-2" x="16" y="14" style="fill:currentColor">n</text>
  <text id="t-0-3" x="24" y="14" style="fill:currentColor">e</text>
  <text id="t-0-4" x="32" y="14" style="fill:currentColor">]</text>
  <text id="t-0-7" x="56" y="14" style="fill:currentColor">T</text>
  <text id="t-0-8" x="64" y="14" style="fill:currentColor">w</text>
  <text id="t-0-9" x="72" y="14" style="fill:currentColor">o</text>
  <text id="t-0-13" x="104" y="14" style="fill:currentColor">T</text>
  <text id="t-0-14" x="112" y="14" style="fill:currentColor">h</text>
  <text id="t-0-15" x="120" y="14" style="fill:currentColor">r</text>
  <text id="t-0-16" x="128" y="14" style="fill:currentColor">e</text>
  <text id="t-0-17" x="136" y="14" style="fill:currentColor">e</text>
  <text id="t-1-0" x="0" y="30" style="fill:currentColor">┌</text>
  <text id="t-1-1" x="8" y="30" style="fill:currentColor">─</text>
  <text id="t-1-2" x="16" y="30" style="fill:currentColor">─</text>
  <text id="t-1-3" x="24" y="30" style="fill:currentColor">─</text>
  <text id="t-1-4" x="32" y="30" style="fill:currentColor">─</text>
  <text id="t-1-5" x="40" y="30" style="fill:currentColor">─</text>
  <text id="t-1-6" x="48" y="30" style="fill:currentColor">─</text>
  <text id="t-1-7" x="56" y="30" style="fill:currentColor">─</text>
  <text id="t-1-8" x="64" y="30" style="fill:currentColor">─</text>
  <text id="t-1-9" x="72" y="30" style="fill:currentColor">─</text>
  <text id="t-1-10" x="80" y="30" style="fill:currentColor">─</text>
  <text id="t-1-11" x="88" y="30" style="fill:currentColor">─</text>
  <text id="t-1-12" x="96" y="30" style="fill:currentColor">─</text>
  <text id="t-1-13" x="104" y="30" style="fill:currentColor">─</text>
  <text id="t-1-14" x="112" y="30" style="fill:currentColor">─</text>
  <text id="t-1-15" x="120" y="30" style="fill:currentColor">─</text>
  <text id="t-1-16" x="128" y="30" style="fill:currentColor">─</text>
  <text id="t-1-17" x="136" y="30" style="fill:currentColor">─</text>
  <text id="t-1-18" x="144" y="30" style="fill:currentColor">─</text>
  <text id="t-1-19" x="152" y="30" style="fill:currentColor">─</text>
  <text id="t-1-20" x="160" y="30" style="fill:currentColor">─</text>
  <text id="t-1-21" x="168" y="30" style="fill:currentColor">─</text>
  <text id="t-1-22" x="176" y="30" style="fill:currentColor">─</text>
  <text id="t-1-23" x="184" y="30" style="fill:currentColor">─</text>
  <text id="t-1-24" x="192" y="30" style="fill:currentColor">─</text>
  <text id="t-1-25" x="200" y="30" style="fill:currentColor">─</text>
  <text id="t-1-26" x="208" y="30" style="fill:currentColor">─</text>
  <text id="t-1-27" x="216" y="30" style="fill:currentColor">─</text>
  <text id="t-1-28" x="224" y="30" style="fill:currentColor">─</text>
  <text id="t-1-29" x="232" y="30" style="fill:currentColor">─</text>
  <text id="t-1-30" x="240" y="30" style="fill:currentColor">─</text>
  <text id="t-1-31" x="248" y="30" style="fill:currentColor">─</text>
  <text id="t-1-32" x="256" y="30" style="fill:currentColor">─</text>
  <text id="t-1-33" x="264" y="30" style="fill:currentColor">─</text>
  <text id="t-1-34" x="272" y="30" style="fill:currentColor">─</text>
  <text id="t-1-35" x="280" y="30" style="fill:currentColor">─</text>
  <text id="t-1-36" x="288" y="30" style="fill:currentColor">─</text>
  <text id="t-1-37" x="296" y="30" style="fill:currentColor">─</text>
  <text id="t-1-38" x="304" y="30" style="fill:currentColor">─</text>
  <text id="t-1-39" x="312" y="30" style="fill:currentColor">─</text>
  <text id="t-1-40" x="320" y="30" style="fill:currentColor">─</text>
  <text id="t-1-41" x="328" y="30" style="fill:currentColor">─</text>
  <text id="t-1-42" x="336" y="30" style="fill:currentColor">─</text>
  <text id="t-1-43" x="344" y="30" style="fill:currentColor">─</text>
  <text id="t-1-44" x="352" y="30" style="fill:currentColor">─</text>
  <text id="t-1-45" x="360" y="30" style="fill:currentColor">─</text>
  <text id="t-1-46" x="368" y="30" style="fill:currentColor">─</text>
  <text id="t-1-47" x="376" y="30" style="fill:currentColor">─</text>
  <text id="t-1-48" x="384" y="30" style="fill:currentColor">─</text>
  <text id="t-1-49" x="392" y="30" style="fill:currentColor">┐</text>
  <text id="t-2-0" x="0" y="46" style="fill:currentColor">│</text>
  <text id="t-2-1" x="8" y="46" style="fill:currentColor">A</text>
  <text id="t-2-2" x="16" y="46" style="fill:currentColor">c</text>
  <text id="t-2-3" x="24" y="46" style="fill:currentColor">t</text>
  <text id="t-2-4" x="32" y="46" style="fill:currentColor">i</text>
  <text id="t-2-5" x="40" y="46" style="fill:currentColor">v</text>
  <text id="t-2-6" x="48" y="46" style="fill:currentColor">e</text>
  <text id="t-2-8" x="64" y="46" style="fill:currentColor">t</text>
  <text id="t-2-9" x="72" y="46" style="fill:currentColor">a</text>
  <text id="t-2-10" x="80" y="46" style="fill:currentColor">b</text>
  <text id="t-2-11" x="88" y="46" style="fill:currentColor">:</text>
  <text id="t-2-13" x="104" y="46" style="fill:currentColor">O</text>
  <text id="t-2-14" x="112" y="46" style="fill:currentColor">n</text>
  <text id="t-2-15" x="120" y="46" style="fill:currentColor">e</text>
  <text id="t-2-49" x="392" y="46" style="fill:currentColor">│</text>
  <text id="t-3-0" x="0" y="62" style="fill:currentColor">│</text>
  <text id="t-3-49" x="392" y="62" style="fill:currentColor">│</text>
  <text id="t-4-0" x="0" y="78" style="fill:currentColor">│</text>
  <text id="t-4-49" x="392" y="78" style="fill:currentColor">│</text>
  <text id="t-5-0" x="0" y="94" style="fill:currentColor">│</text>
  <text id="t-5-49" x="392" y="94" style="fill:currentColor">│</text>
  <text id="t-6-0" x="0" y="110" style="fill:currentColor">└</text>
  <text id="t-6-1" x="8" y="110" style="fill:currentColor">─</text>
  <text id="t-6-2" x="16" y="110" style="fill:currentColor">─</text>
  <text id="t-6-3" x="24" y="110" style="fill:currentColor">─</text>
  <text id="t-6-4" x="32" y="110" style="fill:currentColor">─</text>
  <text id="t-6-5" x="40" y="110" style="fill:currentColor">─</text>
  <text id="t-6-6" x="48" y="110" style="fill:currentColor">─</text>
  <text id="t-6-7" x="56" y="110" style="fill:currentColor">─</text>
  <text id="t-6-8" x="64" y="110" style="fill:currentColor">─</text>
  <text id="t-6-9" x="72" y="110" style="fill:currentColor">─</text>
  <text id="t-6-10" x="80" y="110" style="fill:currentColor">─</text>
  <text id="t-6-11" x="88" y="110" style="fill:currentColor">─</text>
  <text id="t-6-12" x="96" y="110" style="fill:currentColor">─</text>
  <text id="t-6-13" x="104" y="110" style="fill:currentColor">─</text>
  <text id="t-6-14" x="112" y="110" style="fill:currentColor">─</text>
  <text id="t-6-15" x="120" y="110" style="fill:currentColor">─</text>
  <text id="t-6-16" x="128" y="110" style="fill:currentColor">─</text>
  <text id="t-6-17" x="136" y="110" style="fill:currentColor">─</text>
  <text id="t-6-18" x="144" y="110" style="fill:currentColor">─</text>
  <text id="t-6-19" x="152" y="110" style="fill:currentColor">─</text>
  <text id="t-6-20" x="160" y="110" style="fill:currentColor">─</text>
  <text id="t-6-21" x="168" y="110" style="fill:currentColor">─</text>
  <text id="t-6-22" x="176" y="110" style="fill:currentColor">─</text>
  <text id="t-6-23" x="184" y="110" style="fill:currentColor">─</text>
  <text id="t-6-24" x="192" y="110" style="fill:currentColor">─</text>
  <text id="t-6-25" x="200" y="110" style="fill:currentColor">─</text>
  <text id="t-6-26" x="208" y="110" style="fill:currentColor">─</text>
  <text id="t-6-27" x="216" y="110" style="fill:currentColor">─</text>
  <text id="t-6-28" x="224" y="110" style="fill:currentColor">─</text>
  <text id="t-6-29" x="232" y="110" style="fill:currentColor">─</text>
  <text id="t-6-30" x="240" y="110" style="fill:currentColor">─</text>
  <text id="t-6-31" x="248" y="110" style="fill:currentColor">─</text>
  <text id="t-6-32" x="256" y="110" style="fill:currentColor">─</text>
  <text id="t-6-33" x="264" y="110" style="fill:currentColor">─</text>
  <text id="t-6-34" x="272" y="110" style="fill:currentColor">─</text>
  <text id="t-6-35" x="280" y="110" style="fill:currentColor">─</text>
  <text id="t-6-36" x="288" y="110" style="fill:currentColor">─</text>
  <text id="t-6-37" x="296" y="110" style="fill:currentColor">─</text>
  <text id="t-6-38" x="304" y="110" style="fill:currentColor">─</text>
  <text id="t-6-39" x="312" y="110" style="fill:currentColor">─</text>
  <text id="t-6-40" x="320" y="110" style="fill:currentColor">─</text>
  <text id="t-6-41" x="328" y="110" style="fill:currentColor">─</text>
  <text id="t-6-42" x="336" y="110" style="fill:currentColor">─</text>
  <text id="t-6-43" x="344" y="110" style="fill:currentColor">─</text>
  <text id="t-6-44" x="352" y="110" style="fill:currentColor">─</text>
  <text id="t-6-45" x="360" y="110" style="fill:currentColor">─</text>
  <text id="t-6-46" x="368" y="110" style="fill:currentColor">─</text>
  <text id="t-6-47" x="376" y="110" style="fill:currentColor">─</text>
  <text id="t-6-48" x="384" y="110" style="fill:currentColor">─</text>
  <text id="t-6-49" x="392" y="110" style="fill:currentColor">┘</text>

  <rect id="box-3" x="0" y="0" width="400" height="16" fill="none" stroke="#3399ff" stroke-width="1"/>
  <rect id="box-6" x="0" y="16" width="400" height="16" fill="none" stroke="#3399ff" stroke-width="1"/>
  <rect id="box-8" x="0" y="32" width="400" height="16" fill="none" stroke="#3399ff" stroke-width="1"/>
  <rect id="box-10" x="0" y="48" width="400" height="16" fill="none" stroke="#3399ff" stroke-width="1"/>
  <rect id="box-12" x="0" y="64" width="400" height="16" fill="none" stroke="#3399ff" stroke-width="1"/>
  <rect id="box-14" x="0" y="80" width="400" height="16" fill="none" stroke="#3399ff" stroke-width="1"/>
  <rect id="box-16" x="0" y="96" width="400" height="16" fill="none" stroke="#3399ff" stroke-width="1"/>
  <rect id="dirty-0-0" x="0" y="0" width="40" height="16" fill="#ff0000" fill-opacity="0.2"/>
  <rect id="dirty-0-7" x="56" y="0" width="24" height="16" fill="#ff0000" fill-opacity="0.2"/>
  <rect id="dirty-0-13" x="104" y="0" width="40" height="16" fill="#ff0000" fill-opacity="0.2"/>
  <rect id="dirty-1-0" x="0" y="16" width="400" height="16" fill="#ff0000" fill-opacity="0.2"/>
  <rect id="dirty-2-0" x="0" y="32" width="56" height="16" fill="#ff0000" fill-opacity="0.2"/>
  <rect id="dirty-2-8" x="64" y="32" width="32" height="16" fill="#ff0000" fill-opacity="0.2"/>
  <rect id="dirty-2-13" x="104" y="32" width="24" height="16" fill="#ff0000" fill-opacity="0.2"/>
  <rect id="dirty-2-49" x="392" y="32" width="8" height="16" fill="#ff0000" fill-opacity="0.2"/>
  <rect id="dirty-3-0" x="0" y="48" width="8" height="16" fill="#ff0000" fill-opacity="0.2"/>
  <rect id="dirty-3-49" x="392" y="48" width="8" height="16" fill="#ff0000" fill-opacity="0.2"/>
  <rect id="dirty-4-0" x="0" y="64" width="8" height="16" fill="#ff0000" fill-opacity="0.2"/>
  <rect id="dirty-4-49" x="392" y="64" width="8" height="16" fill="#ff0000" fill-opacity="0.2"/>
  <rect id="dirty-5-0" x="0" y="80" width="8" height="16" fill="#ff0000" fill-opacity="0.2"/>
  <rect id="dirty-5-49" x="392" y="80" width="8" height="16" fill="#ff0000" fill-opacity="0.2"/>
  <rect id="dirty-6-0" x="0" y="96" width="400" height="16" fill="#ff0000" fill-opacity="0.2"/>
</svg>
