<?xml version="1.0" encoding="UTF-8"?>
<svg xmlns="http://www.w3.org/2000/svg" width="480" height="320" viewBox="0 0 480 320" font-family="monospace" font-size="16">
  <text id="t-0-0" x="0" y="14" style="fill:currentColor">╭</text>
  <text id="t-0-1" x="8" y="14" style="fill:currentColor">─</text>
  <text id="t-0-2" x="16" y="14" style="fill:currentColor">─</text>
  <text id="t-0-3" x="24" y="14" style="fill:currentColor">─</text>
  <text id="t-0-4" x="32" y="14" style="fill:currentColor">─</text>
  <text id="t-0-5" x="40" y="14" style="fill:currentColor">─</text>
  <text id="t-0-6" x="48" y="14" style="fill:currentColor">─</text>
  <text id="t-0-7" x="56" y="14" style="fill:currentColor">─</text>
  <text id="t-0-8" x="64" y="14" style="fill:currentColor">─</text>
  <text id="t-0-9" x="72" y="14" style="fill:currentColor">─</text>
  <text id="t-0-10" x="80" y="14" style="fill:currentColor">─</text>
  <text id="t-0-11" x="88" y="14" style="fill:currentColor">─</text>
  <text id="t-0-12" x="96" y="14" style="fill:currentColor">─</text>
  <text id="t-0-13" x="104" y="14" style="fill:currentColor">─</text>
  <text id="t-0-14" x="112" y="14" style="fill:currentColor">─</text>
  <text id="t-0-15" x="120" y="14" style="fill:currentColor">─</text>
  <text id="t-0-16" x="128" y="14" style="fill:currentColor">─</text>
  <text id="t-0-17" x="136" y="14" style="fill:currentColor">─</text>
  <text id="t-0-18" x="144" y="14" style="fill:currentColor">─</text>
  <text id="t-0-19" x="152" y="14" style="fill:currentColor">─</text>
  <text id="t-0-20" x="160" y="14" style="fill:currentColor">─</text>
  <text id="t-0-21" x="168" y="14" style="fill:currentColor">─</text>
  <text id="t-0-22" x="176" y="14" style="fill:currentColor">─</text>
  <text id="t-0-23" x="184" y="14" style="fill:currentColor">─</text>
  <text id="t-0-24" x="192" y="14" style="fill:currentColor">─</text>
  <text id="t-0-25" x="200" y="14" style="fill:currentColor">─</text>
  <text id="t-0-26" x="208" y="14" style="fill:currentColor">─</text>
  <text id="t-0-27" x="216" y="14" style="fill:currentColor">─</text>
  <text id="t-0-28" x="224" y="14" style="fill:currentColor">─</text>
  <text id="t-0-29" x="232" y="14" style="fill:currentColor">─</text>
  <text id="t-0-30" x="240" y="14" style="fill:currentColor">─</text>
  <text id="t-0-31" x="248" y="14" style="fill:currentColor">─</text>
  <text id="t-0-32" x="256" y="14" style="fill:currentColor">─</text>
  <text id="t-0-33" x="264" y="14" style="fill:currentColor">─</text>
  <text id="t-0-34" x="272" y="14" style="fill:currentColor">─</text>
  <text id="t-0-35" x="280" y="14" style="fill:currentColor">─</text>
  <text id="t-0-36" x="288" y="14" style="fill:currentColor">─</text>
  <text id="t-0-37" x="296" y="14" style="fill:currentColor">─</text>
  <text id="t-0-38" x="304" y="14" style="fill:currentColor">─</text>
  <text id="t-0-39" x="312" y="14" style="fill:currentColor">─</text>
  <text id="t-0-40" x="320" y="14" style="fill:currentColor">─</text>
  <text id="t-0-41" x="328" y="14" style="fill:currentColor">─</text>
  <text id="t-0-42" x="336" y="14" style="fill:currentColor">─</text>
  <text id="t-0-43" x="344" y="14" style="fill:currentColor">─</text>
  <text id="t-0-44" x="352" y="14" style="fill:currentColor">─</text>
  <text id="t-0-45" x="360" y="14" style="fill:currentColor">─</text>
  <text id="t-0-46" x="368" y="14" style="fill:currentColor">─</text>
  <text id="t-0-47" x="376" y="14" style="fill:currentColor">─</text>
  <text id="t-0-48" x="384" y="14" style="fill:currentColor">─</text>
  <text id="t-0-49" x="392" y="14" style="fill:currentColor">─</text>
  <text id="t-0-50" x="400" y="14" style="fill:currentColor">─</text>
  <text id="t-0-51" x="408" y="14" style="fill:currentColor">─</text>
  <text id="t-0-52" x="416" y="14" style="fill:currentColor">─</text>
  <text id="t-0-53" x="424" y="14" style="fill:currentColor">─</text>
  <text id="t-0-54" x="432" y="14" style="fill:currentColor">─</text>
  <text id="t-0-55" x="440" y="14" style="fill:currentColor">─</text>
  <text id="t-0-56" x="448" y="14" style="fill:currentColor">─</text>
  <text id="t-0-57" x="456" y="14" style="fill:currentColor">─</text>
  <text id="t-0-58" x="464" y="14" style="fill:currentColor">─</text>
  <text id="t-0-59" x="472" y="14" style="fill:currentColor">╮</text>
  <text id="t-1-0" x="0" y="30" style="fill:currentColor;font-style:italic">│</text>
  <text id="t-1-1" x="8" y="30" style="fill:currentColor;font-style:italic">S</text>
  <text id="t-1-2" x="16" y="30" style="fill:currentColor;font-style:italic">e</text>
  <text id="t-1-3" x="24" y="30" style="fill:currentColor;font-style:italic">a</text>
  <text id="t-1-4" x="32" y="30" style="fill:currentColor;font-style:italic">r</text>
  <text id="t-1-5" x="40" y="30" style="fill:currentColor;font-style:italic">c</text>
  <text id="t-1-6" x="48" y="30" style="fill:currentColor;font-style:italic">h</text>
  <text id="t-1-7" x="56" y="30" style="fill:currentColor;font-style:italic">…</text>
  <text id="t-1-59" x="472" y="30" style="fill:currentColor;font-style:italic">│</text>
  <text id="t-2-0" x="0" y="46" style="fill:currentColor">╰</text>
  <text id="t-2-1" x="8" y="46" style="fill:currentColor">─</text>
  <text id="t-2-2" x="16" y="46" style="fill:currentColor">─</text>
  <text id="t-2-3" x="24" y="46" style="fill:currentColor">─</text>
  <text id="t-2-4" x="32" y="46" style="fill:currentColor">─</text>
  <text id="t-2-5" x="40" y="46" style="fill:currentColor">─</text>
  <text id="t-2-6" x="48" y="46" style="fill:currentColor">─</text>
  <text id="t-2-7" x="56" y="46" style="fill:currentColor">─</text>
  <text id="t-2-8" x="64" y="46" style="fill:currentColor">─</text>
  <text id="t-2-9" x="72" y="46" style="fill:currentColor">─</text>
  <text id="t-2-10" x="80" y="46" style="fill:currentColor">─</text>
  <text id="t-2-11" x="88" y="46" style="fill:currentColor">─</text>
  <text id="t-2-12" x="96" y="46" style="fill:currentColor">─</text>
  <text id="t-2-13" x="104" y="46" style="fill:currentColor">─</text>
  <text id="t-2-14" x="112" y="46" style="fill:currentColor">─</text>
  <text id="t-2-15" x="120" y="46" style="fill:currentColor">─</text>
  <text id="t-2-16" x="128" y="46" style="fill:currentColor">─</text>
  <text id="t-2-17" x="136" y="46" style="fill:currentColor">─</text>
  <text id="t-2-18" x="144" y="46" style="fill:currentColor">─</text>
  <text id="t-2-19" x="152" y="46" style="fill:currentColor">─</text>
  <text id="t-2-20" x="160" y="46" style="fill:currentColor">─</text>
  <text id="t-2-21" x="168" y="46" style="fill:currentColor">─</text>
  <text id="t-2-22" x="176" y="46" style="fill:currentColor">─</text>
  <text id="t-2-23" x="184" y="46" style="fill:currentColor">─</text>
  <text id="t-2-24" x="192" y="46" style="fill:currentColor">─</text>
  <text id="t-2-25" x="200" y="46" style="fill:currentColor">─</text>
  <text id="t-2-26" x="208" y="46" style="fill:currentColor">─</text>
  <text id="t-2-27" x="216" y="46" style="fill:currentColor">─</text>
  <text id="t-2-28" x="224" y="46" style="fill:currentColor">─</text>
  <text id="t-2-29" x="232" y="46" style="fill:currentColor">─</text>
  <text id="t-2-30" x="240" y="46" style="fill:currentColor">─</text>
  <text id="t-2-31" x="248" y="46" style="fill:currentColor">─</text>
  <text id="t-2-32" x="256" y="46" style="fill:currentColor">─</text>
  <text id="t-2-33" x="264" y="46" style="fill:currentColor">─</text>
  <text id="t-2-34" x="272" y="46" style="fill:currentColor">─</text>
  <text id="t-2-35" x="280" y="46" style="fill:currentColor">─</text>
  <text id="t-2-36" x="288" y="46" style="fill:currentColor">─</text>
  <text id="t-2-37" x="296" y="46" style="fill:currentColor">─</text>
  <text id="t-2-38" x="304" y="46" style="fill:currentColor">─</text>
  <text id="t-2-39" x="312" y="46" style="fill:currentColor">─</text>
  <text id="t-2-40" x="320" y="46" style="fill:currentColor">─</text>
  <text id="t-2-41" x="328" y="46" style="fill:currentColor">─</text>
  <text id="t-2-42" x="336" y="46" style="fill:currentColor">─</text>
  <text id="t-2-43" x="344" y="46" style="fill:currentColor">─</text>
  <text id="t-2-44" x="352" y="46" style="fill:currentColor">─</text>
  <text id="t-2-45" x="360" y="46" style="fill:currentColor">─</text>
  <text id="t-2-46" x="368" y="46" style="fill:currentColor">─</text>
  <text id="t-2-47" x="376" y="46" style="fill:currentColor">─</text>
  <text id="t-2-48" x="384" y="46" style="fill:currentColor">─</text>
  <text id="t-2-49" x="392" y="46" style="fill:currentColor">─</text>
  <text id="t-2-50" x="400" y="46" style="fill:currentColor">─</text>
  <text id="t-2-51" x="408" y="46" style="fill:currentColor">─</text>
  <text id="t-2-52" x="416" y="46" style="fill:currentColor">─</text>
  <text id="t-2-53" x="424" y="46" style="fill:currentColor">─</text>
  <text id="t-2-54" x="432" y="46" style="fill:currentColor">─</text>
  <text id="t-2-55" x="440" y="46" style="fill:currentColor">─</text>
  <text id="t-2-56" x="448" y="46" style="fill:currentColor">─</text>
  <text id="t-2-57" x="456" y="46" style="fill:currentColor">─</text>
  <text id="t-2-58" x="464" y="46" style="fill:currentColor">─</text>
  <text id="t-2-59" x="472" y="46" style="fill:currentColor">╯</text>
  <text id="t-3-0" x="0" y="62" style="fill:currentColor">╭</text>
  <text id="t-3-1" x="8" y="62" style="fill:currentColor">─</text>
  <text id="t-3-2" x="16" y="62" style="fill:currentColor">─</text>
  <text id="t-3-3" x="24" y="62" style="fill:currentColor">─</text>
  <text id="t-3-4" x="32" y="62" style="fill:currentColor">─</text>
  <text id="t-3-5" x="40" y="62" style="fill:currentColor">─</text>
  <text id="t-3-6" x="48" y="62" style="fill:currentColor">─</text>
  <text id="t-3-7" x="56" y="62" style="fill:currentColor">─</text>
  <text id="t-3-8" x="64" y="62" style="fill:currentColor">─</text>
  <text id="t-3-9" x="72" y="62" style="fill:currentColor">─</text>
  <text id="t-3-10" x="80" y="62" style="fill:currentColor">─</text>
  <text id="t-3-11" x="88" y="62" style="fill:currentColor">─</text>
  <text id="t-3-12" x="96" y="62" style="fill:currentColor">─</text>
  <text id="t-3-13" x="104" y="62" style="fill:currentColor">─</text>
  <text id="t-3-14" x="112" y="62" style="fill:currentColor">─</text>
  <text id="t-3-15" x="120" y="62" style="fill:currentColor">─</text>
  <text id="t-3-16" x="128" y="62" style="fill:currentColor">─</text>
  <text id="t-3-17" x="136" y="62" style="fill:currentColor">─</text>
  <text id="t-3-18" x="144" y="62" style="fill:currentColor">─</text>
  <text id="t-3-19" x="152" y="62" style="fill:currentColor">─</text>
  <text id="t-3-20" x="160" y="62" style="fill:currentColor">─</text>
  <text id="t-3-21" x="168" y="62" style="fill:currentColor">─</text>
  <text id="t-3-22" x="176" y="62" style="fill:currentColor">─</text>
  <text id="t-3-23" x="184" y="62" style="fill:currentColor">─</text>
  <text id="t-3-24" x="192" y="62" style="fill:currentColor">─</text>
  <text id="t-3-25" x="200" y="62" style="fill:currentColor">─</text>
  <text id="t-3-26" x="208" y="62" style="fill:currentColor">─</text>
  <text id="t-3-27" x="216" y="62" style="fill:currentColor">─</text>
  <text id="t-3-28" x="224" y="62" style="fill:currentColor">─</text>
  <text id="t-3-29" x="232" y="62" style="fill:currentColor">─</text>
  <text id="t-3-30" x="240" y="62" style="fill:currentColor">─</text>
  <text id="t-3-31" x="248" y="62" style="fill:currentColor">─</text>
  <text id="t-3-32" x="256" y="62" style="fill:currentColor">─</text>
  <text id="t-3-33" x="264" y="62" style="fill:currentColor">─</text>
  <text id="t-3-34" x="272" y="62" style="fill:currentColor">─</text>
  <text id="t-3-35" x="280" y="62" style="fill:currentColor">─</text>
  <text id="t-3-36" x="288" y="62" style="fill:currentColor">─</text>
  <text id="t-3-37" x="296" y="62" style="fill:currentColor">─</text>
  <text id="t-3-38" x="304" y="62" style="fill:currentColor">─</text>
  <text id="t-3-39" x="312" y="62" style="fill:currentColor">─</text>
  <text id="t-3-40" x="320" y="62" style="fill:currentColor">─</text>
  <text id="t-3-41" x="328" y="62" style="fill:currentColor">─</text>
  <text id="t-3-42" x="336" y="62" style="fill:currentColor">─</text>
  <text id="t-3-43" x="344" y="62" style="fill:currentColor">─</text>
  <text id="t-3-44" x="352" y="62" style="fill:currentColor">─</text>
  <text id="t-3-45" x="360" y="62" style="fill:currentColor">─</text>
  <text id="t-3-46" x="368" y="62" style="fill:currentColor">─</text>
  <text id="t-3-47" x="376" y="62" style="fill:currentColor">─</text>
  <text id="t-3-48" x="384" y="62" style="fill:currentColor">─</text>
  <text id="t-3-49" x="392" y="62" style="fill:currentColor">─</text>
  <text id="t-3-50" x="400" y="62" style="fill:currentColor">─</text>
  <text id="t-3-51" x="408" y="62" style="fill:currentColor">─</text>
  <text id="t-3-52" x="416" y="62" style="fill:currentColor">─</text>
  <text id="t-3-53" x="424" y="62" style="fill:currentColor">─</text>
  <text id="t-3-54" x="432" y="62" style="fill:currentColor">─</text>
  <text id="t-3-55" x="440" y="62" style="fill:currentColor">─</text>
  <text id="t-3-56" x="448" y="62" style="fill:currentColor">─</text>
  <text id="t-3-57" x="456" y="62" style="fill:currentColor">─</text>
  <text id="t-3-58" x="464" y="62" style="fill:currentColor">─</text>
  <text id="t-3-59" x="472" y="62" style="fill:currentColor">╮</text>
  <text id="t-4-0" x="0" y="78" style="fill:currentColor">│</text>
  <text id="t-4-1" x="8" y="78" style="fill:currentColor">a</text>
  <text id="t-4-2" x="16" y="78" style="fill:currentColor">a</text>
  <text id="t-4-3" x="24" y="78" style="fill:currentColor">r</text>
  <text id="t-4-4" x="32" y="78" style="fill:currentColor">d</text>
  <text id="t-4-5" x="40" y="78" style="fill:currentColor">v</text>
  <text id="t-4-6" x="48" y="78" style="fill:currentColor">a</text>
  <text id="t-4-7" x="56" y="78" style="fill:currentColor">r</text>
  <text id="t-4-8" x="64" y="78" style="fill:currentColor">k</text>
  <text id="t-4-10" x="80" y="78" style="fill:currentColor">—</text>
  <text id="t-4-12" x="96" y="78" style="fill:currentColor">b</text>
  <text id="t-4-13" x="104" y="78" style="fill:currentColor">u</text>
  <text id="t-4-14" x="112" y="78" style="fill:currentColor">r</text>
  <text id="t-4-15" x="120" y="78" style="fill:currentColor">r</text>
  <text id="t-4-16" x="128" y="78" style="fill:currentColor">o</text>
  <text id="t-4-17" x="136" y="78" style="fill:currentColor">w</text>
  <text id="t-4-18" x="144" y="78" style="fill:currentColor">i</text>
  <text id="t-4-19" x="152" y="78" style="fill:currentColor">n</text>
  <text id="t-4-20" x="160" y="78" style="fill:currentColor">g</text>
  <text id="t-4-22" x="176" y="78" style="fill:currentColor">n</text>
  <text id="t-4-23" x="184" y="78" style="fill:currentColor">o</text>
  <text id="t-4-24" x="192" y="78" style="fill:currentColor">c</text>
  <text id="t-4-25" x="200" y="78" style="fill:currentColor">t</text>
  <text id="t-4-26" x="208" y="78" style="fill:currentColor">u</text>
  <text id="t-4-27" x="216" y="78" style="fill:currentColor">r</text>
  <text id="t-4-28" x="224" y="78" style="fill:currentColor">n</text>
  <text id="t-4-29" x="232" y="78" style="fill:currentColor">a</text>
  <text id="t-4-30" x="240" y="78" style="fill:currentColor">l</text>
  <text id="t-4-32" x="256" y="78" style="fill:currentColor">m</text>
  <text id="t-4-33" x="264" y="78" style="fill:currentColor">a</text>
  <text id="t-4-34" x="272" y="78" style="fill:currentColor">m</text>
  <text id="t-4-35" x="280" y="78" style="fill:currentColor">m</text>
  <text id="t-4-36" x="288" y="78" style="fill:currentColor">a</text>
  <text id="t-4-37" x="296" y="78" style="fill:currentColor">l</text>
  <text id="t-4-59" x="472" y="78" style="fill:currentColor">│</text>
  <text id="t-5-0" x="0" y="94" style="fill:currentColor">│</text>
  <text id="t-5-1" x="8" y="94" style="fill:currentColor">b</text>
  <text id="t-5-2" x="16" y="94" style="fill:currentColor">a</text>
  <text id="t-5-3" x="24" y="94" style="fill:currentColor">l</text>
  <text id="t-5-4" x="32" y="94" style="fill:currentColor">l</text>
  <text id="t-5-5" x="40" y="94" style="fill:currentColor">o</text>
  <text id="t-5-6" x="48" y="94" style="fill:currentColor">o</text>
  <text id="t-5-7" x="56" y="94" style="fill:currentColor">n</text>
  <text id="t-5-9" x="72" y="94" style="fill:currentColor">—</text>
  <text id="t-5-11" x="88" y="94" style="fill:currentColor">i</text>
  <text id="t-5-12" x="96" y="94" style="fill:currentColor">n</text>
  <text id="t-5-13" x="104" y="94" style="fill:currentColor">f</text>
  <text id="t-5-14" x="112" y="94" style="fill:currentColor">l</text>
  <text id="t-5-15" x="120" y="94" style="fill:currentColor">a</text>
  <text id="t-5-16" x="128" y="94" style="fill:currentColor">t</text>
  <text id="t-5-17" x="136" y="94" style="fill:currentColor">a</text>
  <text id="t-5-18" x="144" y="94" style="fill:currentColor">b</text>
  <text id="t-5-19" x="152" y="94" style="fill:currentColor">l</text>
  <text id="t-5-20" x="160" y="94" style="fill:currentColor">e</text>
  <text id="t-5-22" x="176" y="94" style="fill:currentColor">r</text>
  <text id="t-5-23" x="184" y="94" style="fill:currentColor">u</text>
  <text id="t-5-24" x="192" y="94" style="fill:currentColor">b</text>
  <text id="t-5-25" x="200" y="94" style="fill:currentColor">b</text>
  <text id="t-5-26" x="208" y="94" style="fill:currentColor">e</text>
  <text id="t-5-27" x="216" y="94" style="fill:currentColor">r</text>
  <text id="t-5-29" x="232" y="94" style="fill:currentColor">b</text>
  <text id="t-5-30" x="240" y="94" style="fill:currentColor">a</text>
  <text id="t-5-31" x="248" y="94" style="fill:currentColor">g</text>
  <text id="t-5-59" x="472" y="94" style="fill:currentColor">│</text>
  <text id="t-6-0" x="0" y="110" style="fill:currentColor">│</text>
  <text id="t-6-1" x="8" y="110" style="fill:currentColor">c</text>
  <text id="t-6-2" x="16" y="110" style="fill:currentColor">i</text>
  <text id="t-6-3" x="24" y="110" style="fill:currentColor">p</text>
  <text id="t-6-4" x="32" y="110" style="fill:currentColor">h</text>
  <text id="t-6-5" x="40" y="110" style="fill:currentColor">e</text>
  <text id="t-6-6" x="48" y="110" style="fill:currentColor">r</text>
  <text id="t-6-8" x="64" y="110" style="fill:currentColor">—</text>
  <text id="t-6-10" x="80" y="110" style="fill:currentColor">e</text>
  <text id="t-6-11" x="88" y="110" style="fill:currentColor">n</text>
  <text id="t-6-12" x="96" y="110" style="fill:currentColor">c</text>
  <text id="t-6-13" x="104" y="110" style="fill:currentColor">r</text>
  <text id="t-6-14" x="112" y="110" style="fill:currentColor">y</text>
  <text id="t-6-15" x="120" y="110" style="fill:currentColor">p</text>
  <text id="t-6-16" x="128" y="110" style="fill:currentColor">t</text>
  <text id="t-6-17" x="136" y="110" style="fill:currentColor">i</text>
  <text id="t-6-18" x="144" y="110" style="fill:currentColor">o</text>
  <text id="t-6-19" x="152" y="110" style="fill:currentColor">n</text>
  <text id="t-6-21" x="168" y="110" style="fill:currentColor">s</text>
  <text id="t-6-22" x="176" y="110" style="fill:currentColor">c</text>
  <text id="t-6-23" x="184" y="110" style="fill:currentColor">h</text>
  <text id="t-6-24" x="192" y="110" style="fill:currentColor">e</text>
  <text id="t-6-25" x="200" y="110" style="fill:currentColor">m</text>
  <text id="t-6-26" x="208" y="110" style="fill:currentColor">e</text>
  <text id="t-6-59" x="472" y="110" style="fill:currentColor">│</text>
  <text id="t-7-0" x="0" y="126" style="fill:currentColor">│</text>
  <text id="t-7-1" x="8" y="126" style="fill:currentColor">d</text>
  <text id="t-7-2" x="16" y="126" style="fill:currentColor">e</text>
  <text id="t-7-3" x="24" y="126" style="fill:currentColor">l</text>
  <text id="t-7-4" x="32" y="126" style="fill:currentColor">t</text>
  <text id="t-7-5" x="40" y="126" style="fill:currentColor">a</text>
  <text id="t-7-7" x="56" y="126" style="fill:currentColor">—</text>
  <text id="t-7-9" x="72" y="126" style="fill:currentColor">r</text>
  <text id="t-7-10" x="80" y="126" style="fill:currentColor">i</text>
  <text id="t-7-11" x="88" y="126" style="fill:currentColor">v</text>
  <text id="t-7-12" x="96" y="126" style="fill:currentColor">e</text>
  <text id="t-7-13" x="104" y="126" style="fill:currentColor">r</text>
  <text id="t-7-15" x="120" y="126" style="fill:currentColor">m</text>
  <text id="t-7-16" x="128" y="126" style="fill:currentColor">o</text>
  <text id="t-7-17" x="136" y="126" style="fill:currentColor">u</text>
  <text id="t-7-18" x="144" y="126" style="fill:currentColor">t</text>
  <text id="t-7-19" x="152" y="126" style="fill:currentColor">h</text>
  <text id="t-7-59" x="472" y="126" style="fill:currentColor">│</text>
  <text id="t-8-0" x="0" y="142" style="fill:currentColor">│</text>
  <text id="t-8-1" x="8" y="142" style="fill:currentColor">e</text>
  <text id="t-8-2" x="16" y="142" style="fill:currentColor">n</text>
  <text id="t-8-3" x="24" y="142" style="fill:currentColor">t</text>
  <text id="t-8-4" x="32" y="142" style="fill:currentColor">r</text>
  <text id="t-8-5" x="40" y="142" style="fill:currentColor">o</text>
  <text id="t-8-6" x="48" y="142" style="fill:currentColor">p</text>
  <text id="t-8-7" x="56" y="142" style="fill:currentColor">y</text>
  <text id="t-8-9" x="72" y="142" style="fill:currentColor">—</text>
  <text id="t-8-11" x="88" y="142" style="fill:currentColor">t</text>
  <text id="t-8-12" x="96" y="142" style="fill:currentColor">h</text>
  <text id="t-8-13" x="104" y="142" style="fill:currentColor">e</text>
  <text id="t-8-14" x="112" y="142" style="fill:currentColor">r</text>
  <text id="t-8-15" x="120" y="142" style="fill:currentColor">m</text>
  <text id="t-8-16" x="128" y="142" style="fill:currentColor">o</text>
  <text id="t-8-17" x="136" y="142" style="fill:currentColor">d</text>
  <text id="t-8-18" x="144" y="142" style="fill:currentColor">y</text>
  <text id="t-8-19" x="152" y="142" style="fill:currentColor">n</text>
  <text id="t-8-20" x="160" y="142" style="fill:currentColor">a</text>
  <text id="t-8-21" x="168" y="142" style="fill:currentColor">m</text>
  <text id="t-8-22" x="176" y="142" style="fill:currentColor">i</text>
  <text id="t-8-23" x="184" y="142" style="fill:currentColor">c</text>
  <text id="t-8-25" x="200" y="142" style="fill:currentColor">d</text>
  <text id="t-8-26" x="208" y="142" style="fill:currentColor">i</text>
  <text id="t-8-27" x="216" y="142" style="fill:currentColor">s</text>
  <text id="t-8-28" x="224" y="142" style="fill:currentColor">o</text>
  <text id="t-8-29" x="232" y="142" style="fill:currentColor">r</text>
  <text id="t-8-30" x="240" y="142" style="fill:currentColor">d</text>
  <text id="t-8-31" x="248" y="142" style="fill:currentColor">e</text>
  <text id="t-8-32" x="256" y="142" style="fill:currentColor">r</text>
  <text id="t-8-59" x="472" y="142" style="fill:currentColor">│</text>
  <text id="t-9-0" x="0" y="158" style="fill:currentColor">│</text>
  <text id="t-9-1" x="8" y="158" style="fill:currentColor">f</text>
  <text id="t-9-2" x="16" y="158" style="fill:currentColor">o</text>
  <text id="t-9-3" x="24" y="158" style="fill:currentColor">r</text>
  <text id="t-9-4" x="32" y="158" style="fill:currentColor">g</text>
  <text id="t-9-5" x="40" y="158" style="fill:currentColor">e</text>
  <text id="t-9-7" x="56" y="158" style="fill:currentColor">—</text>
  <text id="t-9-9" x="72" y="158" style="fill:currentColor">w</text>
  <text id="t-9-10" x="80" y="158" style="fill:currentColor">o</text>
  <text id="t-9-11" x="88" y="158" style="fill:currentColor">r</text>
  <text id="t-9-12" x="96" y="158" style="fill:currentColor">k</text>
  <text id="t-9-13" x="104" y="158" style="fill:currentColor">s</text>
  <text id="t-9-14" x="112" y="158" style="fill:currentColor">h</text>
  <text id="t-9-15" x="120" y="158" style="fill:currentColor">o</text>
  <text id="t-9-16" x="128" y="158" style="fill:currentColor">p</text>
  <text id="t-9-18" x="144" y="158" style="fill:currentColor">w</text>
  <text id="t-9-19" x="152" y="158" style="fill:currentColor">i</text>
  <text id="t-9-20" x="160" y="158" style="fill:currentColor">t</text>
  <text id="t-9-21" x="168" y="158" style="fill:currentColor">h</text>
  <text id="t-9-23" x="184" y="158" style="fill:currentColor">a</text>
  <text id="t-9-25" x="200" y="158" style="fill:currentColor">h</text>
  <text id="t-9-26" x="208" y="158" style="fill:currentColor">e</text>
  <text id="t-9-27" x="216" y="158" style="fill:currentColor">a</text>
  <text id="t-9-28" x="224" y="158" style="fill:currentColor">r</text>
  <text id="t-9-29" x="232" y="158" style="fill:currentColor">t</text>
  <text id="t-9-30" x="240" y="158" style="fill:currentColor">h</text>
  <text id="t-9-59" x="472" y="158" style="fill:currentColor">│</text>
  <text id="t-10-0" x="0" y="174" style="fill:currentColor">│</text>
  <text id="t-10-1" x="8" y="174" style="fill:currentColor">g</text>
  <text id="t-10-2" x="16" y="174" style="fill:currentColor">a</text>
  <text id="t-10-3" x="24" y="174" style="fill:currentColor">u</text>
  <text id="t-10-4" x="32" y="174" style="fill:currentColor">n</text>
  <text id="t-10-5" x="40" y="174" style="fill:currentColor">t</text>
  <text id="t-10-6" x="48" y="174" style="fill:currentColor">l</text>
  <text id="t-10-7" x="56" y="174" style="fill:currentColor">e</text>
  <text id="t-10-8" x="64" y="174" style="fill:currentColor">t</text>
  <text id="t-10-10" x="80" y="174" style="fill:currentColor">—</text>
  <text id="t-10-12" x="96" y="174" style="fill:currentColor">a</text>
  <text id="t-10-13" x="104" y="174" style="fill:currentColor">r</text>
  <text id="t-10-14" x="112" y="174" style="fill:currentColor">m</text>
  <text id="t-10-15" x="120" y="174" style="fill:currentColor">o</text>
  <text id="t-10-16" x="128" y="174" style="fill:currentColor">u</text>
  <text id="t-10-17" x="136" y="174" style="fill:currentColor">r</text>
  <text id="t-10-18" x="144" y="174" style="fill:currentColor">e</text>
  <text id="t-10-19" x="152" y="174" style="fill:currentColor">d</text>
  <text id="t-10-21" x="168" y="174" style="fill:currentColor">g</text>
  <text id="t-10-22" x="176" y="174" style="fill:currentColor">l</text>
  <text id="t-10-23" x="184" y="174" style="fill:currentColor">o</text>
  <text id="t-10-24" x="192" y="174" style="fill:currentColor">v</text>
  <text id="t-10-25" x="200" y="174" style="fill:currentColor">e</text>
  <text id="t-10-59" x="472" y="174" style="fill:currentColor">│</text>
  <text id="t-11-0" x="0" y="190" style="fill:currentColor">│</text>
  <text id="t-11-1" x="8" y="190" style="fill:currentColor">h</text>
  <text id="t-11-2" x="16" y="190" style="fill:currentColor">a</text>
  <text id="t-11-3" x="24" y="190" style="fill:currentColor">r</text>
  <text id="t-11-4" x="32" y="190" style="fill:currentColor">b</text>
  <text id="t-11-5" x="40" y="190" style="fill:currentColor">o</text>
  <text id="t-11-6" x="48" y="190" style="fill:currentColor">u</text>
  <text id="t-11-7" x="56" y="190" style="fill:currentColor">r</text>
  <text id="t-11-9" x="72" y="190" style="fill:currentColor">—</text>
  <text id="t-11-11" x="88" y="190" style="fill:currentColor">s</text>
  <text id="t-11-12" x="96" y="190" style="fill:currentColor">h</text>
  <text id="t-11-13" x="104" y="190" style="fill:currentColor">e</text>
  <text id="t-11-14" x="112" y="190" style="fill:currentColor">l</text>
  <text id="t-11-15" x="120" y="190" style="fill:currentColor">t</text>
  <text id="t-11-16" x="128" y="190" style="fill:currentColor">e</text>
  <text id="t-11-17" x="136" y="190" style="fill:currentColor">r</text>
  <text id="t-11-18" x="144" y="190" style="fill:currentColor">e</text>
  <text id="t-11-19" x="152" y="190" style="fill:currentColor">d</text>
  <text id="t-11-21" x="168" y="190" style="fill:currentColor">b</text>
  <text id="t-11-22" x="176" y="190" style="fill:currentColor">o</text>
  <text id="t-11-23" x="184" y="190" style="fill:currentColor">d</text>
  <text id="t-11-24" x="192" y="190" style="fill:currentColor">y</text>
  <text id="t-11-26" x="208" y="190" style="fill:currentColor">o</text>
  <text id="t-11-27" x="216" y="190" style="fill:currentColor">f</text>
  <text id="t-11-29" x="232" y="190" style="fill:currentColor">w</text>
  <text id="t-11-30" x="240" y="190" style="fill:currentColor">a</text>
  <text id="t-11-31" x="248" y="190" style="fill:currentColor">t</text>
  <text id="t-11-32" x="256" y="190" style="fill:currentColor">e</text>
  <text id="t-11-33" x="264" y="190" style="fill:currentColor">r</text>
  <text id="t-11-59" x="472" y="190" style="fill:currentColor">│</text>
  <text id="t-12-0" x="0" y="206" style="fill:currentColor">│</text>
  <text id="t-12-1" x="8" y="206" style="fill:currentColor">i</text>
  <text id="t-12-2" x="16" y="206" style="fill:currentColor">n</text>
  <text id="t-12-3" x="24" y="206" style="fill:currentColor">d</text>
  <text id="t-12-4" x="32" y="206" style="fill:currentColor">i</text>
  <text id="t-12-5" x="40" y="206" style="fill:currentColor">g</text>
  <text id="t-12-6" x="48" y="206" style="fill:currentColor">o</text>
  <text id="t-12-8" x="64" y="206" style="fill:currentColor">—</text>
  <text id="t-12-10" x="80" y="206" style="fill:currentColor">d</text>
  <text id="t-12-11" x="88" y="206" style="fill:currentColor">e</text>
  <text id="t-12-12" x="96" y="206" style="fill:currentColor">e</text>
  <text id="t-12-13" x="104" y="206" style="fill:currentColor">p</text>
  <text id="t-12-15" x="120" y="206" style="fill:currentColor">b</text>
  <text id="t-12-16" x="128" y="206" style="fill:currentColor">l</text>
  <text id="t-12-17" x="136" y="206" style="fill:currentColor">u</text>
  <text id="t-12-18" x="144" y="206" style="fill:currentColor">e</text>
  <text id="t-12-20" x="160" y="206" style="fill:currentColor">d</text>
  <text id="t-12-21" x="168" y="206" style="fill:currentColor">y</text>
  <text id="t-12-22" x="176" y="206" style="fill:currentColor">e</text>
  <text id="t-12-59" x="472" y="206" style="fill:currentColor">│</text>
  <text id="t-13-0" x="0" y="222" style="fill:currentColor">│</text>
  <text id="t-13-1" x="8" y="222" style="fill:currentColor">j</text>
  <text id="t-13-2" x="16" y="222" style="fill:currentColor">u</text>
  <text id="t-13-3" x="24" y="222" style="fill:currentColor">n</text>
  <text id="t-13-4" x="32" y="222" style="fill:currentColor">i</text>
  <text id="t-13-5" x="40" y="222" style="fill:currentColor">p</text>
  <text id="t-13-6" x="48" y="222" style="fill:currentColor">e</text>
  <text id="t-13-7" x="56" y="222" style="fill:currentColor">r</text>
  <text id="t-13-9" x="72" y="222" style="fill:currentColor">—</text>
  <text id="t-13-11" x="88" y="222" style="fill:currentColor">e</text>
  <text id="t-13-12" x="96" y="222" style="fill:currentColor">v</text>
  <text id="t-13-13" x="104" y="222" style="fill:currentColor">e</text>
  <text id="t-13-14" x="112" y="222" style="fill:currentColor">r</text>
  <text id="t-13-15" x="120" y="222" style="fill:currentColor">g</text>
  <text id="t-13-16" x="128" y="222" style="fill:currentColor">r</text>
  <text id="t-13-17" x="136" y="222" style="fill:currentColor">e</text>
  <text id="t-13-18" x="144" y="222" style="fill:currentColor">e</text>
  <text id="t-13-19" x="152" y="222" style="fill:currentColor">n</text>
  <text id="t-13-21" x="168" y="222" style="fill:currentColor">s</text>
  <text id="t-13-22" x="176" y="222" style="fill:currentColor">h</text>
  <text id="t-13-23" x="184" y="222" style="fill:currentColor">r</text>
  <text id="t-13-24" x="192" y="222" style="fill:currentColor">u</text>
  <text id="t-13-25" x="200" y="222" style="fill:currentColor">b</text>
  <text id="t-13-59" x="472" y="222" style="fill:currentColor">│</text>
  <text id="t-14-0" x="0" y="238" style="fill:currentColor">│</text>
  <text id="t-14-1" x="8" y="238" style="fill:currentColor">k</text>
  <text id="t-14-2" x="16" y="238" style="fill:currentColor">e</text>
  <text id="t-14-3" x="24" y="238" style="fill:currentColor">s</text>
  <text id="t-14-4" x="32" y="238" style="fill:currentColor">t</text>
  <text id="t-14-5" x="40" y="238" style="fill:currentColor">r</text>
  <text id="t-14-6" x="48" y="238" style="fill:currentColor">e</text>
  <text id="t-14-7" x="56" y="238" style="fill:currentColor">l</text>
  <text id="t-14-9" x="72" y="238" style="fill:currentColor">—</text>
  <text id="t-14-11" x="88" y="238" style="fill:currentColor">s</text>
  <text id="t-14-12" x="96" y="238" style="fill:currentColor">m</text>
  <text id="t-14-13" x="104" y="238" style="fill:currentColor">a</text>
  <text id="t-14-14" x="112" y="238" style="fill:currentColor">l</text>
  <text id="t-14-15" x="120" y="238" style="fill:currentColor">l</text>
  <text id="t-14-17" x="136" y="238" style="fill:currentColor">f</text>
  <text id="t-14-18" x="144" y="238" style="fill:currentColor">a</text>
  <text id="t-14-19" x="152" y="238" style="fill:currentColor">l</text>
  <text id="t-14-20" x="160" y="238" style="fill:currentColor">c</text>
  <text id="t-14-21" x="168" y="238" style="fill:currentColor">o</text>
  <text id="t-14-22" x="176" y="238" style="fill:currentColor">n</text>
  <text id="t-14-59" x="472" y="238" style="fill:currentColor">│</text>
  <text id="t-15-0" x="0" y="254" style="fill:currentColor">│</text>
  <text id="t-15-1" x="8" y="254" style="fill:currentColor">l</text>
  <text id="t-15-2" x="16" y="254" style="fill:currentColor">a</text>
  <text id="t-15-3" x="24" y="254" style="fill:currentColor">n</text>
  <text id="t-15-4" x="32" y="254" style="fill:currentColor">t</text>
  <text id="t-15-5" x="40" y="254" style="fill:currentColor">e</text>
  <text id="t-15-6" x="48" y="254" style="fill:currentColor">r</text>
  <text id="t-15-7" x="56" y="254" style="fill:currentColor">n</text>
  <text id="t-15-9" x="72" y="254" style="fill:currentColor">—</text>
  <text id="t-15-11" x="88" y="254" style="fill:currentColor">p</text>
  <text id="t-15-12" x="96" y="254" style="fill:currentColor">o</text>
  <text id="t-15-13" x="104" y="254" style="fill:currentColor">r</text>
  <text id="t-15-14" x="112" y="254" style="fill:currentColor">t</text>
  <text id="t-15-15" x="120" y="254" style="fill:currentColor">a</text>
  <text id="t-15-16" x="128" y="254" style="fill:currentColor">b</text>
  <text id="t-15-17" x="136" y="254" style="fill:currentColor">l</text>
  <text id="t-15-18" x="144" y="254" style="fill:currentColor">e</text>
  <text id="t-15-20" x="160" y="254" style="fill:currentColor">l</text>
  <text id="t-15-21" x="168" y="254" style="fill:currentColor">i</text>
  <text id="t-15-22" x="176" y="254" style="fill:currentColor">g</text>
  <text id="t-15-23" x="184" y="254" style="fill:currentColor">h</text>
  <text id="t-15-24" x="192" y="254" style="fill:currentColor">t</text>
  <text id="t-15-59" x="472" y="254" style="fill:currentColor">│</text>
  <text id="t-16-0" x="0" y="270" style="fill:currentColor">│</text>
  <text id="t-16-1" x="8" y="270" style="fill:currentColor">m</text>
  <text id="t-16-2" x="16" y="270" style="fill:currentColor">e</text>
  <text id="t-16-3" x="24" y="270" style="fill:currentColor">r</text>
  <text id="t-16-4" x="32" y="270" style="fill:currentColor">i</text>
  <text id="t-16-5" x="40" y="270" style="fill:currentColor">d</text>
  <text id="t-16-6" x="48" y="270" style="fill:currentColor">i</text>
  <text id="t-16-7" x="56" y="270" style="fill:currentColor">a</text>
  <text id="t-16-8" x="64" y="270" style="fill:currentColor">n</text>
  <text id="t-16-10" x="80" y="270" style="fill:currentColor">—</text>
  <text id="t-16-12" x="96" y="270" style="fill:currentColor">g</text>
  <text id="t-16-13" x="104" y="270" style="fill:currentColor">r</text>
  <text id="t-16-14" x="112" y="270" style="fill:currentColor">e</text>
  <text id="t-16-15" x="120" y="270" style="fill:currentColor">a</text>
  <text id="t-16-16" x="128" y="270" style="fill:currentColor">t</text>
  <text id="t-16-18" x="144" y="270" style="fill:currentColor">c</text>
  <text id="t-16-19" x="152" y="270" style="fill:currentColor">i</text>
  <text id="t-16-20" x="160" y="270" style="fill:currentColor">r</text>
  <text id="t-16-21" x="168" y="270" style="fill:currentColor">c</text>
  <text id="t-16-22" x="176" y="270" style="fill:currentColor">l</text>
  <text id="t-16-23" x="184" y="270" style="fill:currentColor">e</text>
  <text id="t-16-25" x="200" y="270" style="fill:currentColor">o</text>
  <text id="t-16-26" x="208" y="270" style="fill:currentColor">f</text>
  <text id="t-16-28" x="224" y="270" style="fill:currentColor">l</text>
  <text id="t-16-29" x="232" y="270" style="fill:currentColor">o</text>
  <text id="t-16-30" x="240" y="270" style="fill:currentColor">n</text>
  <text id="t-16-31" x="248" y="270" style="fill:currentColor">g</text>
  <text id="t-16-32" x="256" y="270" style="fill:currentColor">i</text>
  <text id="t-16-33" x="264" y="270" style="fill:currentColor">t</text>
  <text id="t-16-34" x="272" y="270" style="fill:currentColor">u</text>
  <text id="t-16-35" x="280" y="270" style="fill:currentColor">d</text>
  <text id="t-16-36" x="288" y="270" style="fill:currentColor">e</text>
  <text id="t-16-59" x="472" y="270" style="fill:currentColor">│</text>
  <text id="t-17-0" x="0" y="286" style="fill:currentColor">│</text>
  <text id="t-17-1" x="8" y="286" style="fill:currentColor">n</text>
  <text id="t-17-2" x="16" y="286" style="fill:currentColor">e</text>
  <text id="t-17-3" x="24" y="286" style="fill:currentColor">b</text>
  <text id="t-17-4" x="32" y="286" style="fill:currentColor">u</text>
  <text id="t-17-5" x="40" y="286" style="fill:currentColor">l</text>
  <text id="t-17-6" x="48" y="286" style="fill:currentColor">a</text>
  <text id="t-17-8" x="64" y="286" style="fill:currentColor">—</text>
  <text id="t-17-10" x="80" y="286" style="fill:currentColor">i</text>
  <text id="t-17-11" x="88" y="286" style="fill:currentColor">n</text>
  <text id="t-17-12" x="96" y="286" style="fill:currentColor">t</text>
  <text id="t-17-13" x="104" y="286" style="fill:currentColor">e</text>
  <text id="t-17-14" x="112" y="286" style="fill:currentColor">r</text>
  <text id="t-17-15" x="120" y="286" style="fill:currentColor">s</text>
  <text id="t-17-16" x="128" y="286" style="fill:currentColor">t</text>
  <text id="t-17-17" x="136" y="286" style="fill:currentColor">e</text>
  <text id="t-17-18" x="144" y="286" style="fill:currentColor">l</text>
  <text id="t-17-19" x="152" y="286" style="fill:currentColor">l</text>
  <text id="t-17-20" x="160" y="286" style="fill:currentColor">a</text>
  <text id="t-17-21" x="168" y="286" style="fill:currentColor">r</text>
  <text id="t-17-23" x="184" y="286" style="fill:currentColor">c</text>
  <text id="t-17-24" x="192" y="286" style="fill:currentColor">l</text>
  <text id="t-17-25" x="200" y="286" style="fill:currentColor">o</text>
  <text id="t-17-26" x="208" y="286" style="fill:currentColor">u</text>
  <text id="t-17-27" x="216" y="286" style="fill:currentColor">d</text>
  <text id="t-17-59" x="472" y="286" style="fill:currentColor">│</text>
  <text id="t-18-0" x="0" y="302" style="fill:currentColor">│</text>
  <text id="t-18-1" x="8" y="302" style="fill:currentColor">o</text>
  <text id="t-18-2" x="16" y="302" style="fill:currentColor">r</text>
  <text id="t-18-3" x="24" y="302" style="fill:currentColor">c</text>
  <text id="t-18-4" x="32" y="302" style="fill:currentColor">h</text>
  <text id="t-18-5" x="40" y="302" style="fill:currentColor">i</text>
  <text id="t-18-6" x="48" y="302" style="fill:currentColor">d</text>
  <text id="t-18-8" x="64" y="302" style="fill:currentColor">—</text>
  <text id="t-18-10" x="80" y="302" style="fill:currentColor">f</text>
  <text id="t-18-11" x="88" y="302" style="fill:currentColor">l</text>
  <text id="t-18-12" x="96" y="302" style="fill:currentColor">o</text>
  <text id="t-18-13" x="104" y="302" style="fill:currentColor">w</text>
  <text id="t-18-14" x="112" y="302" style="fill:currentColor">e</text>
  <text id="t-18-15" x="120" y="302" style="fill:currentColor">r</text>
  <text id="t-18-16" x="128" y="302" style="fill:currentColor">i</text>
  <text id="t-18-17" x="136" y="302" style="fill:currentColor">n</text>
  <text id="t-18-18" x="144" y="302" style="fill:currentColor">g</text>
  <text id="t-18-20" x="160" y="302" style="fill:currentColor">p</text>
  <text id="t-18-21" x="168" y="302" style="fill:currentColor">l</text>
  <text id="t-18-22" x="176" y="302" style="fill:currentColor">a</text>
  <text id="t-18-23" x="184" y="302" style="fill:currentColor">n</text>
  <text id="t-18-24" x="192" y="302" style="fill:currentColor">t</text>
  <text id="t-18-59" x="472" y="302" style="fill:currentColor">│</text>
  <text id="t-19-0" x="0" y="318" style="fill:currentColor">│</text>
  <text id="t-19-1" x="8" y="318" style="fill:currentColor">p</text>
  <text id="t-19-2" x="16" y="318" style="fill:currentColor">y</text>
  <text id="t-19-3" x="24" y="318" style="fill:currentColor">r</text>
  <text id="t-19-4" x="32" y="318" style="fill:currentColor">a</text>
  <text id="t-19-5" x="40" y="318" style="fill:currentColor">m</text>
  <text id="t-19-6" x="48" y="318" style="fill:currentColor">i</text>
  <text id="t-19-7" x="56" y="318" style="fill:currentColor">d</text>
  <text id="t-19-9" x="72" y="318" style="fill:currentColor">—</text>
  <text id="t-19-11" x="88" y="318" style="fill:currentColor">p</text>
  <text id="t-19-12" x="96" y="318" style="fill:currentColor">o</text>
  <text id="t-19-13" x="104" y="318" style="fill:currentColor">l</text>
  <text id="t-19-14" x="112" y="318" style="fill:currentColor">y</text>
  <text id="t-19-15" x="120" y="318" style="fill:currentColor">h</text>
  <text id="t-19-16" x="128" y="318" style="fill:currentColor">e</text>
  <text id="t-19-17" x="136" y="318" style="fill:currentColor">d</text>
  <text id="t-19-18" x="144" y="318" style="fill:currentColor">r</text>
  <text id="t-19-19" x="152" y="318" style="fill:currentColor">a</text>
  <text id="t-19-20" x="160" y="318" style="fill:currentColor">l</text>
  <text id="t-19-22" x="176" y="318" style="fill:currentColor">s</text>
  <text id="t-19-23" x="184" y="318" style="fill:currentColor">t</text>
  <text id="t-19-24" x="192" y="318" style="fill:currentColor">r</text>
  <text id="t-19-25" x="200" y="318" style="fill:currentColor">u</text>
  <text id="t-19-26" x="208" y="318" style="fill:currentColor">c</text>
  <text id="t-19-27" x="216" y="318" style="fill:currentColor">t</text>
  <text id="t-19-28" x="224" y="318" style="fill:currentColor">u</text>
  <text id="t-19-29" x="232" y="318" style="fill:currentColor">r</text>
  <text id="t-19-30" x="240" y="318" style="fill:currentColor">e</text>
  <text id="t-19-59" x="472" y="318" style="fill:currentColor">│</text>

  <rect id="box-3" x="0" y="0" width="480" height="16" fill="none" stroke="#3399ff" stroke-width="1"/>
  <rect id="box-5" x="0" y="16" width="480" height="16" fill="none" stroke="#3399ff" stroke-width="1"/>
  <rect id="box-7" x="0" y="32" width="480" height="16" fill="none" stroke="#3399ff" stroke-width="1"/>
  <rect id="box-10" x="0" y="48" width="480" height="16" fill="none" stroke="#3399ff" stroke-width="1"/>
  <rect id="box-12" x="0" y="64" width="480" height="16" fill="none" stroke="#3399ff" stroke-width="1"/>
  <rect id="box-14" x="0" y="80" width="480" height="16" fill="none" stroke="#3399ff" stroke-width="1"/>
  <rect id="box-16" x="0" y="96" width="480" height="16" fill="none" stroke="#3399ff" stroke-width="1"/>
  <rect id="box-18" x="0" y="112" width="480" height="16" fill="none" stroke="#3399ff" stroke-width="1"/>
  <rect id="box-20" x="0" y="128" width="480" height="16" fill="none" stroke="#3399ff" stroke-width="1"/>
  <rect id="box-22" x="0" y="144" width="480" height="16" fill="none" stroke="#3399ff" stroke-width="1"/>
  <rect id="box-24" x="0" y="160" width="480" height="16" fill="none" stroke="#3399ff" stroke-width="1"/>
  <rect id="box-26" x="0" y="176" width="480" height="16" fill="none" stroke="#3399ff" stroke-width="1"/>
  <rect id="box-28" x="0" y="192" width="480" height="16" fill="none" stroke="#3399ff" stroke-width="1"/>
  <rect id="box-30" x="0" y="208" width="480" height="16" fill="none" stroke="#3399ff" stroke-width="1"/>
  <rect id="box-32" x="0" y="224" width="480" height="16" fill="none" stroke="#3399ff" stroke-width="1"/>
  <rect id="box-34" x="0" y="240" width="480" height="16" fill="none" stroke="#3399ff" stroke-width="1"/>
  <rect id="box-36" x="0" y="256" width="480" height="16" fill="none" stroke="#3399ff" stroke-width="1"/>
  <rect id="box-38" x="0" y="272" width="480" height="16" fill="none" stroke="#3399ff" stroke-width="1"/>
  <rect id="box-40" x="0" y="288" width="480" height="16" fill="none" stroke="#3399ff" stroke-width="1"/>
  <rect id="box-42" x="0" y="304" width="480" height="16" fill="none" stroke="#3399ff" stroke-width="1"/>
  <rect id="box-44" x="0" y="320" width="480" height="16" fill="none" stroke="#3399ff" stroke-width="1"/>
</svg>
