<?xml version="1.0" encoding="UTF-8"?>
<svg xmlns="http://www.w3.org/2000/svg" width="320" height="128" viewBox="0 0 320 128" font-family="monospace" font-size="16">
  <text id="t-0-0" x="0" y="14" style="fill:currentColor">a</text>
  <text id="t-0-1" x="8" y="14" style="fill:currentColor">b</text>
  <text id="t-0-2" x="16" y="14" style="fill:currentColor">👨</text>
  <text id="t-0-4" x="32" y="14" style="fill:currentColor">👩</text>
  <text id="t-0-6" x="48" y="14" style="fill:currentColor">👧</text>
  <text id="t-0-8" x="64" y="14" style="fill:currentColor">c</text>
  <text id="t-1-0" x="0" y="30" style="fill:currentColor">d</text>
  <text id="t-1-1" x="8" y="30" style="fill:currentColor">👨</text>
  <text id="t-1-3" x="24" y="30" style="fill:currentColor">👩</text>
  <text id="t-1-5" x="40" y="30" style="fill:currentColor">👧</text>
  <text id="t-1-7" x="56" y="30" style="fill:currentColor">e</text>

  <rect id="box-4" x="0" y="0" width="320" height="16" fill="none" stroke="#3399ff" stroke-width="1"/>
  <rect id="box-6" x="0" y="16" width="320" height="16" fill="none" stroke="#3399ff" stroke-width="1"/>
  <rect id="box-8" x="0" y="32" width="320" height="16" fill="none" stroke="#3399ff" stroke-width="1"/>
  <rect id="box-10" x="0" y="48" width="320" height="16" fill="none" stroke="#3399ff" stroke-width="1"/>
  <rect id="box-12" x="0" y="64" width="320" height="16" fill="none" stroke="#3399ff" stroke-width="1"/>
  <rect id="box-14" x="0" y="80" width="320" height="16" fill="none" stroke="#3399ff" stroke-width="1"/>
  <rect id="dirty-0-0" x="0" y="0" width="24" height="16" fill="#ff0000" fill-opacity="0.2"/>
  <rect id="dirty-0-4" x="32" y="0" width="8" height="16" fill="#ff0000" fill-opacity="0.2"/>
  <rect id="dirty-0-6" x="48" y="0" width="8" height="16" fill="#ff0000" fill-opacity="0.2"/>
  <rect id="dirty-0-8" x="64" y="0" width="8" height="16" fill="#ff0000" fill-opacity="0.2"/>
  <rect id="dirty-1-0" x="0" y="16" width="16" height="16" fill="#ff0000" fill-opacity="0.2"/>
  <rect id="dirty-1-3" x="24" y="16" width="8" height="16" fill="#ff0000" fill-opacity="0.2"/>
  <rect id="dirty-1-5" x="40" y="16" width="8" height="16" fill="#ff0000" fill-opacity="0.2"/>
  <rect id="dirty-1-7" x="56" y="16" width="16" height="16" fill="#ff0000" fill-opacity="0.2"/>
</svg>
