<?xml version="1.0" encoding="UTF-8"?>
<svg xmlns="http://www.w3.org/2000/svg" width="320" height="128" viewBox="0 0 320 128" font-family="monospace" font-size="16">
  <text id="t-0-0" x="0" y="14" style="fill:currentColor">╭</text>
  <text id="t-0-1" x="8" y="14" style="fill:currentColor">─</text>
  <text id="t-0-2" x="16" y="14" style="fill:currentColor">─</text>
  <text id="t-0-3" x="24" y="14" style="fill:currentColor">─</text>
  <text id="t-0-4" x="32" y="14" style="fill:currentColor">─</text>
  <text id="t-0-5" x="40" y="14" style="fill:currentColor">─</text>
  <text id="t-0-6" x="48" y="14" style="fill:currentColor">─</text>
  <text id="t-0-7" x="56" y="14" style="fill:currentColor">─</text>
  <text id="t-0-8" x="64" y="14" style="fill:currentColor">─</text>
  <text id="t-0-9" x="72" y="14" style="fill:currentColor">─</text>
  <text id="t-0-10" x="80" y="14" style="fill:currentColor">─</text>
  <text id="t-0-11" x="88" y="14" style="fill:currentColor">─</text>
  <text id="t-0-12" x="96" y="14" style="fill:currentColor">─</text>
  <text id="t-0-13" x="104" y="14" style="fill:currentColor">─</text>
  <text id="t-0-14" x="112" y="14" style="fill:currentColor">─</text>
  <text id="t-0-15" x="120" y="14" style="fill:currentColor">╮</text>
  <text id="t-1-0" x="0" y="30" style="fill:currentColor">│</text>
  <text id="t-1-1" x="8" y="30" style="fill:currentColor">B</text>
  <text id="t-1-2" x="16" y="30" style="fill:currentColor">u</text>
  <text id="t-1-3" x="24" y="30" style="fill:currentColor">t</text>
  <text id="t-1-4" x="32" y="30" style="fill:currentColor">t</text>
  <text id="t-1-5" x="40" y="30" style="fill:currentColor">o</text>
  <text id="t-1-6" x="48" y="30" style="fill:currentColor">n</text>
  <text id="t-1-7" x="56" y="30" style="fill:currentColor">w</text>
  <text id="t-1-8" x="64" y="30" style="fill:currentColor">i</text>
  <text id="t-1-9" x="72" y="30" style="fill:currentColor">t</text>
  <text id="t-1-10" x="80" y="30" style="fill:currentColor">h</text>
  <text id="t-1-11" x="88" y="30" style="fill:currentColor">m</text>
  <text id="t-1-12" x="96" y="30" style="fill:currentColor">u</text>
  <text id="t-1-13" x="104" y="30" style="fill:currentColor">l</text>
  <text id="t-1-14" x="112" y="30" style="fill:currentColor">t</text>
  <text id="t-1-15" x="120" y="30" style="fill:currentColor">│</text>
  <text id="t-2-0" x="0" y="46" style="fill:currentColor">╰</text>
  <text id="t-2-1" x="8" y="46" style="fill:currentColor">─</text>
  <text id="t-2-2" x="16" y="46" style="fill:currentColor">─</text>
  <text id="t-2-3" x="24" y="46" style="fill:currentColor">─</text>
  <text id="t-2-4" x="32" y="46" style="fill:currentColor">─</text>
  <text id="t-2-5" x="40" y="46" style="fill:currentColor">─</text>
  <text id="t-2-6" x="48" y="46" style="fill:currentColor">─</text>
  <text id="t-2-7" x="56" y="46" style="fill:currentColor">─</text>
  <text id="t-2-8" x="64" y="46" style="fill:currentColor">─</text>
  <text id="t-2-9" x="72" y="46" style="fill:currentColor">─</text>
  <text id="t-2-10" x="80" y="46" style="fill:currentColor">─</text>
  <text id="t-2-11" x="88" y="46" style="fill:currentColor">─</text>
  <text id="t-2-12" x="96" y="46" style="fill:currentColor">─</text>
  <text id="t-2-13" x="104" y="46" style="fill:currentColor">─</text>
  <text id="t-2-14" x="112" y="46" style="fill:currentColor">─</text>
  <text id="t-2-15" x="120" y="46" style="fill:currentColor">╯</text>
</svg>
