<?xml version="1.0" encoding="UTF-8"?>
<svg xmlns="http://www.w3.org/2000/svg" width="320" height="96" viewBox="0 0 320 96" font-family="monospace" font-size="16">
  <text id="t-0-0" x="0" y="14" style="fill:currentColor">╭</text>
  <text id="t-0-1" x="8" y="14" style="fill:currentColor">─</text>
  <text id="t-0-2" x="16" y="14" style="fill:currentColor">─</text>
  <text id="t-0-3" x="24" y="14" style="fill:currentColor">─</text>
  <text id="t-0-4" x="32" y="14" style="fill:currentColor">─</text>
  <text id="t-0-5" x="40" y="14" style="fill:currentColor">─</text>
  <text id="t-0-6" x="48" y="14" style="fill:currentColor">─</text>
  <text id="t-0-7" x="56" y="14" style="fill:currentColor">─</text>
  <text id="t-0-8" x="64" y="14" style="fill:currentColor">─</text>
  <text id="t-0-9" x="72" y="14" style="fill:currentColor">─</text>
  <text id="t-0-10" x="80" y="14" style="fill:currentColor">─</text>
  <text id="t-0-11" x="88" y="14" style="fill:currentColor">─</text>
  <text id="t-0-12" x="96" y="14" style="fill:currentColor">─</text>
  <text id="t-0-13" x="104" y="14" style="fill:currentColor">─</text>
  <text id="t-0-14" x="112" y="14" style="fill:currentColor">─</text>
  <text id="t-0-15" x="120" y="14" style="fill:currentColor">─</text>
  <text id="t-0-16" x="128" y="14" style="fill:currentColor">─</text>
  <text id="t-0-17" x="136" y="14" style="fill:currentColor">─</text>
  <text id="t-0-18" x="144" y="14" style="fill:currentColor">─</text>
  <text id="t-0-19" x="152" y="14" style="fill:currentColor">─</text>
  <text id="t-0-20" x="160" y="14" style="fill:currentColor">─</text>
  <text id="t-0-21" x="168" y="14" style="fill:currentColor">─</text>
  <text id="t-0-22" x="176" y="14" style="fill:currentColor">─</text>
  <text id="t-0-23" x="184" y="14" style="fill:currentColor">─</text>
  <text id="t-0-24" x="192" y="14" style="fill:currentColor">─</text>
  <text id="t-0-25" x="200" y="14" style="fill:currentColor">─</text>
  <text id="t-0-26" x="208" y="14" style="fill:currentColor">─</text>
  <text id="t-0-27" x="216" y="14" style="fill:currentColor">─</text>
  <text id="t-0-28" x="224" y="14" style="fill:currentColor">─</text>
  <text id="t-0-29" x="232" y="14" style="fill:currentColor">─</text>
  <text id="t-0-30" x="240" y="14" style="fill:currentColor">─</text>
  <text id="t-0-31" x="248" y="14" style="fill:currentColor">╮</text>
  <text id="t-1-0" x="0" y="30" style="fill:currentColor">│</text>
  <text id="t-1-1" x="8" y="30" style="fill:currentColor">h</text>
  <text id="t-1-2" x="16" y="30" style="fill:currentColor">e</text>
  <text id="t-1-3" x="24" y="30" style="fill:currentColor">l</text>
  <text id="t-1-4" x="32" y="30" style="fill:currentColor">l</text>
  <text id="t-1-5" x="40" y="30" style="fill:currentColor">o</text>
  <text id="t-1-31" x="248" y="30" style="fill:currentColor">│</text>
  <text id="t-2-0" x="0" y="46" style="fill:currentColor">│</text>
  <text id="t-2-31" x="248" y="46" style="fill:currentColor">│</text>
  <text id="t-3-0" x="0" y="62" style="fill:currentColor">│</text>
  <text id="t-3-31" x="248" y="62" style="fill:currentColor">│</text>
  <text id="t-4-0" x="0" y="78" style="fill:currentColor">╰</text>
  <text id="t-4-1" x="8" y="78" style="fill:currentColor">─</text>
  <text id="t-4-2" x="16" y="78" style="fill:currentColor">─</text>
  <text id="t-4-3" x="24" y="78" style="fill:currentColor">─</text>
  <text id="t-4-4" x="32" y="78" style="fill:currentColor">─</text>
  <text id="t-4-5" x="40" y="78" style="fill:currentColor">─</text>
  <text id="t-4-6" x="48" y="78" style="fill:currentColor">─</text>
  <text id="t-4-7" x="56" y="78" style="fill:currentColor">─</text>
  <text id="t-4-8" x="64" y="78" style="fill:currentColor">─</text>
  <text id="t-4-9" x="72" y="78" style="fill:currentColor">─</text>
  <text id="t-4-10" x="80" y="78" style="fill:currentColor">─</text>
  <text id="t-4-11" x="88" y="78" style="fill:currentColor">─</text>
  <text id="t-4-12" x="96" y="78" style="fill:currentColor">─</text>
  <text id="t-4-13" x="104" y="78" style="fill:currentColor">─</text>
  <text id="t-4-14" x="112" y="78" style="fill:currentColor">─</text>
  <text id="t-4-15" x="120" y="78" style="fill:currentColor">─</text>
  <text id="t-4-16" x="128" y="78" style="fill:currentColor">─</text>
  <text id="t-4-17" x="136" y="78" style="fill:currentColor">─</text>
  <text id="t-4-18" x="144" y="78" style="fill:currentColor">─</text>
  <text id="t-4-19" x="152" y="78" style="fill:currentColor">─</text>
  <text id="t-4-20" x="160" y="78" style="fill:currentColor">─</text>
  <text id="t-4-21" x="168" y="78" style="fill:currentColor">─</text>
  <text id="t-4-22" x="176" y="78" style="fill:currentColor">─</text>
  <text id="t-4-23" x="184" y="78" style="fill:currentColor">─</text>
  <text id="t-4-24" x="192" y="78" style="fill:currentColor">─</text>
  <text id="t-4-25" x="200" y="78" style="fill:currentColor">─</text>
  <text id="t-4-26" x="208" y="78" style="fill:currentColor">─</text>
  <text id="t-4-27" x="216" y="78" style="fill:currentColor">─</text>
  <text id="t-4-28" x="224" y="78" style="fill:currentColor">─</text>
  <text id="t-4-29" x="232" y="78" style="fill:currentColor">─</text>
  <text id="t-4-30" x="240" y="78" style="fill:currentColor">─</text>
  <text id="t-4-31" x="248" y="78" style="fill:currentColor">╯</text>
</svg>
