<?xml version="1.0" encoding="UTF-8"?>
<svg xmlns="http://www.w3.org/2000/svg" width="480" height="144" viewBox="0 0 480 144" font-family="monospace" font-size="16">
  <text id="t-0-1" x="8" y="14" style="fill:currentColor">▅</text>
  <text id="t-0-12" x="96" y="14" style="fill:currentColor">▃</text>
  <text id="t-0-16" x="128" y="14" style="fill:currentColor">█</text>
  <text id="t-0-17" x="136" y="14" style="fill:currentColor">▄</text>
  <text id="t-0-21" x="168" y="14" style="fill:currentColor">▇</text>
  <text id="t-0-25" x="200" y="14" style="fill:currentColor">▃</text>
  <text id="t-0-28" x="224" y="14" style="fill:currentColor">▄</text>
  <text id="t-0-30" x="240" y="14" style="fill:currentColor">▅</text>
  <text id="t-0-31" x="248" y="14" style="fill:currentColor">▇</text>
  <text id="t-0-45" x="360" y="14" style="fill:currentColor">▅</text>
  <text id="t-0-48" x="384" y="14" style="fill:currentColor">▅</text>
  <text id="t-0-50" x="400" y="14" style="fill:currentColor">▂</text>
  <text id="t-0-59" x="472" y="14" style="fill:currentColor">▂</text>
  <text id="t-1-1" x="8" y="30" style="fill:currentColor">█</text>
  <text id="t-1-2" x="16" y="30" style="fill:currentColor">▃</text>
  <text id="t-1-3" x="24" y="30" style="fill:currentColor">▂</text>
  <text id="t-1-4" x="32" y="30" style="fill:currentColor">█</text>
  <text id="t-1-5" x="40" y="30" style="fill:currentColor">▃</text>
  <text id="t-1-6" x="48" y="30" style="fill:currentColor">▄</text>
  <text id="t-1-7" x="56" y="30" style="fill:currentColor">▁</text>
  <text id="t-1-8" x="64" y="30" style="fill:currentColor">▄</text>
  <text id="t-1-9" x="72" y="30" style="fill:currentColor">▃</text>
  <text id="t-1-10" x="80" y="30" style="fill:currentColor">▃</text>
  <text id="t-1-12" x="96" y="30" style="fill:currentColor">█</text>
  <text id="t-1-13" x="104" y="30" style="fill:currentColor">▁</text>
  <text id="t-1-14" x="112" y="30" style="fill:currentColor">▂</text>
  <text id="t-1-15" x="120" y="30" style="fill:currentColor">▂</text>
  <text id="t-1-16" x="128" y="30" style="fill:currentColor">█</text>
  <text id="t-1-17" x="136" y="30" style="fill:currentColor">█</text>
  <text id="t-1-18" x="144" y="30" style="fill:currentColor">▂</text>
  <text id="t-1-19" x="152" y="30" style="fill:currentColor">▃</text>
  <text id="t-1-20" x="160" y="30" style="fill:currentColor">▂</text>
  <text id="t-1-21" x="168" y="30" style="fill:currentColor">█</text>
  <text id="t-1-22" x="176" y="30" style="fill:currentColor">▇</text>
  <text id="t-1-25" x="200" y="30" style="fill:currentColor">█</text>
  <text id="t-1-28" x="224" y="30" style="fill:currentColor">█</text>
  <text id="t-1-30" x="240" y="30" style="fill:currentColor">█</text>
  <text id="t-1-31" x="248" y="30" style="fill:currentColor">█</text>
  <text id="t-1-32" x="256" y="30" style="fill:currentColor">▅</text>
  <text id="t-1-41" x="328" y="30" style="fill:currentColor">▁</text>
  <text id="t-1-43" x="344" y="30" style="fill:currentColor">▂</text>
  <text id="t-1-45" x="360" y="30" style="fill:currentColor">█</text>
  <text id="t-1-46" x="368" y="30" style="fill:currentColor">▂</text>
  <text id="t-1-48" x="384" y="30" style="fill:currentColor">█</text>
  <text id="t-1-49" x="392" y="30" style="fill:currentColor">▄</text>
  <text id="t-1-50" x="400" y="30" style="fill:currentColor">█</text>
  <text id="t-1-51" x="408" y="30" style="fill:currentColor">▁</text>
  <text id="t-1-53" x="424" y="30" style="fill:currentColor">▂</text>
  <text id="t-1-54" x="432" y="30" style="fill:currentColor">▆</text>
  <text id="t-1-56" x="448" y="30" style="fill:currentColor">▇</text>
  <text id="t-1-59" x="472" y="30" style="fill:currentColor">█</text>
  <text id="t-2-0" x="0" y="46" style="fill:currentColor">▄</text>
  <text id="t-2-1" x="8" y="46" style="fill:currentColor">█</text>
  <text id="t-2-2" x="16" y="46" style="fill:currentColor">█</text>
  <text id="t-2-3" x="24" y="46" style="fill:currentColor">█</text>
  <text id="t-2-4" x="32" y="46" style="fill:currentColor">█</text>
  <text id="t-2-5" x="40" y="46" style="fill:currentColor">█</text>
  <text id="t-2-6" x="48" y="46" style="fill:currentColor">█</text>
  <text id="t-2-7" x="56" y="46" style="fill:currentColor">█</text>
  <text id="t-2-8" x="64" y="46" style="fill:currentColor">█</text>
  <text id="t-2-9" x="72" y="46" style="fill:currentColor">█</text>
  <text id="t-2-10" x="80" y="46" style="fill:currentColor">█</text>
  <text id="t-2-11" x="88" y="46" style="fill:currentColor">▆</text>
  <text id="t-2-12" x="96" y="46" style="fill:currentColor">█</text>
  <text id="t-2-13" x="104" y="46" style="fill:currentColor">█</text>
  <text id="t-2-14" x="112" y="46" style="fill:currentColor">█</text>
  <text id="t-2-15" x="120" y="46" style="fill:currentColor">█</text>
  <text id="t-2-16" x="128" y="46" style="fill:currentColor">█</text>
  <text id="t-2-17" x="136" y="46" style="fill:currentColor">█</text>
  <text id="t-2-18" x="144" y="46" style="fill:currentColor">█</text>
  <text id="t-2-19" x="152" y="46" style="fill:currentColor">█</text>
  <text id="t-2-20" x="160" y="46" style="fill:currentColor">█</text>
  <text id="t-2-21" x="168" y="46" style="fill:currentColor">█</text>
  <text id="t-2-22" x="176" y="46" style="fill:currentColor">█</text>
  <text id="t-2-23" x="184" y="46" style="fill:currentColor">▇</text>
  <text id="t-2-24" x="192" y="46" style="fill:currentColor">▃</text>
  <text id="t-2-25" x="200" y="46" style="fill:currentColor">█</text>
  <text id="t-2-26" x="208" y="46" style="fill:currentColor">█</text>
  <text id="t-2-27" x="216" y="46" style="fill:currentColor">▃</text>
  <text id="t-2-28" x="224" y="46" style="fill:currentColor">█</text>
  <text id="t-2-29" x="232" y="46" style="fill:currentColor">▃</text>
  <text id="t-2-30" x="240" y="46" style="fill:currentColor">█</text>
  <text id="t-2-31" x="248" y="46" style="fill:currentColor">█</text>
  <text id="t-2-32" x="256" y="46" style="fill:currentColor">█</text>
  <text id="t-2-33" x="264" y="46" style="fill:currentColor">▅</text>
  <text id="t-2-34" x="272" y="46" style="fill:currentColor">▅</text>
  <text id="t-2-35" x="280" y="46" style="fill:currentColor">▇</text>
  <text id="t-2-36" x="288" y="46" style="fill:currentColor">▄</text>
  <text id="t-2-37" x="296" y="46" style="fill:currentColor">▆</text>
  <text id="t-2-38" x="304" y="46" style="fill:currentColor">▅</text>
  <text id="t-2-39" x="312" y="46" style="fill:currentColor">█</text>
  <text id="t-2-40" x="320" y="46" style="fill:currentColor">▆</text>
  <text id="t-2-41" x="328" y="46" style="fill:currentColor">█</text>
  <text id="t-2-42" x="336" y="46" style="fill:currentColor">▁</text>
  <text id="t-2-43" x="344" y="46" style="fill:currentColor">█</text>
  <text id="t-2-44" x="352" y="46" style="fill:currentColor">█</text>
  <text id="t-2-45" x="360" y="46" style="fill:currentColor">█</text>
  <text id="t-2-46" x="368" y="46" style="fill:currentColor">█</text>
  <text id="t-2-47" x="376" y="46" style="fill:currentColor">▆</text>
  <text id="t-2-48" x="384" y="46" style="fill:currentColor">█</text>
  <text id="t-2-49" x="392" y="46" style="fill:currentColor">█</text>
  <text id="t-2-50" x="400" y="46" style="fill:currentColor">█</text>
  <text id="t-2-51" x="408" y="46" style="fill:currentColor">█</text>
  <text id="t-2-52" x="416" y="46" style="fill:currentColor">█</text>
  <text id="t-2-53" x="424" y="46" style="fill:currentColor">█</text>
  <text id="t-2-54" x="432" y="46" style="fill:currentColor">█</text>
  <text id="t-2-55" x="440" y="46" style="fill:currentColor">█</text>
  <text id="t-2-56" x="448" y="46" style="fill:currentColor">█</text>
  <text id="t-2-57" x="456" y="46" style="fill:currentColor">▆</text>
  <text id="t-2-58" x="464" y="46" style="fill:currentColor">▁</text>
  <text id="t-2-59" x="472" y="46" style="fill:currentColor">█</text>
  <text id="t-3-1" x="8" y="62" style="fill:currentColor">█</text>
  <text id="t-3-2" x="16" y="62" style="fill:currentColor">▁</text>
  <text id="t-3-3" x="24" y="62" style="fill:currentColor">▂</text>
  <text id="t-3-4" x="32" y="62" style="fill:currentColor">▅</text>
  <text id="t-3-6" x="48" y="62" style="fill:currentColor">▄</text>
  <text id="t-3-16" x="128" y="62" style="fill:currentColor">▅</text>
  <text id="t-3-19" x="152" y="62" style="fill:currentColor">▆</text>
  <text id="t-3-21" x="168" y="62" style="fill:currentColor">▇</text>
  <text id="t-3-28" x="224" y="62" style="fill:currentColor">▆</text>
  <text id="t-3-32" x="256" y="62" style="fill:currentColor">▅</text>
  <text id="t-3-48" x="384" y="62" style="fill:currentColor">▇</text>
  <text id="t-3-50" x="400" y="62" style="fill:currentColor">▃</text>
  <text id="t-3-54" x="432" y="62" style="fill:currentColor">▄</text>
  <text id="t-3-55" x="440" y="62" style="fill:currentColor">▂</text>
  <text id="t-3-56" x="448" y="62" style="fill:currentColor">▄</text>
  <text id="t-4-1" x="8" y="78" style="fill:currentColor">█</text>
  <text id="t-4-2" x="16" y="78" style="fill:currentColor">█</text>
  <text id="t-4-3" x="24" y="78" style="fill:currentColor">█</text>
  <text id="t-4-4" x="32" y="78" style="fill:currentColor">█</text>
  <text id="t-4-5" x="40" y="78" style="fill:currentColor">▃</text>
  <text id="t-4-6" x="48" y="78" style="fill:currentColor">█</text>
  <text id="t-4-7" x="56" y="78" style="fill:currentColor">█</text>
  <text id="t-4-8" x="64" y="78" style="fill:currentColor">▁</text>
  <text id="t-4-9" x="72" y="78" style="fill:currentColor">▆</text>
  <text id="t-4-10" x="80" y="78" style="fill:currentColor">▅</text>
  <text id="t-4-11" x="88" y="78" style="fill:currentColor">█</text>
  <text id="t-4-12" x="96" y="78" style="fill:currentColor">▅</text>
  <text id="t-4-13" x="104" y="78" style="fill:currentColor">▆</text>
  <text id="t-4-14" x="112" y="78" style="fill:currentColor">▃</text>
  <text id="t-4-15" x="120" y="78" style="fill:currentColor">▃</text>
  <text id="t-4-16" x="128" y="78" style="fill:currentColor">█</text>
  <text id="t-4-17" x="136" y="78" style="fill:currentColor">▅</text>
  <text id="t-4-18" x="144" y="78" style="fill:currentColor">▇</text>
  <text id="t-4-19" x="152" y="78" style="fill:currentColor">█</text>
  <text id="t-4-20" x="160" y="78" style="fill:currentColor">█</text>
  <text id="t-4-21" x="168" y="78" style="fill:currentColor">█</text>
  <text id="t-4-22" x="176" y="78" style="fill:currentColor">▄</text>
  <text id="t-4-23" x="184" y="78" style="fill:currentColor">▂</text>
  <text id="t-4-25" x="200" y="78" style="fill:currentColor">▆</text>
  <text id="t-4-26" x="208" y="78" style="fill:currentColor">▇</text>
  <text id="t-4-28" x="224" y="78" style="fill:currentColor">█</text>
  <text id="t-4-30" x="240" y="78" style="fill:currentColor">▁</text>
  <text id="t-4-31" x="248" y="78" style="fill:currentColor">▂</text>
  <text id="t-4-32" x="256" y="78" style="fill:currentColor">█</text>
  <text id="t-4-39" x="312" y="78" style="fill:currentColor">▅</text>
  <text id="t-4-40" x="320" y="78" style="fill:currentColor">▁</text>
  <text id="t-4-41" x="328" y="78" style="fill:currentColor">▃</text>
  <text id="t-4-43" x="344" y="78" style="fill:currentColor">▇</text>
  <text id="t-4-44" x="352" y="78" style="fill:currentColor">▃</text>
  <text id="t-4-45" x="360" y="78" style="fill:currentColor">▅</text>
  <text id="t-4-46" x="368" y="78" style="fill:currentColor">█</text>
  <text id="t-4-48" x="384" y="78" style="fill:currentColor">█</text>
  <text id="t-4-49" x="392" y="78" style="fill:currentColor">▁</text>
  <text id="t-4-50" x="400" y="78" style="fill:currentColor">█</text>
  <text id="t-4-51" x="408" y="78" style="fill:currentColor">▆</text>
  <text id="t-4-52" x="416" y="78" style="fill:currentColor">▆</text>
  <text id="t-4-53" x="424" y="78" style="fill:currentColor">▆</text>
  <text id="t-4-54" x="432" y="78" style="fill:currentColor">█</text>
  <text id="t-4-55" x="440" y="78" style="fill:currentColor">█</text>
  <text id="t-4-56" x="448" y="78" style="fill:currentColor">█</text>
  <text id="t-4-59" x="472" y="78" style="fill:currentColor">▅</text>
  <text id="t-5-0" x="0" y="94" style="fill:currentColor">█</text>
  <text id="t-5-1" x="8" y="94" style="fill:currentColor">█</text>
  <text id="t-5-2" x="16" y="94" style="fill:currentColor">█</text>
  <text id="t-5-3" x="24" y="94" style="fill:currentColor">█</text>
  <text id="t-5-4" x="32" y="94" style="fill:currentColor">█</text>
  <text id="t-5-5" x="40" y="94" style="fill:currentColor">█</text>
  <text id="t-5-6" x="48" y="94" style="fill:currentColor">█</text>
  <text id="t-5-7" x="56" y="94" style="fill:currentColor">█</text>
  <text id="t-5-8" x="64" y="94" style="fill:currentColor">█</text>
  <text id="t-5-9" x="72" y="94" style="fill:currentColor">█</text>
  <text id="t-5-10" x="80" y="94" style="fill:currentColor">█</text>
  <text id="t-5-11" x="88" y="94" style="fill:currentColor">█</text>
  <text id="t-5-12" x="96" y="94" style="fill:currentColor">█</text>
  <text id="t-5-13" x="104" y="94" style="fill:currentColor">█</text>
  <text id="t-5-14" x="112" y="94" style="fill:currentColor">█</text>
  <text id="t-5-15" x="120" y="94" style="fill:currentColor">█</text>
  <text id="t-5-16" x="128" y="94" style="fill:currentColor">█</text>
  <text id="t-5-17" x="136" y="94" style="fill:currentColor">█</text>
  <text id="t-5-18" x="144" y="94" style="fill:currentColor">█</text>
  <text id="t-5-19" x="152" y="94" style="fill:currentColor">█</text>
  <text id="t-5-20" x="160" y="94" style="fill:currentColor">█</text>
  <text id="t-5-21" x="168" y="94" style="fill:currentColor">█</text>
  <text id="t-5-22" x="176" y="94" style="fill:currentColor">█</text>
  <text id="t-5-23" x="184" y="94" style="fill:currentColor">█</text>
  <text id="t-5-24" x="192" y="94" style="fill:currentColor">▄</text>
  <text id="t-5-25" x="200" y="94" style="fill:currentColor">█</text>
  <text id="t-5-26" x="208" y="94" style="fill:currentColor">█</text>
  <text id="t-5-27" x="216" y="94" style="fill:currentColor">▆</text>
  <text id="t-5-28" x="224" y="94" style="fill:currentColor">█</text>
  <text id="t-5-29" x="232" y="94" style="fill:currentColor">▃</text>
  <text id="t-5-30" x="240" y="94" style="fill:currentColor">█</text>
  <text id="t-5-31" x="248" y="94" style="fill:currentColor">█</text>
  <text id="t-5-32" x="256" y="94" style="fill:currentColor">█</text>
  <text id="t-5-33" x="264" y="94" style="fill:currentColor">▃</text>
  <text id="t-5-34" x="272" y="94" style="fill:currentColor">▇</text>
  <text id="t-5-35" x="280" y="94" style="fill:currentColor">█</text>
  <text id="t-5-36" x="288" y="94" style="fill:currentColor">▂</text>
  <text id="t-5-37" x="296" y="94" style="fill:currentColor">█</text>
  <text id="t-5-38" x="304" y="94" style="fill:currentColor">▇</text>
  <text id="t-5-39" x="312" y="94" style="fill:currentColor">█</text>
  <text id="t-5-40" x="320" y="94" style="fill:currentColor">█</text>
  <text id="t-5-41" x="328" y="94" style="fill:currentColor">█</text>
  <text id="t-5-42" x="336" y="94" style="fill:currentColor">▁</text>
  <text id="t-5-43" x="344" y="94" style="fill:currentColor">█</text>
  <text id="t-5-44" x="352" y="94" style="fill:currentColor">█</text>
  <text id="t-5-45" x="360" y="94" style="fill:currentColor">█</text>
  <text id="t-5-46" x="368" y="94" style="fill:currentColor">█</text>
  <text id="t-5-47" x="376" y="94" style="fill:currentColor">▃</text>
  <text id="t-5-48" x="384" y="94" style="fill:currentColor">█</text>
  <text id="t-5-49" x="392" y="94" style="fill:currentColor">█</text>
  <text id="t-5-50" x="400" y="94" style="fill:currentColor">█</text>
  <text id="t-5-51" x="408" y="94" style="fill:currentColor">█</text>
  <text id="t-5-52" x="416" y="94" style="fill:currentColor">█</text>
  <text id="t-5-53" x="424" y="94" style="fill:currentColor">█</text>
  <text id="t-5-54" x="432" y="94" style="fill:currentColor">█</text>
  <text id="t-5-55" x="440" y="94" style="fill:currentColor">█</text>
  <text id="t-5-56" x="448" y="94" style="fill:currentColor">█</text>
  <text id="t-5-57" x="456" y="94" style="fill:currentColor">█</text>
  <text id="t-5-58" x="464" y="94" style="fill:currentColor">▁</text>
  <text id="t-5-59" x="472" y="94" style="fill:currentColor">█</text>
  <text id="t-6-19" x="152" y="110" style="fill:currentColor">▃</text>
  <text id="t-6-48" x="384" y="110" style="fill:currentColor">▅</text>
  <text id="t-6-51" x="408" y="110" style="fill:currentColor">█</text>
  <text id="t-6-55" x="440" y="110" style="fill:currentColor">▂</text>
  <text id="t-7-7" x="56" y="126" style="fill:currentColor">▃</text>
  <text id="t-7-8" x="64" y="126" style="fill:currentColor">▁</text>
  <text id="t-7-16" x="128" y="126" style="fill:currentColor">▄</text>
  <text id="t-7-19" x="152" y="126" style="fill:currentColor">█</text>
  <text id="t-7-20" x="160" y="126" style="fill:currentColor">▁</text>
  <text id="t-7-39" x="312" y="126" style="fill:currentColor">▃</text>
  <text id="t-7-43" x="344" y="126" style="fill:currentColor">▃</text>
  <text id="t-7-48" x="384" y="126" style="fill:currentColor">█</text>
  <text id="t-7-51" x="408" y="126" style="fill:currentColor">█</text>
  <text id="t-7-52" x="416" y="126" style="fill:currentColor">▂</text>
  <text id="t-7-53" x="424" y="126" style="fill:currentColor">▃</text>
  <text id="t-7-55" x="440" y="126" style="fill:currentColor">█</text>
  <text id="t-8-0" x="0" y="142" style="fill:currentColor">▄</text>
  <text id="t-8-1" x="8" y="142" style="fill:currentColor">▄</text>
  <text id="t-8-2" x="16" y="142" style="fill:currentColor">▅</text>
  <text id="t-8-3" x="24" y="142" style="fill:currentColor">▁</text>
  <text id="t-8-4" x="32" y="142" style="fill:currentColor">▃</text>
  <text id="t-8-5" x="40" y="142" style="fill:currentColor">▁</text>
  <text id="t-8-6" x="48" y="142" style="fill:currentColor">▆</text>
  <text id="t-8-7" x="56" y="142" style="fill:currentColor">█</text>
  <text id="t-8-8" x="64" y="142" style="fill:currentColor">█</text>
  <text id="t-8-9" x="72" y="142" style="fill:currentColor">▂</text>
  <text id="t-8-10" x="80" y="142" style="fill:currentColor">▃</text>
  <text id="t-8-11" x="88" y="142" style="fill:currentColor">▄</text>
  <text id="t-8-12" x="96" y="142" style="fill:currentColor">▅</text>
  <text id="t-8-13" x="104" y="142" style="fill:currentColor">▆</text>
  <text id="t-8-14" x="112" y="142" style="fill:currentColor">▅</text>
  <text id="t-8-15" x="120" y="142" style="fill:currentColor">▂</text>
  <text id="t-8-16" x="128" y="142" style="fill:currentColor">█</text>
  <text id="t-8-17" x="136" y="142" style="fill:currentColor">█</text>
  <text id="t-8-18" x="144" y="142" style="fill:currentColor">▅</text>
  <text id="t-8-19" x="152" y="142" style="fill:currentColor">█</text>
  <text id="t-8-20" x="160" y="142" style="fill:currentColor">█</text>
  <text id="t-8-21" x="168" y="142" style="fill:currentColor">▅</text>
  <text id="t-8-22" x="176" y="142" style="fill:currentColor">▄</text>
  <text id="t-8-23" x="184" y="142" style="fill:currentColor">▁</text>
  <text id="t-8-24" x="192" y="142" style="fill:currentColor">▆</text>
  <text id="t-8-25" x="200" y="142" style="fill:currentColor">▄</text>
  <text id="t-8-26" x="208" y="142" style="fill:currentColor">▁</text>
  <text id="t-8-27" x="216" y="142" style="fill:currentColor">▂</text>
  <text id="t-8-28" x="224" y="142" style="fill:currentColor">▅</text>
  <text id="t-8-29" x="232" y="142" style="fill:currentColor">▄</text>
  <text id="t-8-30" x="240" y="142" style="fill:currentColor">▂</text>
  <text id="t-8-31" x="248" y="142" style="fill:currentColor">▃</text>
  <text id="t-8-32" x="256" y="142" style="fill:currentColor">▁</text>
  <text id="t-8-33" x="264" y="142" style="fill:currentColor">▄</text>
  <text id="t-8-34" x="272" y="142" style="fill:currentColor">▂</text>
  <text id="t-8-35" x="280" y="142" style="fill:currentColor">▁</text>
  <text id="t-8-36" x="288" y="142" style="fill:currentColor">▂</text>
  <text id="t-8-37" x="296" y="142" style="fill:currentColor">▃</text>
  <text id="t-8-38" x="304" y="142" style="fill:currentColor">▁</text>
  <text id="t-8-39" x="312" y="142" style="fill:currentColor">█</text>
  <text id="t-8-40" x="320" y="142" style="fill:currentColor">▄</text>
  <text id="t-8-41" x="328" y="142" style="fill:currentColor">▁</text>
  <text id="t-8-42" x="336" y="142" style="fill:currentColor">▄</text>
  <text id="t-8-43" x="344" y="142" style="fill:currentColor">█</text>
  <text id="t-8-44" x="352" y="142" style="fill:currentColor">▁</text>
  <text id="t-8-45" x="360" y="142" style="fill:currentColor">▃</text>
  <text id="t-8-46" x="368" y="142" style="fill:currentColor">▁</text>
  <text id="t-8-47" x="376" y="142" style="fill:currentColor">▃</text>
  <text id="t-8-48" x="384" y="142" style="fill:currentColor">█</text>
  <text id="t-8-49" x="392" y="142" style="fill:currentColor">▁</text>
  <text id="t-8-50" x="400" y="142" style="fill:currentColor">▆</text>
  <text id="t-8-51" x="408" y="142" style="fill:currentColor">█</text>
  <text id="t-8-52" x="416" y="142" style="fill:currentColor">█</text>
  <text id="t-8-53" x="424" y="142" style="fill:currentColor">█</text>
  <text id="t-8-54" x="432" y="142" style="fill:currentColor">▃</text>
  <text id="t-8-55" x="440" y="142" style="fill:currentColor">█</text>
  <text id="t-8-56" x="448" y="142" style="fill:currentColor">▁</text>
  <text id="t-8-57" x="456" y="142" style="fill:currentColor">▁</text>
  <text id="t-8-58" x="464" y="142" style="fill:currentColor">▁</text>
  <text id="t-8-59" x="472" y="142" style="fill:currentColor">▁</text>
</svg>
