<?xml version="1.0" encoding="UTF-8"?>
<svg xmlns="http://www.w3.org/2000/svg" width="160" height="64" viewBox="0 0 160 64" font-family="monospace" font-size="16">
  <text id="t-0-0" x="0" y="14" style="fill:#00aaaa">╔</text>
  <text id="t-0-1" x="8" y="14" style="fill:#00aaaa">═</text>
  <text id="t-0-2" x="16" y="14" style="fill:#00aaaa">═</text>
  <text id="t-0-3" x="24" y="14" style="fill:#00aaaa">═</text>
  <text id="t-0-4" x="32" y="14" style="fill:#00aaaa">═</text>
  <text id="t-0-5" x="40" y="14" style="fill:#00aaaa">═</text>
  <text id="t-0-6" x="48" y="14" style="fill:#00aaaa">═</text>
  <text id="t-0-7" x="56" y="14" style="fill:#00aaaa">═</text>
  <text id="t-0-8" x="64" y="14" style="fill:#00aaaa">═</text>
  <text id="t-0-9" x="72" y="14" style="fill:#00aaaa">═</text>
  <text id="t-0-10" x="80" y="14" style="fill:#00aaaa">═</text>
  <text id="t-0-11" x="88" y="14" style="fill:#00aaaa">═</text>
  <text id="t-0-12" x="96" y="14" style="fill:#00aaaa">═</text>
  <text id="t-0-13" x="104" y="14" style="fill:#00aaaa">═</text>
  <text id="t-0-14" x="112" y="14" style="fill:#00aaaa">═</text>
  <text id="t-0-15" x="120" y="14" style="fill:#00aaaa">═</text>
  <text id="t-0-16" x="128" y="14" style="fill:#00aaaa">═</text>
  <text id="t-0-17" x="136" y="14" style="fill:#00aaaa">╗</text>
  <text id="t-1-0" x="0" y="30" style="fill:#00aaaa">║</text>
  <text id="t-1-1" x="8" y="30" style="fill:#00aaaa">H</text>
  <text id="t-1-2" x="16" y="30" style="fill:#00aaaa">i</text>
  <text id="t-1-17" x="136" y="30" style="fill:#00aaaa">║</text>
  <text id="t-2-0" x="0" y="46" style="fill:#00aaaa">╚</text>
  <text id="t-2-1" x="8" y="46" style="fill:#00aaaa">═</text>
  <text id="t-2-2" x="16" y="46" style="fill:#00aaaa">═</text>
  <text id="t-2-3" x="24" y="46" style="fill:#00aaaa">═</text>
  <text id="t-2-4" x="32" y="46" style="fill:#00aaaa">═</text>
  <text id="t-2-5" x="40" y="46" style="fill:#00aaaa">═</text>
  <text id="t-2-6" x="48" y="46" style="fill:#00aaaa">═</text>
  <text id="t-2-7" x="56" y="46" style="fill:#00aaaa">═</text>
  <text id="t-2-8" x="64" y="46" style="fill:#00aaaa">═</text>
  <text id="t-2-9" x="72" y="46" style="fill:#00aaaa">═</text>
  <text id="t-2-10" x="80" y="46" style="fill:#00aaaa">═</text>
  <text id="t-2-11" x="88" y="46" style="fill:#00aaaa">═</text>
  <text id="t-2-12" x="96" y="46" style="fill:#00aaaa">═</text>
  <text id="t-2-13" x="104" y="46" style="fill:#00aaaa">═</text>
  <text id="t-2-14" x="112" y="46" style="fill:#00aaaa">═</text>
  <text id="t-2-15" x="120" y="46" style="fill:#00aaaa">═</text>
  <text id="t-2-16" x="128" y="46" style="fill:#00aaaa">═</text>
  <text id="t-2-17" x="136" y="46" style="fill:#00aaaa">╝</text>
</svg>
