<?xml version="1.0" encoding="UTF-8"?>
<svg xmlns="http://www.w3.org/2000/svg" width="320" height="96" viewBox="0 0 320 96" font-family="monospace" font-size="16">
  <text id="t-0-0" x="0" y="14" style="fill:#00aaaa">┌</text>
  <text id="t-0-1" x="8" y="14" style="fill:#00aaaa">─</text>
  <text id="t-0-2" x="16" y="14" style="fill:#00aaaa">─</text>
  <text id="t-0-3" x="24" y="14" style="fill:#00aaaa">─</text>
  <text id="t-0-4" x="32" y="14" style="fill:#00aaaa">─</text>
  <text id="t-0-5" x="40" y="14" style="fill:#00aaaa">─</text>
  <text id="t-0-6" x="48" y="14" style="fill:#00aaaa">─</text>
  <text id="t-0-7" x="56" y="14" style="fill:#00aaaa">─</text>
  <text id="t-0-8" x="64" y="14" style="fill:#00aaaa">─</text>
  <text id="t-0-9" x="72" y="14" style="fill:#00aaaa">─</text>
  <text id="t-0-10" x="80" y="14" style="fill:#00aaaa">─</text>
  <text id="t-0-11" x="88" y="14" style="fill:#00aaaa">─</text>
  <text id="t-0-12" x="96" y="14" style="fill:#00aaaa">─</text>
  <text id="t-0-13" x="104" y="14" style="fill:#00aaaa">─</text>
  <text id="t-0-14" x="112" y="14" style="fill:#00aaaa">─</text>
  <text id="t-0-15" x="120" y="14" style="fill:#00aaaa">─</text>
  <text id="t-0-16" x="128" y="14" style="fill:#00aaaa">─</text>
  <text id="t-0-17" x="136" y="14" style="fill:#00aaaa">─</text>
  <text id="t-0-18" x="144" y="14" style="fill:#00aaaa">─</text>
  <text id="t-0-19" x="152" y="14" style="fill:#00aaaa">─</text>
  <text id="t-0-20" x="160" y="14" style="fill:#00aaaa">─</text>
  <text id="t-0-21" x="168" y="14" style="fill:#00aaaa">─</text>
  <text id="t-0-22" x="176" y="14" style="fill:#00aaaa">─</text>
  <text id="t-0-23" x="184" y="14" style="fill:#00aaaa">─</text>
  <text id="t-0-24" x="192" y="14" style="fill:#00aaaa">─</text>
  <text id="t-0-25" x="200" y="14" style="fill:#00aaaa">─</text>
  <text id="t-0-26" x="208" y="14" style="fill:#00aaaa">─</text>
  <text id="t-0-27" x="216" y="14" style="fill:#00aaaa">─</text>
  <text id="t-0-28" x="224" y="14" style="fill:#00aaaa">─</text>
  <text id="t-0-29" x="232" y="14" style="fill:#00aaaa">─</text>
  <text id="t-0-30" x="240" y="14" style="fill:#00aaaa">─</text>
  <text id="t-0-31" x="248" y="14" style="fill:#00aaaa">─</text>
  <text id="t-0-32" x="256" y="14" style="fill:#00aaaa">─</text>
  <text id="t-0-33" x="264" y="14" style="fill:#00aaaa">─</text>
  <text id="t-0-34" x="272" y="14" style="fill:#00aaaa">─</text>
  <text id="t-0-35" x="280" y="14" style="fill:#00aaaa">─</text>
  <text id="t-0-36" x="288" y="14" style="fill:#00aaaa">─</text>
  <text id="t-0-37" x="296" y="14" style="fill:#00aaaa">─</text>
  <text id="t-0-38" x="304" y="14" style="fill:#00aaaa">─</text>
  <text id="t-0-39" x="312" y="14" style="fill:#00aaaa">┐</text>
  <text id="t-1-0" x="0" y="30" style="fill:#00aaaa">│</text>
  <text id="t-1-1" x="8" y="30" style="fill:#00aaaa">H</text>
  <text id="t-1-2" x="16" y="30" style="fill:#00aaaa">e</text>
  <text id="t-1-3" x="24" y="30" style="fill:#00aaaa">l</text>
  <text id="t-1-4" x="32" y="30" style="fill:#00aaaa">l</text>
  <text id="t-1-5" x="40" y="30" style="fill:#00aaaa">o</text>
  <text id="t-1-6" x="48" y="30" style="fill:#00aaaa">,</text>
  <text id="t-1-8" x="64" y="30" style="fill:#00aaaa">w</text>
  <text id="t-1-9" x="72" y="30" style="fill:#00aaaa">o</text>
  <text id="t-1-10" x="80" y="30" style="fill:#00aaaa">r</text>
  <text id="t-1-11" x="88" y="30" style="fill:#00aaaa">l</text>
  <text id="t-1-12" x="96" y="30" style="fill:#00aaaa">d</text>
  <text id="t-1-13" x="104" y="30" style="fill:#00aaaa">!</text>
  <text id="t-1-39" x="312" y="30" style="fill:#00aaaa">│</text>
  <text id="t-2-0" x="0" y="46" style="fill:#00aaaa">│</text>
  <text id="t-2-39" x="312" y="46" style="fill:#00aaaa">│</text>
  <text id="t-3-0" x="0" y="62" style="fill:#00aaaa">│</text>
  <text id="t-3-39" x="312" y="62" style="fill:#00aaaa">│</text>
  <text id="t-4-0" x="0" y="78" style="fill:#00aaaa">│</text>
  <text id="t-4-39" x="312" y="78" style="fill:#00aaaa">│</text>
  <text id="t-5-0" x="0" y="94" style="fill:#00aaaa">└</text>
  <text id="t-5-1" x="8" y="94" style="fill:#00aaaa">─</text>
  <text id="t-5-2" x="16" y="94" style="fill:#00aaaa">─</text>
  <text id="t-5-3" x="24" y="94" style="fill:#00aaaa">─</text>
  <text id="t-5-4" x="32" y="94" style="fill:#00aaaa">─</text>
  <text id="t-5-5" x="40" y="94" style="fill:#00aaaa">─</text>
  <text id="t-5-6" x="48" y="94" style="fill:#00aaaa">─</text>
  <text id="t-5-7" x="56" y="94" style="fill:#00aaaa">─</text>
  <text id="t-5-8" x="64" y="94" style="fill:#00aaaa">─</text>
  <text id="t-5-9" x="72" y="94" style="fill:#00aaaa">─</text>
  <text id="t-5-10" x="80" y="94" style="fill:#00aaaa">─</text>
  <text id="t-5-11" x="88" y="94" style="fill:#00aaaa">─</text>
  <text id="t-5-12" x="96" y="94" style="fill:#00aaaa">─</text>
  <text id="t-5-13" x="104" y="94" style="fill:#00aaaa">─</text>
  <text id="t-5-14" x="112" y="94" style="fill:#00aaaa">─</text>
  <text id="t-5-15" x="120" y="94" style="fill:#00aaaa">─</text>
  <text id="t-5-16" x="128" y="94" style="fill:#00aaaa">─</text>
  <text id="t-5-17" x="136" y="94" style="fill:#00aaaa">─</text>
  <text id="t-5-18" x="144" y="94" style="fill:#00aaaa">─</text>
  <text id="t-5-19" x="152" y="94" style="fill:#00aaaa">─</text>
  <text id="t-5-20" x="160" y="94" style="fill:#00aaaa">─</text>
  <text id="t-5-21" x="168" y="94" style="fill:#00aaaa">─</text>
  <text id="t-5-22" x="176" y="94" style="fill:#00aaaa">─</text>
  <text id="t-5-23" x="184" y="94" style="fill:#00aaaa">─</text>
  <text id="t-5-24" x="192" y="94" style="fill:#00aaaa">─</text>
  <text id="t-5-25" x="200" y="94" style="fill:#00aaaa">─</text>
  <text id="t-5-26" x="208" y="94" style="fill:#00aaaa">─</text>
  <text id="t-5-27" x="216" y="94" style="fill:#00aaaa">─</text>
  <text id="t-5-28" x="224" y="94" style="fill:#00aaaa">─</text>
  <text id="t-5-29" x="232" y="94" style="fill:#00aaaa">─</text>
  <text id="t-5-30" x="240" y="94" style="fill:#00aaaa">─</text>
  <text id="t-5-31" x="248" y="94" style="fill:#00aaaa">─</text>
  <text id="t-5-32" x="256" y="94" style="fill:#00aaaa">─</text>
  <text id="t-5-33" x="264" y="94" style="fill:#00aaaa">─</text>
  <text id="t-5-34" x="272" y="94" style="fill:#00aaaa">─</text>
  <text id="t-5-35" x="280" y="94" style="fill:#00aaaa">─</text>
  <text id="t-5-36" x="288" y="94" style="fill:#00aaaa">─</text>
  <text id="t-5-37" x="296" y="94" style="fill:#00aaaa">─</text>
  <text id="t-5-38" x="304" y="94" style="fill:#00aaaa">─</text>
  <text id="t-5-39" x="312" y="94" style="fill:#00aaaa">┘</text>

  <rect id="box-3" x="0" y="0" width="320" height="16" fill="none" stroke="#3399ff" stroke-width="1"/>
  <rect id="box-5" x="0" y="16" width="320" height="16" fill="none" stroke="#3399ff" stroke-width="1"/>
  <rect id="box-7" x="0" y="32" width="320" height="16" fill="none" stroke="#3399ff" stroke-width="1"/>
  <rect id="box-9" x="0" y="48" width="320" height="16" fill="none" stroke="#3399ff" stroke-width="1"/>
  <rect id="box-11" x="0" y="64" width="320" height="16" fill="none" stroke="#3399ff" stroke-width="1"/>
  <rect id="box-13" x="0" y="80" width="320" height="16" fill="none" stroke="#3399ff" stroke-width="1"/>
  <rect id="dirty-0-0" x="0" y="0" width="320" height="16" fill="#ff0000" fill-opacity="0.2"/>
  <rect id="dirty-1-0" x="0" y="16" width="320" height="16" fill="#ff0000" fill-opacity="0.2"/>
  <rect id="dirty-2-0" x="0" y="32" width="320" height="16" fill="#ff0000" fill-opacity="0.2"/>
  <rect id="dirty-3-0" x="0" y="48" width="320" height="16" fill="#ff0000" fill-opacity="0.2"/>
  <rect id="dirty-4-0" x="0" y="64" width="320" height="16" fill="#ff0000" fill-opacity="0.2"/>
  <rect id="dirty-5-0" x="0" y="80" width="320" height="16" fill="#ff0000" fill-opacity="0.2"/>
</svg>
