<?xml version="1.0" encoding="UTF-8"?>
<svg xmlns="http://www.w3.org/2000/svg" width="640" height="320" viewBox="0 0 640 320" font-family="monospace" font-size="16">
  <text id="t-0-0" x="0" y="14" style="fill:currentColor">╭</text>
  <text id="t-0-1" x="8" y="14" style="fill:currentColor">─</text>
  <text id="t-0-2" x="16" y="14" style="fill:currentColor">─</text>
  <text id="t-0-3" x="24" y="14" style="fill:currentColor">─</text>
  <text id="t-0-4" x="32" y="14" style="fill:currentColor">─</text>
  <text id="t-0-5" x="40" y="14" style="fill:currentColor">─</text>
  <text id="t-0-6" x="48" y="14" style="fill:currentColor">─</text>
  <text id="t-0-7" x="56" y="14" style="fill:currentColor">─</text>
  <text id="t-0-8" x="64" y="14" style="fill:currentColor">─</text>
  <text id="t-0-9" x="72" y="14" style="fill:currentColor">─</text>
  <text id="t-0-10" x="80" y="14" style="fill:currentColor">─</text>
  <text id="t-0-11" x="88" y="14" style="fill:currentColor">─</text>
  <text id="t-0-12" x="96" y="14" style="fill:currentColor">─</text>
  <text id="t-0-13" x="104" y="14" style="fill:currentColor">─</text>
  <text id="t-0-14" x="112" y="14" style="fill:currentColor">─</text>
  <text id="t-0-15" x="120" y="14" style="fill:currentColor">─</text>
  <text id="t-0-16" x="128" y="14" style="fill:currentColor">─</text>
  <text id="t-0-17" x="136" y="14" style="fill:currentColor">─</text>
  <text id="t-0-18" x="144" y="14" style="fill:currentColor">─</text>
  <text id="t-0-19" x="152" y="14" style="fill:currentColor">─</text>
  <text id="t-0-20" x="160" y="14" style="fill:currentColor">─</text>
  <text id="t-0-21" x="168" y="14" style="fill:currentColor">─</text>
  <text id="t-0-22" x="176" y="14" style="fill:currentColor">─</text>
  <text id="t-0-23" x="184" y="14" style="fill:currentColor">─</text>
  <text id="t-0-24" x="192" y="14" style="fill:currentColor">─</text>
  <text id="t-0-25" x="200" y="14" style="fill:currentColor">─</text>
  <text id="t-0-26" x="208" y="14" style="fill:currentColor">─</text>
  <text id="t-0-27" x="216" y="14" style="fill:currentColor">─</text>
  <text id="t-0-28" x="224" y="14" style="fill:currentColor">─</text>
  <text id="t-0-29" x="232" y="14" style="fill:currentColor">─</text>
  <text id="t-0-30" x="240" y="14" style="fill:currentColor">─</text>
  <text id="t-0-31" x="248" y="14" style="fill:currentColor">─</text>
  <text id="t-0-32" x="256" y="14" style="fill:currentColor">─</text>
  <text id="t-0-33" x="264" y="14" style="fill:currentColor">─</text>
  <text id="t-0-34" x="272" y="14" style="fill:currentColor">─</text>
  <text id="t-0-35" x="280" y="14" style="fill:currentColor">─</text>
  <text id="t-0-36" x="288" y="14" style="fill:currentColor">─</text>
  <text id="t-0-37" x="296" y="14" style="fill:currentColor">─</text>
  <text id="t-0-38" x="304" y="14" style="fill:currentColor">─</text>
  <text id="t-0-39" x="312" y="14" style="fill:currentColor">─</text>
  <text id="t-0-40" x="320" y="14" style="fill:currentColor">╮</text>
  <text id="t-1-0" x="0" y="30" style="fill:currentColor">│</text>
  <text id="t-1-1" x="8" y="30" style="fill:currentColor">▶</text>
  <text id="t-1-3" x="24" y="30" style="fill:currentColor">f</text>
  <text id="t-1-4" x="32" y="30" style="fill:currentColor">i</text>
  <text id="t-1-5" x="40" y="30" style="fill:currentColor">x</text>
  <text id="t-1-6" x="48" y="30" style="fill:currentColor">t</text>
  <text id="t-1-7" x="56" y="30" style="fill:currentColor">u</text>
  <text id="t-1-8" x="64" y="30" style="fill:currentColor">r</text>
  <text id="t-1-9" x="72" y="30" style="fill:currentColor">e</text>
  <text id="t-1-10" x="80" y="30" style="fill:currentColor">s</text>
  <text id="t-1-11" x="88" y="30" style="fill:currentColor">/</text>
  <text id="t-1-40" x="320" y="30" style="fill:currentColor">│</text>
  <text id="t-2-0" x="0" y="46" style="fill:currentColor">│</text>
  <text id="t-2-40" x="320" y="46" style="fill:currentColor">│</text>
  <text id="t-3-0" x="0" y="62" style="fill:currentColor">│</text>
  <text id="t-3-40" x="320" y="62" style="fill:currentColor">│</text>
  <text id="t-4-0" x="0" y="78" style="fill:currentColor">│</text>
  <text id="t-4-40" x="320" y="78" style="fill:currentColor">│</text>
  <text id="t-5-0" x="0" y="94" style="fill:currentColor">│</text>
  <text id="t-5-40" x="320" y="94" style="fill:currentColor">│</text>
  <text id="t-6-0" x="0" y="110" style="fill:currentColor">│</text>
  <text id="t-6-40" x="320" y="110" style="fill:currentColor">│</text>
  <text id="t-7-0" x="0" y="126" style="fill:currentColor">│</text>
  <text id="t-7-40" x="320" y="126" style="fill:currentColor">│</text>
  <text id="t-8-0" x="0" y="142" style="fill:currentColor">│</text>
  <text id="t-8-40" x="320" y="142" style="fill:currentColor">│</text>
  <text id="t-9-0" x="0" y="158" style="fill:currentColor">│</text>
  <text id="t-9-40" x="320" y="158" style="fill:currentColor">│</text>
  <text id="t-10-0" x="0" y="174" style="fill:currentColor">│</text>
  <text id="t-10-40" x="320" y="174" style="fill:currentColor">│</text>
  <text id="t-11-0" x="0" y="190" style="fill:currentColor">│</text>
  <text id="t-11-40" x="320" y="190" style="fill:currentColor">│</text>
  <text id="t-12-0" x="0" y="206" style="fill:currentColor">│</text>
  <text id="t-12-40" x="320" y="206" style="fill:currentColor">│</text>
  <text id="t-13-0" x="0" y="222" style="fill:currentColor">│</text>
  <text id="t-13-40" x="320" y="222" style="fill:currentColor">│</text>
  <text id="t-14-0" x="0" y="238" style="fill:currentColor">│</text>
  <text id="t-14-40" x="320" y="238" style="fill:currentColor">│</text>
  <text id="t-15-0" x="0" y="254" style="fill:currentColor">│</text>
  <text id="t-15-40" x="320" y="254" style="fill:currentColor">│</text>
  <text id="t-16-0" x="0" y="270" style="fill:currentColor">│</text>
  <text id="t-16-40" x="320" y="270" style="fill:currentColor">│</text>
  <text id="t-17-0" x="0" y="286" style="fill:currentColor">│</text>
  <text id="t-17-40" x="320" y="286" style="fill:currentColor">│</text>
  <text id="t-18-0" x="0" y="302" style="fill:currentColor">│</text>
  <text id="t-18-40" x="320" y="302" style="fill:currentColor">│</text>
  <text id="t-19-0" x="0" y="318" style="fill:currentColor">╰</text>
  <text id="t-19-1" x="8" y="318" style="fill:currentColor">─</text>
  <text id="t-19-2" x="16" y="318" style="fill:currentColor">─</text>
  <text id="t-19-3" x="24" y="318" style="fill:currentColor">─</text>
  <text id="t-19-4" x="32" y="318" style="fill:currentColor">─</text>
  <text id="t-19-5" x="40" y="318" style="fill:currentColor">─</text>
  <text id="t-19-6" x="48" y="318" style="fill:currentColor">─</text>
  <text id="t-19-7" x="56" y="318" style="fill:currentColor">─</text>
  <text id="t-19-8" x="64" y="318" style="fill:currentColor">─</text>
  <text id="t-19-9" x="72" y="318" style="fill:currentColor">─</text>
  <text id="t-19-10" x="80" y="318" style="fill:currentColor">─</text>
  <text id="t-19-11" x="88" y="318" style="fill:currentColor">─</text>
  <text id="t-19-12" x="96" y="318" style="fill:currentColor">─</text>
  <text id="t-19-13" x="104" y="318" style="fill:currentColor">─</text>
  <text id="t-19-14" x="112" y="318" style="fill:currentColor">─</text>
  <text id="t-19-15" x="120" y="318" style="fill:currentColor">─</text>
  <text id="t-19-16" x="128" y="318" style="fill:currentColor">─</text>
  <text id="t-19-17" x="136" y="318" style="fill:currentColor">─</text>
  <text id="t-19-18" x="144" y="318" style="fill:currentColor">─</text>
  <text id="t-19-19" x="152" y="318" style="fill:currentColor">─</text>
  <text id="t-19-20" x="160" y="318" style="fill:currentColor">─</text>
  <text id="t-19-21" x="168" y="318" style="fill:currentColor">─</text>
  <text id="t-19-22" x="176" y="318" style="fill:currentColor">─</text>
  <text id="t-19-23" x="184" y="318" style="fill:currentColor">─</text>
  <text id="t-19-24" x="192" y="318" style="fill:currentColor">─</text>
  <text id="t-19-25" x="200" y="318" style="fill:currentColor">─</text>
  <text id="t-19-26" x="208" y="318" style="fill:currentColor">─</text>
  <text id="t-19-27" x="216" y="318" style="fill:currentColor">─</text>
  <text id="t-19-28" x="224" y="318" style="fill:currentColor">─</text>
  <text id="t-19-29" x="232" y="318" style="fill:currentColor">─</text>
  <text id="t-19-30" x="240" y="318" style="fill:currentColor">─</text>
  <text id="t-19-31" x="248" y="318" style="fill:currentColor">─</text>
  <text id="t-19-32" x="256" y="318" style="fill:currentColor">─</text>
  <text id="t-19-33" x="264" y="318" style="fill:currentColor">─</text>
  <text id="t-19-34" x="272" y="318" style="fill:currentColor">─</text>
  <text id="t-19-35" x="280" y="318" style="fill:currentColor">─</text>
  <text id="t-19-36" x="288" y="318" style="fill:currentColor">─</text>
  <text id="t-19-37" x="296" y="318" style="fill:currentColor">─</text>
  <text id="t-19-38" x="304" y="318" style="fill:currentColor">─</text>
  <text id="t-19-39" x="312" y="318" style="fill:currentColor">─</text>
  <text id="t-19-40" x="320" y="318" style="fill:currentColor">╯</text>
</svg>
