<?xml version="1.0" encoding="UTF-8"?>
<svg xmlns="http://www.w3.org/2000/svg" width="320" height="192" viewBox="0 0 320 192" font-family="monospace" font-size="16">
  <text id="t-0-0" x="0" y="14" style="fill:currentColor">▼</text>
  <text id="t-0-2" x="16" y="14" style="fill:currentColor">r</text>
  <text id="t-0-3" x="24" y="14" style="fill:currentColor">o</text>
  <text id="t-0-4" x="32" y="14" style="fill:currentColor">o</text>
  <text id="t-0-5" x="40" y="14" style="fill:currentColor">t</text>
  <text id="t-1-2" x="16" y="30" style="fill:currentColor">▼</text>
  <text id="t-1-4" x="32" y="30" style="fill:currentColor">p</text>
  <text id="t-1-5" x="40" y="30" style="fill:currentColor">r</text>
  <text id="t-1-6" x="48" y="30" style="fill:currentColor">o</text>
  <text id="t-1-7" x="56" y="30" style="fill:currentColor">j</text>
  <text id="t-1-8" x="64" y="30" style="fill:currentColor">e</text>
  <text id="t-1-9" x="72" y="30" style="fill:currentColor">c</text>
  <text id="t-1-10" x="80" y="30" style="fill:currentColor">t</text>
  <text id="t-1-11" x="88" y="30" style="fill:currentColor">/</text>
  <text id="t-2-4" x="32" y="46" style="fill:currentColor">▶</text>
  <text id="t-2-6" x="48" y="46" style="fill:currentColor">s</text>
  <text id="t-2-7" x="56" y="46" style="fill:currentColor">r</text>
  <text id="t-2-8" x="64" y="46" style="fill:currentColor">c</text>
  <text id="t-2-9" x="72" y="46" style="fill:currentColor">/</text>
  <text id="t-3-6" x="48" y="62" style="fill:currentColor">R</text>
  <text id="t-3-7" x="56" y="62" style="fill:currentColor">E</text>
  <text id="t-3-8" x="64" y="62" style="fill:currentColor">A</text>
  <text id="t-3-9" x="72" y="62" style="fill:currentColor">D</text>
  <text id="t-3-10" x="80" y="62" style="fill:currentColor">M</text>
  <text id="t-3-11" x="88" y="62" style="fill:currentColor">E</text>
  <text id="t-3-12" x="96" y="62" style="fill:currentColor">.</text>
  <text id="t-3-13" x="104" y="62" style="fill:currentColor">m</text>
  <text id="t-3-14" x="112" y="62" style="fill:currentColor">d</text>
  <text id="t-4-2" x="16" y="78" style="fill:currentColor">▶</text>
  <text id="t-4-4" x="32" y="78" style="fill:currentColor">s</text>
  <text id="t-4-5" x="40" y="78" style="fill:currentColor">c</text>
  <text id="t-4-6" x="48" y="78" style="fill:currentColor">r</text>
  <text id="t-4-7" x="56" y="78" style="fill:currentColor">i</text>
  <text id="t-4-8" x="64" y="78" style="fill:currentColor">p</text>
  <text id="t-4-9" x="72" y="78" style="fill:currentColor">t</text>
  <text id="t-4-10" x="80" y="78" style="fill:currentColor">s</text>
  <text id="t-4-11" x="88" y="78" style="fill:currentColor">/</text>

  <rect id="box-43" x="0" y="0" width="320" height="16" fill="none" stroke="#3399ff" stroke-width="1"/>
  <rect id="box-45" x="0" y="16" width="320" height="16" fill="none" stroke="#3399ff" stroke-width="1"/>
  <rect id="box-47" x="0" y="32" width="320" height="16" fill="none" stroke="#3399ff" stroke-width="1"/>
  <rect id="box-49" x="0" y="48" width="320" height="16" fill="none" stroke="#3399ff" stroke-width="1"/>
  <rect id="box-51" x="0" y="64" width="320" height="16" fill="none" stroke="#3399ff" stroke-width="1"/>
  <rect id="box-53" x="0" y="80" width="320" height="16" fill="none" stroke="#3399ff" stroke-width="1"/>
  <rect id="box-55" x="0" y="96" width="320" height="16" fill="none" stroke="#3399ff" stroke-width="1"/>
  <rect id="box-57" x="0" y="112" width="320" height="16" fill="none" stroke="#3399ff" stroke-width="1"/>
  <rect id="box-59" x="0" y="128" width="320" height="16" fill="none" stroke="#3399ff" stroke-width="1"/>
  <rect id="box-61" x="0" y="144" width="320" height="16" fill="none" stroke="#3399ff" stroke-width="1"/>
  <rect id="dirty-0-0" x="0" y="0" width="8" height="16" fill="#ff0000" fill-opacity="0.2"/>
  <rect id="dirty-1-2" x="16" y="16" width="8" height="16" fill="#ff0000" fill-opacity="0.2"/>
  <rect id="dirty-1-4" x="32" y="16" width="64" height="16" fill="#ff0000" fill-opacity="0.2"/>
  <rect id="dirty-2-4" x="32" y="32" width="8" height="16" fill="#ff0000" fill-opacity="0.2"/>
  <rect id="dirty-2-6" x="48" y="32" width="32" height="16" fill="#ff0000" fill-opacity="0.2"/>
  <rect id="dirty-3-6" x="48" y="48" width="72" height="16" fill="#ff0000" fill-opacity="0.2"/>
  <rect id="dirty-4-2" x="16" y="64" width="8" height="16" fill="#ff0000" fill-opacity="0.2"/>
  <rect id="dirty-4-4" x="32" y="64" width="64" height="16" fill="#ff0000" fill-opacity="0.2"/>
</svg>
