<?xml version="1.0" encoding="UTF-8"?>
<svg xmlns="http://www.w3.org/2000/svg" width="480" height="192" viewBox="0 0 480 192" font-family="monospace" font-size="16">
  <text id="t-0-0" x="0" y="14" style="fill:currentColor">I</text>
  <text id="t-0-1" x="8" y="14" style="fill:currentColor">D</text>
  <text id="t-0-6" x="48" y="14" style="fill:currentColor">N</text>
  <text id="t-0-7" x="56" y="14" style="fill:currentColor">a</text>
  <text id="t-0-8" x="64" y="14" style="fill:currentColor">m</text>
  <text id="t-0-9" x="72" y="14" style="fill:currentColor">e</text>
  <text id="t-0-16" x="128" y="14" style="fill:currentColor">R</text>
  <text id="t-0-17" x="136" y="14" style="fill:currentColor">o</text>
  <text id="t-0-18" x="144" y="14" style="fill:currentColor">l</text>
  <text id="t-0-19" x="152" y="14" style="fill:currentColor">e</text>
  <text id="t-0-27" x="216" y="14" style="fill:currentColor">S</text>
  <text id="t-0-28" x="224" y="14" style="fill:currentColor">c</text>
  <text id="t-0-29" x="232" y="14" style="fill:currentColor">o</text>
  <text id="t-0-30" x="240" y="14" style="fill:currentColor">r</text>
  <text id="t-0-31" x="248" y="14" style="fill:currentColor">e</text>
  <text id="t-1-0" x="0" y="30" style="fill:currentColor">0</text>
  <text id="t-1-1" x="8" y="30" style="fill:currentColor">0</text>
  <text id="t-1-2" x="16" y="30" style="fill:currentColor">1</text>
  <text id="t-1-6" x="48" y="30" style="fill:currentColor">A</text>
  <text id="t-1-7" x="56" y="30" style="fill:currentColor">l</text>
  <text id="t-1-8" x="64" y="30" style="fill:currentColor">i</text>
  <text id="t-1-9" x="72" y="30" style="fill:currentColor">c</text>
  <text id="t-1-10" x="80" y="30" style="fill:currentColor">e</text>
  <text id="t-1-16" x="128" y="30" style="fill:currentColor">A</text>
  <text id="t-1-17" x="136" y="30" style="fill:currentColor">d</text>
  <text id="t-1-18" x="144" y="30" style="fill:currentColor">m</text>
  <text id="t-1-19" x="152" y="30" style="fill:currentColor">i</text>
  <text id="t-1-20" x="160" y="30" style="fill:currentColor">n</text>
  <text id="t-1-27" x="216" y="30" style="fill:currentColor">9</text>
  <text id="t-1-28" x="224" y="30" style="fill:currentColor">8</text>
  <text id="t-2-0" x="0" y="46" style="fill:currentColor">0</text>
  <text id="t-2-1" x="8" y="46" style="fill:currentColor">0</text>
  <text id="t-2-2" x="16" y="46" style="fill:currentColor">2</text>
  <text id="t-2-6" x="48" y="46" style="fill:currentColor">B</text>
  <text id="t-2-7" x="56" y="46" style="fill:currentColor">o</text>
  <text id="t-2-8" x="64" y="46" style="fill:currentColor">b</text>
  <text id="t-2-16" x="128" y="46" style="fill:currentColor">E</text>
  <text id="t-2-17" x="136" y="46" style="fill:currentColor">n</text>
  <text id="t-2-18" x="144" y="46" style="fill:currentColor">g</text>
  <text id="t-2-19" x="152" y="46" style="fill:currentColor">i</text>
  <text id="t-2-20" x="160" y="46" style="fill:currentColor">n</text>
  <text id="t-2-21" x="168" y="46" style="fill:currentColor">e</text>
  <text id="t-2-22" x="176" y="46" style="fill:currentColor">e</text>
  <text id="t-2-23" x="184" y="46" style="fill:currentColor">r</text>
  <text id="t-2-27" x="216" y="46" style="fill:currentColor">8</text>
  <text id="t-2-28" x="224" y="46" style="fill:currentColor">5</text>
  <text id="t-3-0" x="0" y="62" style="fill:currentColor">0</text>
  <text id="t-3-1" x="8" y="62" style="fill:currentColor">0</text>
  <text id="t-3-2" x="16" y="62" style="fill:currentColor">3</text>
  <text id="t-3-6" x="48" y="62" style="fill:currentColor">C</text>
  <text id="t-3-7" x="56" y="62" style="fill:currentColor">a</text>
  <text id="t-3-8" x="64" y="62" style="fill:currentColor">r</text>
  <text id="t-3-9" x="72" y="62" style="fill:currentColor">o</text>
  <text id="t-3-10" x="80" y="62" style="fill:currentColor">l</text>
  <text id="t-3-16" x="128" y="62" style="fill:currentColor">D</text>
  <text id="t-3-17" x="136" y="62" style="fill:currentColor">e</text>
  <text id="t-3-18" x="144" y="62" style="fill:currentColor">s</text>
  <text id="t-3-19" x="152" y="62" style="fill:currentColor">i</text>
  <text id="t-3-20" x="160" y="62" style="fill:currentColor">g</text>
  <text id="t-3-21" x="168" y="62" style="fill:currentColor">n</text>
  <text id="t-3-22" x="176" y="62" style="fill:currentColor">e</text>
  <text id="t-3-23" x="184" y="62" style="fill:currentColor">r</text>
  <text id="t-3-27" x="216" y="62" style="fill:currentColor">9</text>
  <text id="t-3-28" x="224" y="62" style="fill:currentColor">2</text>
  <text id="t-4-0" x="0" y="78" style="fill:currentColor">0</text>
  <text id="t-4-1" x="8" y="78" style="fill:currentColor">0</text>
  <text id="t-4-2" x="16" y="78" style="fill:currentColor">4</text>
  <text id="t-4-6" x="48" y="78" style="fill:currentColor">D</text>
  <text id="t-4-7" x="56" y="78" style="fill:currentColor">a</text>
  <text id="t-4-8" x="64" y="78" style="fill:currentColor">v</text>
  <text id="t-4-9" x="72" y="78" style="fill:currentColor">e</text>
  <text id="t-4-16" x="128" y="78" style="fill:currentColor">E</text>
  <text id="t-4-17" x="136" y="78" style="fill:currentColor">n</text>
  <text id="t-4-18" x="144" y="78" style="fill:currentColor">g</text>
  <text id="t-4-19" x="152" y="78" style="fill:currentColor">i</text>
  <text id="t-4-20" x="160" y="78" style="fill:currentColor">n</text>
  <text id="t-4-21" x="168" y="78" style="fill:currentColor">e</text>
  <text id="t-4-22" x="176" y="78" style="fill:currentColor">e</text>
  <text id="t-4-23" x="184" y="78" style="fill:currentColor">r</text>
  <text id="t-4-27" x="216" y="78" style="fill:currentColor">7</text>
  <text id="t-4-28" x="224" y="78" style="fill:currentColor">8</text>
  <text id="t-5-0" x="0" y="94" style="fill:currentColor">0</text>
  <text id="t-5-1" x="8" y="94" style="fill:currentColor">0</text>
  <text id="t-5-2" x="16" y="94" style="fill:currentColor">5</text>
  <text id="t-5-6" x="48" y="94" style="fill:currentColor">E</text>
  <text id="t-5-7" x="56" y="94" style="fill:currentColor">v</text>
  <text id="t-5-8" x="64" y="94" style="fill:currentColor">e</text>
  <text id="t-5-16" x="128" y="94" style="fill:currentColor">M</text>
  <text id="t-5-17" x="136" y="94" style="fill:currentColor">a</text>
  <text id="t-5-18" x="144" y="94" style="fill:currentColor">n</text>
  <text id="t-5-19" x="152" y="94" style="fill:currentColor">a</text>
  <text id="t-5-20" x="160" y="94" style="fill:currentColor">g</text>
  <text id="t-5-21" x="168" y="94" style="fill:currentColor">e</text>
  <text id="t-5-22" x="176" y="94" style="fill:currentColor">r</text>
  <text id="t-5-27" x="216" y="94" style="fill:currentColor">8</text>
  <text id="t-5-28" x="224" y="94" style="fill:currentColor">8</text>
  <text id="t-6-0" x="0" y="110" style="fill:currentColor">0</text>
  <text id="t-6-1" x="8" y="110" style="fill:currentColor">0</text>
  <text id="t-6-2" x="16" y="110" style="fill:currentColor">6</text>
  <text id="t-6-6" x="48" y="110" style="fill:currentColor">F</text>
  <text id="t-6-7" x="56" y="110" style="fill:currentColor">r</text>
  <text id="t-6-8" x="64" y="110" style="fill:currentColor">a</text>
  <text id="t-6-9" x="72" y="110" style="fill:currentColor">n</text>
  <text id="t-6-10" x="80" y="110" style="fill:currentColor">k</text>
  <text id="t-6-16" x="128" y="110" style="fill:currentColor">E</text>
  <text id="t-6-17" x="136" y="110" style="fill:currentColor">n</text>
  <text id="t-6-18" x="144" y="110" style="fill:currentColor">g</text>
  <text id="t-6-19" x="152" y="110" style="fill:currentColor">i</text>
  <text id="t-6-20" x="160" y="110" style="fill:currentColor">n</text>
  <text id="t-6-21" x="168" y="110" style="fill:currentColor">e</text>
  <text id="t-6-22" x="176" y="110" style="fill:currentColor">e</text>
  <text id="t-6-23" x="184" y="110" style="fill:currentColor">r</text>
  <text id="t-6-27" x="216" y="110" style="fill:currentColor">7</text>
  <text id="t-6-28" x="224" y="110" style="fill:currentColor">3</text>
  <text id="t-7-0" x="0" y="126" style="fill:currentColor">0</text>
  <text id="t-7-1" x="8" y="126" style="fill:currentColor">0</text>
  <text id="t-7-2" x="16" y="126" style="fill:currentColor">7</text>
  <text id="t-7-6" x="48" y="126" style="fill:currentColor">G</text>
  <text id="t-7-7" x="56" y="126" style="fill:currentColor">r</text>
  <text id="t-7-8" x="64" y="126" style="fill:currentColor">a</text>
  <text id="t-7-9" x="72" y="126" style="fill:currentColor">c</text>
  <text id="t-7-10" x="80" y="126" style="fill:currentColor">e</text>
  <text id="t-7-16" x="128" y="126" style="fill:currentColor">E</text>
  <text id="t-7-17" x="136" y="126" style="fill:currentColor">n</text>
  <text id="t-7-18" x="144" y="126" style="fill:currentColor">g</text>
  <text id="t-7-19" x="152" y="126" style="fill:currentColor">i</text>
  <text id="t-7-20" x="160" y="126" style="fill:currentColor">n</text>
  <text id="t-7-21" x="168" y="126" style="fill:currentColor">e</text>
  <text id="t-7-22" x="176" y="126" style="fill:currentColor">e</text>
  <text id="t-7-23" x="184" y="126" style="fill:currentColor">r</text>
  <text id="t-7-27" x="216" y="126" style="fill:currentColor">9</text>
  <text id="t-7-28" x="224" y="126" style="fill:currentColor">5</text>
  <text id="t-8-0" x="0" y="142" style="fill:currentColor">0</text>
  <text id="t-8-1" x="8" y="142" style="fill:currentColor">0</text>
  <text id="t-8-2" x="16" y="142" style="fill:currentColor">8</text>
  <text id="t-8-6" x="48" y="142" style="fill:currentColor">H</text>
  <text id="t-8-7" x="56" y="142" style="fill:currentColor">e</text>
  <text id="t-8-8" x="64" y="142" style="fill:currentColor">i</text>
  <text id="t-8-9" x="72" y="142" style="fill:currentColor">d</text>
  <text id="t-8-10" x="80" y="142" style="fill:currentColor">i</text>
  <text id="t-8-16" x="128" y="142" style="fill:currentColor">D</text>
  <text id="t-8-17" x="136" y="142" style="fill:currentColor">e</text>
  <text id="t-8-18" x="144" y="142" style="fill:currentColor">s</text>
  <text id="t-8-19" x="152" y="142" style="fill:currentColor">i</text>
  <text id="t-8-20" x="160" y="142" style="fill:currentColor">g</text>
  <text id="t-8-21" x="168" y="142" style="fill:currentColor">n</text>
  <text id="t-8-22" x="176" y="142" style="fill:currentColor">e</text>
  <text id="t-8-23" x="184" y="142" style="fill:currentColor">r</text>
  <text id="t-8-27" x="216" y="142" style="fill:currentColor">8</text>
  <text id="t-8-28" x="224" y="142" style="fill:currentColor">2</text>
</svg>
